<svg id="svg" version="1.1" xmlns="http://www.w3.org/2000/svg" xmlns:xlink="http://www.w3.org/1999/xlink" width="400" height="121.29032258064515" viewBox="0, 0, 400,121.29032258064515"><g id="svgg"><path id="path0" d="M43.878 32.793 C 30.386 36.890,23.207 55.632,28.781 72.208 C 35.757 92.952,66.555 91.425,71.914 70.070 C 72.234 68.795,72.073 67.957,71.507 67.957 C 70.992 67.957,70.324 69.022,70.022 70.323 C 64.525 94.041,30.576 88.516,29.054 63.656 L 28.817 59.785 51.065 59.555 L 73.313 59.325 72.721 54.394 C 70.827 38.611,57.526 28.649,43.878 32.793 M144.511 32.632 C 138.430 34.481,134.005 38.272,130.888 44.301 L 129.108 47.742 129.070 40.645 C 129.048 36.513,128.673 33.548,128.172 33.548 C 127.613 33.548,127.312 45.878,127.312 68.817 C 127.312 91.756,127.613 104.086,128.172 104.086 C 128.715 104.086,129.045 97.970,129.066 87.527 C 129.097 72.048,129.184 71.162,130.389 73.940 C 137.919 91.298,161.118 91.489,169.598 74.264 C 180.264 52.599,164.557 26.534,144.511 32.632 M199.564 32.632 C 193.508 34.474,189.381 37.934,187.177 43.017 L 185.874 46.022 185.840 39.785 C 185.821 36.223,185.438 33.548,184.946 33.548 C 184.392 33.548,184.086 42.867,184.086 59.785 C 184.086 76.703,184.392 86.022,184.946 86.022 C 185.491 86.022,185.806 79.765,185.806 68.973 C 185.806 42.888,190.766 33.548,204.616 33.548 C 205.626 33.548,206.452 33.161,206.452 32.688 C 206.452 31.699,202.729 31.669,199.564 32.632 M226.244 32.793 C 212.751 36.890,205.573 55.632,211.147 72.208 C 218.122 92.952,248.920 91.425,254.280 70.070 C 254.600 68.795,254.439 67.957,253.873 67.957 C 253.358 67.957,252.689 69.022,252.388 70.323 C 246.891 94.041,212.942 88.516,211.420 63.656 L 211.183 59.785 233.431 59.555 L 255.678 59.325 255.087 54.394 C 253.193 38.611,239.891 28.649,226.244 32.793 M275.994 32.611 C 266.568 35.687,262.346 44.912,267.066 52.116 C 268.954 54.998,272.269 56.499,282.914 59.292 C 300.139 63.811,305.593 69.967,299.972 78.545 C 291.638 91.265,265.083 85.028,264.965 70.323 C 264.955 69.022,264.559 67.957,264.086 67.957 C 262.683 67.957,263.141 73.278,264.871 77.089 C 272.074 92.950,303.312 88.984,303.059 72.240 C 302.942 64.479,299.795 62.081,283.977 57.698 C 270.006 53.826,266.667 51.396,266.667 45.104 C 266.667 30.474,295.623 29.670,299.507 44.192 C 300.636 48.412,301.935 49.489,301.935 46.204 C 301.935 36.659,287.218 28.948,275.994 32.611 M325.886 32.611 C 316.461 35.687,312.238 44.912,316.958 52.116 C 318.846 54.998,322.162 56.499,332.806 59.292 C 350.031 63.811,355.485 69.967,349.865 78.545 C 341.530 91.265,314.975 85.028,314.858 70.323 C 314.847 69.022,314.452 67.957,313.978 67.957 C 312.576 67.957,313.033 73.278,314.764 77.089 C 321.967 92.950,353.204 88.984,352.952 72.240 C 352.835 64.479,349.688 62.081,333.870 57.698 C 319.898 53.826,316.559 51.396,316.559 45.104 C 316.559 30.474,345.516 29.670,349.400 44.192 C 350.529 48.412,351.828 49.489,351.828 46.204 C 351.828 36.659,337.111 28.948,325.886 32.611 M56.665 34.886 C 64.523 37.220,69.088 43.427,71.021 54.409 L 71.589 57.634 50.042 57.634 L 28.495 57.634 28.947 54.409 C 31.031 39.507,43.249 30.902,56.665 34.886 M79.140 34.009 C 79.140 34.262,83.224 39.887,88.215 46.508 L 97.290 58.547 87.523 71.233 C 76.314 85.793,76.157 86.022,77.340 86.022 C 77.826 86.022,82.738 80.183,88.256 73.046 C 96.390 62.527,98.488 60.288,99.339 61.218 C 100.106 62.056,112.430 78.035,118.372 85.896 C 118.499 86.064,119.037 86.056,119.569 85.879 C 120.100 85.701,116.918 80.919,112.498 75.251 C 108.077 69.584,103.361 63.493,102.018 61.717 L 99.576 58.488 108.713 46.509 C 113.738 39.921,117.849 34.309,117.849 34.039 C 117.849 32.210,115.278 34.981,107.527 45.161 C 102.664 51.548,98.543 56.774,98.368 56.774 C 98.194 56.774,94.158 51.548,89.400 45.161 C 81.923 35.125,79.140 32.100,79.140 34.009 M160.323 36.451 C 179.159 47.490,171.943 85.037,150.968 85.132 C 136.930 85.196,129.554 76.637,129.495 60.215 C 129.420 39.472,144.993 27.467,160.323 36.451 M239.031 34.886 C 246.889 37.220,251.453 43.427,253.387 54.409 L 253.955 57.634 232.408 57.634 L 210.861 57.634 211.312 54.409 C 213.397 39.507,225.615 30.902,239.031 34.886 " stroke="none" fill="#000000" fill-rule="evenodd"></path></g></svg>