<svg id="svg" version="1.1" xmlns="http://www.w3.org/2000/svg" xmlns:xlink="http://www.w3.org/1999/xlink" width="400" height="207.6349275998245" viewBox="0, 0, 400,207.6349275998245"><g id="svgg"><path id="path0" d="M256.516 0.328 C 253.002 1.341,250.705 4.628,250.736 8.600 C 250.759 11.594,251.997 14.289,255.370 18.692 C 262.296 27.732,262.714 28.393,263.608 31.697 C 264.170 33.777,266.318 40.028,267.612 43.352 C 269.514 48.237,272.488 53.520,274.513 55.611 C 276.044 57.192,276.206 57.653,275.632 58.795 C 275.384 59.288,274.989 60.497,274.752 61.482 C 274.516 62.467,273.970 64.616,273.539 66.257 C 270.754 76.866,271.143 86.796,274.697 95.788 C 278.538 105.509,286.153 109.397,290.079 103.642 C 290.641 102.818,291.141 100.956,291.529 98.240 C 291.982 95.067,292.753 90.868,292.912 90.701 C 292.980 90.630,293.929 92.407,295.022 94.650 C 298.456 101.699,302.808 106.856,309.697 112.043 C 310.180 112.406,311.565 113.671,312.776 114.853 C 315.018 117.041,316.151 117.940,317.246 118.397 C 318.365 118.865,317.779 118.020,316.109 116.757 C 314.408 115.471,311.063 111.633,309.039 108.644 C 308.875 108.403,308.457 107.810,308.109 107.328 C 307.502 106.484,306.344 104.744,304.783 102.326 C 300.834 96.206,295.490 85.513,293.864 80.474 C 292.975 77.717,292.944 77.717,290.737 80.474 C 286.944 85.209,286.223 87.553,284.948 99.285 C 284.592 102.560,281.145 99.158,278.829 93.248 C 275.512 84.781,275.610 73.042,279.074 63.888 C 281.542 57.365,281.448 55.807,278.400 52.719 C 276.814 51.112,275.404 49.029,274.013 46.239 C 272.770 43.744,272.304 42.479,269.785 34.752 C 267.075 26.435,265.738 23.975,259.982 16.707 C 254.272 9.495,253.996 5.044,259.288 5.485 C 262.758 5.774,271.935 10.235,275.434 13.333 C 277.270 14.958,278.020 15.303,279.828 15.352 C 282.353 15.421,288.901 15.959,289.658 16.160 C 299.454 18.761,312.533 27.392,322.247 37.665 C 329.242 45.064,335.304 54.195,338.311 61.860 C 338.943 63.474,339.735 65.386,340.069 66.109 C 340.402 66.832,340.676 67.459,340.676 67.503 C 340.676 67.546,341.476 69.259,342.455 71.308 C 344.971 76.575,346.117 79.008,346.117 79.083 C 346.117 79.119,346.343 79.644,346.619 80.250 C 346.896 80.856,347.379 81.944,347.694 82.668 C 349.671 87.221,352.606 92.396,354.065 93.903 C 354.862 94.725,356.939 95.646,360.573 96.789 C 362.298 97.331,364.154 97.960,364.698 98.186 C 365.242 98.412,365.884 98.655,366.125 98.725 C 369.533 99.719,371.858 101.062,379.738 106.587 C 381.084 107.530,383.133 108.925,384.291 109.686 C 386.509 111.143,387.564 112.058,388.001 112.902 L 388.264 113.411 387.331 113.297 C 383.477 112.827,374.533 114.016,370.088 115.590 C 369.115 115.935,367.846 116.359,367.266 116.533 C 365.080 117.191,363.949 118.184,364.507 118.958 C 364.628 119.126,364.819 119.500,364.932 119.789 C 366.691 124.302,370.214 127.991,377.028 132.457 C 378.444 133.385,383.783 136.200,384.126 136.200 C 385.371 136.200,396.120 143.124,397.894 145.069 C 398.396 145.619,399.628 146.556,399.851 146.556 C 400.582 146.556,398.852 143.304,397.366 141.887 C 396.668 141.221,395.362 139.807,394.464 138.745 C 390.618 134.195,386.752 130.801,382.729 128.444 C 379.213 126.384,378.560 125.977,377.095 124.940 C 375.407 123.744,373.982 122.323,373.522 121.377 L 373.185 120.682 375.052 120.304 C 376.079 120.096,377.789 119.682,378.850 119.384 C 381.097 118.754,381.851 118.617,385.856 118.117 C 388.768 117.753,390.749 117.322,393.638 116.424 C 395.404 115.875,395.547 115.471,394.421 114.213 C 393.789 113.507,393.141 112.695,392.365 111.637 C 391.365 110.273,390.387 109.294,388.153 107.424 C 382.201 102.441,374.602 97.019,371.040 95.214 C 369.395 94.380,362.786 91.442,361.126 90.806 C 358.968 89.980,358.320 89.314,356.872 86.441 C 354.977 82.683,350.534 73.587,349.756 71.874 C 347.339 66.554,345.628 62.633,344.518 59.875 C 342.395 54.595,340.860 51.742,337.612 47.038 C 336.979 46.121,336.100 44.845,335.660 44.203 C 331.771 38.528,325.181 31.474,318.732 26.083 C 312.227 20.645,302.180 14.207,297.762 12.646 C 293.252 11.052,289.342 10.251,284.866 10.004 C 282.411 9.869,280.935 9.714,280.636 9.558 C 280.260 9.364,278.168 7.727,277.841 7.370 C 276.641 6.064,270.189 2.640,266.475 1.339 C 262.753 0.035,258.894 -0.357,256.516 0.328 M281.483 25.317 C 280.649 25.460,279.966 25.976,280.612 25.976 C 280.687 25.976,280.894 26.222,281.072 26.523 C 281.249 26.823,281.967 27.751,282.666 28.585 C 283.647 29.755,284.201 30.653,285.093 32.524 L 286.250 34.946 286.706 34.647 C 288.233 33.647,289.270 30.108,288.372 28.960 C 288.183 28.719,288.027 28.434,288.025 28.328 C 288.016 27.890,286.917 26.660,285.860 25.905 C 284.612 25.015,283.845 24.912,281.483 25.317 M12.286 126.839 C 4.691 127.593,1.014 129.847,0.177 134.259 C 0.063 134.864,-0.000 144.766,-0.000 162.290 L -0.000 189.386 6.626 189.340 L 13.251 189.294 13.298 163.405 L 13.344 137.516 23.677 160.357 C 35.415 186.303,34.968 185.378,36.507 186.945 C 38.795 189.273,41.038 189.995,45.985 189.995 C 52.988 189.995,55.721 188.219,58.540 181.834 C 58.987 180.821,59.608 179.438,59.920 178.763 C 60.232 178.087,64.510 168.583,69.427 157.643 L 78.368 137.753 78.455 163.523 L 78.543 189.294 85.260 189.340 L 91.977 189.385 91.929 161.784 L 91.882 134.182 91.419 132.991 C 89.891 129.061,85.169 126.878,78.104 126.836 C 71.396 126.796,68.101 129.205,64.777 136.579 C 63.579 139.237,59.048 149.349,48.627 172.616 C 47.071 176.090,45.741 178.989,45.671 179.059 C 45.602 179.129,41.849 170.639,37.332 160.194 C 32.816 149.749,28.350 139.424,27.408 137.251 C 25.583 133.041,24.796 131.698,23.274 130.200 C 20.743 127.709,16.524 126.419,12.286 126.839 M206.275 128.082 C 211.656 128.108,220.463 128.108,225.845 128.082 C 231.226 128.057,226.823 128.036,216.060 128.036 C 205.296 128.036,200.893 128.057,206.275 128.082 M321.161 128.082 C 323.026 128.111,326.027 128.111,327.831 128.082 C 329.634 128.054,328.109 128.030,324.441 128.030 C 320.772 128.031,319.297 128.054,321.161 128.082 M152.699 163.588 L 152.699 180.795 137.209 180.735 C 120.499 180.670,120.878 180.691,118.955 179.731 C 117.936 179.222,117.152 178.472,116.688 177.564 C 116.344 176.888,116.336 176.542,116.330 162.047 C 116.327 153.892,116.285 147.071,116.237 146.888 C 116.154 146.569,115.879 146.556,109.504 146.556 L 102.857 146.556 102.898 152.655 C 102.920 156.009,102.920 162.940,102.897 168.056 C 102.863 175.375,102.905 177.546,103.089 178.236 C 104.538 183.651,111.317 187.738,120.398 188.670 C 121.506 188.784,128.017 188.855,137.371 188.855 L 152.545 188.855 152.490 191.986 L 152.435 195.117 151.909 195.877 C 151.209 196.886,149.906 197.693,148.017 198.286 L 146.468 198.771 124.748 198.820 L 103.028 198.868 103.028 203.252 L 103.028 207.635 125.625 207.632 C 143.928 207.629,148.523 207.583,149.803 207.387 C 159.562 205.893,165.253 201.551,166.036 195.002 C 166.147 194.068,166.213 184.760,166.213 169.948 L 166.213 146.380 159.456 146.380 L 152.699 146.380 152.699 163.588 M185.490 180.386 C 190.637 180.412,199.009 180.412,204.094 180.386 C 209.179 180.360,204.967 180.339,194.735 180.339 C 184.502 180.339,180.342 180.360,185.490 180.386 M349.421 180.386 C 354.472 180.412,362.686 180.412,367.675 180.386 C 372.663 180.360,368.530 180.339,358.491 180.339 C 348.451 180.339,344.370 180.360,349.421 180.386 M381.800 180.386 C 382.843 180.417,384.501 180.417,385.486 180.385 C 386.470 180.354,385.616 180.329,383.589 180.329 C 381.562 180.329,380.757 180.354,381.800 180.386 M389.956 180.383 C 390.369 180.420,391.001 180.420,391.360 180.382 C 391.720 180.344,391.382 180.314,390.610 180.315 C 389.838 180.315,389.544 180.346,389.956 180.383 M397.148 180.383 C 397.558 180.420,398.229 180.420,398.640 180.383 C 399.050 180.346,398.714 180.316,397.894 180.316 C 397.073 180.316,396.738 180.346,397.148 180.383 M231.936 183.282 L 231.242 184.028 231.988 183.334 C 232.681 182.689,232.814 182.536,232.682 182.536 C 232.653 182.536,232.317 182.872,231.936 183.282 " stroke="none" fill="#046c8c" fill-rule="evenodd"></path><path id="path1" d="M192.453 128.249 C 184.476 128.974,178.455 132.918,176.793 138.509 C 176.357 139.978,176.248 150.701,176.656 152.122 C 177.871 156.354,182.397 159.767,188.943 161.385 C 192.997 162.387,193.126 162.397,204.300 162.529 C 217.986 162.691,218.848 162.861,221.130 165.848 L 221.588 166.448 221.645 170.938 C 221.717 176.623,221.509 177.333,219.351 178.749 C 216.862 180.383,216.164 180.430,194.365 180.430 L 176.218 180.430 176.218 184.906 L 176.218 189.381 195.042 189.379 C 205.426 189.377,214.991 189.299,216.376 189.205 C 225.495 188.582,232.654 184.633,234.695 179.100 C 235.237 177.629,235.414 166.144,234.922 164.326 C 233.845 160.345,228.793 156.762,222.115 155.242 C 218.828 154.494,217.686 154.425,206.231 154.289 C 194.739 154.153,194.590 154.143,192.951 153.396 C 192.022 152.972,190.732 151.739,190.386 150.943 C 189.786 149.566,189.732 149.080,189.732 144.981 L 189.732 140.826 190.215 139.882 C 190.830 138.679,191.678 138.012,193.185 137.543 C 194.370 137.175,194.611 137.170,215.007 137.080 L 235.630 136.990 235.677 132.558 L 235.723 128.126 214.439 128.156 C 202.733 128.172,192.839 128.214,192.453 128.249 M260.815 128.308 C 252.365 129.238,246.483 132.645,244.448 137.789 C 243.506 140.170,243.528 139.682,243.530 158.842 L 243.532 176.656 243.929 178.061 C 245.750 184.505,251.744 188.405,261.317 189.373 C 265.287 189.774,281.327 189.517,287.719 188.949 L 288.733 188.859 289.825 189.886 C 291.607 191.561,298.423 197.696,298.971 198.118 C 299.464 198.498,314.204 198.770,314.568 198.405 C 314.655 198.318,311.446 195.358,303.367 188.075 L 301.775 186.640 303.221 185.882 C 307.325 183.732,309.023 180.930,309.449 175.603 C 309.775 171.521,309.565 140.929,309.201 139.564 C 307.614 133.612,303.413 130.465,294.603 128.629 C 292.551 128.201,264.232 127.932,260.815 128.308 M317.730 152.128 C 317.787 174.643,317.811 176.205,318.110 177.346 C 319.790 183.758,325.227 187.418,335.059 188.757 C 338.875 189.276,342.910 189.378,359.763 189.380 L 376.656 189.381 376.656 184.915 L 376.656 180.449 357.481 180.377 C 344.577 180.328,338.001 180.242,337.374 180.113 C 334.270 179.474,332.686 178.542,331.815 176.839 L 331.286 175.804 331.239 151.965 L 331.192 128.126 324.430 128.126 L 317.669 128.126 317.730 152.128 M291.268 137.473 C 294.021 138.217,295.890 139.639,296.596 141.526 L 296.979 142.550 296.932 159.077 L 296.885 175.603 296.490 176.393 C 295.908 177.559,294.299 179.201,293.739 179.201 C 293.482 179.201,291.493 177.449,285.925 172.315 L 284.072 170.607 276.393 170.604 C 272.170 170.602,268.714 170.662,268.714 170.737 C 268.714 170.849,270.051 172.083,272.654 174.375 C 273.016 174.693,274.931 176.425,277.224 178.509 C 277.708 178.949,278.420 179.600,278.806 179.955 L 279.509 180.602 273.453 180.603 C 267.406 180.603,264.938 180.454,263.449 180.001 C 260.641 179.146,259.123 177.742,258.354 175.288 C 257.895 173.825,257.811 143.122,258.262 141.843 C 259.105 139.454,261.739 137.730,265.234 137.280 C 267.614 136.973,290.036 137.139,291.268 137.473 M379.991 181.220 L 379.991 182.010 381.308 182.010 L 382.624 182.010 382.624 185.695 L 382.624 189.381 383.677 189.381 L 384.730 189.381 384.730 185.695 L 384.730 182.010 385.959 182.010 L 387.187 182.010 387.187 181.220 L 387.187 180.430 383.589 180.430 L 379.991 180.430 379.991 181.220 M389.118 184.899 L 389.118 189.381 390.083 189.381 L 391.049 189.381 391.053 186.090 L 391.056 182.799 392.281 186.043 C 392.955 187.827,393.506 189.313,393.506 189.344 C 393.506 189.376,393.838 189.377,394.243 189.348 L 394.980 189.294 396.167 186.134 L 397.353 182.975 397.360 186.178 L 397.367 189.381 398.333 189.381 L 399.298 189.381 399.298 184.899 L 399.298 180.416 397.856 180.467 L 396.413 180.518 395.406 183.304 C 394.852 184.836,394.366 186.123,394.325 186.164 C 394.284 186.205,393.736 184.951,393.107 183.378 L 391.963 180.518 390.540 180.467 L 389.118 180.416 389.118 184.899 " stroke="none" fill="#cc8c2c" fill-rule="evenodd"></path></g></svg>