<svg id="svg" version="1.1" xmlns="http://www.w3.org/2000/svg" xmlns:xlink="http://www.w3.org/1999/xlink" width="400" height="343.6241610738255" viewBox="0, 0, 400,343.6241610738255"><g id="svgg"><path id="path0" d="M175.945 22.670 C 175.945 22.853,176.243 23.533,176.607 24.181 C 176.970 24.829,178.077 26.882,179.065 28.745 C 180.053 30.607,181.341 32.981,181.928 34.021 C 184.374 38.352,184.373 38.440,181.908 39.258 C 179.644 40.009,175.016 41.654,171.478 42.965 C 169.871 43.561,168.170 44.175,167.698 44.330 C 167.225 44.485,165.524 45.104,163.918 45.704 C 162.311 46.305,160.610 46.925,160.137 47.083 C 153.759 49.206,152.630 48.936,176.632 51.030 C 184.098 51.682,191.141 52.306,192.284 52.416 L 194.361 52.617 197.094 57.150 C 198.597 59.644,200.060 62.087,200.343 62.580 C 203.156 67.466,206.395 72.509,206.721 72.509 C 207.143 72.509,207.446 71.857,210.548 64.261 C 211.591 61.710,212.814 58.806,213.267 57.808 C 213.719 56.810,214.089 55.862,214.089 55.702 C 214.089 54.989,215.240 54.641,218.748 54.292 C 223.118 53.857,226.784 53.482,232.302 52.904 C 234.476 52.676,238.716 52.239,241.726 51.932 C 247.573 51.336,248.461 50.947,245.978 50.069 C 244.395 49.509,242.123 48.662,230.412 44.267 C 228.900 43.699,226.581 42.840,225.258 42.357 C 222.266 41.265,222.248 41.235,223.203 38.878 C 225.003 34.437,226.566 30.671,227.146 29.381 C 228.319 26.773,228.866 25.344,228.866 24.891 C 228.866 24.323,228.925 24.305,214.664 29.026 C 208.649 31.017,203.509 32.646,203.241 32.646 C 202.771 32.646,198.845 31.187,194.072 29.238 C 182.095 24.347,175.945 22.119,175.945 22.670 M106.014 61.851 C 67.863 64.998,53.677 82.964,80.756 93.838 C 82.832 94.671,87.458 96.135,89.347 96.556 C 94.389 97.680,97.172 98.158,103.569 98.997 C 107.519 99.515,124.390 99.521,128.179 99.005 C 135.036 98.071,136.326 97.878,137.629 97.589 C 138.385 97.421,139.854 97.105,140.893 96.885 C 149.770 95.008,157.530 91.368,161.746 87.102 C 175.240 73.447,142.926 58.807,106.014 61.851 M230.928 100.599 C 229.891 100.701,225.966 101.275,223.368 101.706 C 222.328 101.879,220.318 102.189,218.900 102.396 C 217.483 102.604,215.357 102.922,214.175 103.105 C 212.994 103.287,211.022 103.591,209.794 103.780 C 208.565 103.969,206.555 104.278,205.326 104.467 C 204.098 104.656,202.088 104.966,200.859 105.155 C 199.631 105.344,197.620 105.653,196.392 105.842 C 195.163 106.031,193.192 106.340,192.010 106.529 C 190.829 106.717,186.229 107.415,181.787 108.079 C 177.345 108.743,172.784 109.437,171.649 109.621 C 170.515 109.805,167.500 110.272,164.948 110.659 C 162.397 111.047,159.381 111.508,158.247 111.684 C 157.113 111.860,155.026 112.172,153.608 112.377 C 152.191 112.583,150.258 112.886,149.313 113.051 C 148.368 113.217,146.280 113.543,144.674 113.777 C 140.932 114.321,140.768 114.509,143.193 115.475 C 144.291 115.913,145.962 116.616,146.907 117.037 C 147.852 117.459,150.326 118.497,152.405 119.344 C 159.405 122.195,168.892 126.130,169.931 126.613 C 170.498 126.876,172.586 127.735,174.570 128.522 C 176.555 129.309,178.681 130.173,179.296 130.441 C 179.910 130.709,180.915 131.148,181.529 131.416 C 182.143 131.685,183.497 132.239,184.536 132.646 C 185.576 133.054,186.929 133.607,187.543 133.876 C 188.157 134.144,189.162 134.583,189.777 134.850 C 190.391 135.118,193.445 136.370,196.564 137.634 C 199.682 138.898,202.759 140.177,203.401 140.476 C 204.816 141.135,204.591 141.372,209.511 134.021 C 211.345 131.280,212.940 128.960,213.054 128.866 C 213.168 128.771,214.720 126.529,216.503 123.883 C 220.519 117.921,227.338 107.900,230.022 104.014 C 232.169 100.908,232.286 100.466,230.928 100.599 " stroke="none" fill="#fbfafa" fill-rule="evenodd"></path><path id="path1" d="M238.267 8.076 C 238.551 8.359,238.987 8.586,239.237 8.580 C 239.522 8.573,239.442 8.381,239.024 8.065 C 238.152 7.405,237.605 7.413,238.267 8.076 M287.457 57.114 C 286.512 57.499,285.083 58.105,284.282 58.460 C 283.481 58.816,282.662 59.107,282.461 59.107 C 282.261 59.107,281.457 59.416,280.675 59.794 C 279.892 60.172,279.125 60.481,278.970 60.481 C 278.814 60.481,277.954 60.806,277.058 61.203 C 274.805 62.201,275.827 61.794,257.732 68.900 C 248.754 72.426,241.061 75.454,240.636 75.628 C 240.210 75.802,239.476 76.100,239.003 76.289 C 238.531 76.478,237.758 76.787,237.285 76.976 C 236.813 77.165,236.078 77.454,235.653 77.617 C 235.228 77.781,234.493 78.080,234.021 78.282 C 233.548 78.484,232.572 78.848,231.851 79.092 C 229.587 79.858,229.733 80.170,232.928 81.397 C 234.569 82.026,236.375 82.746,236.942 82.995 C 237.509 83.245,238.668 83.710,239.519 84.030 C 240.369 84.350,241.721 84.904,242.522 85.261 C 243.323 85.618,244.137 85.911,244.331 85.911 C 244.524 85.911,244.990 86.065,245.365 86.254 C 245.741 86.443,246.355 86.753,246.731 86.942 C 247.106 87.131,247.572 87.285,247.765 87.285 C 247.959 87.285,248.773 87.578,249.574 87.936 C 252.473 89.230,283.395 101.375,283.793 101.375 C 284.018 101.375,284.470 101.234,284.798 101.062 C 285.903 100.483,289.091 99.313,289.563 99.313 C 290.030 99.313,296.810 96.726,299.567 95.495 C 300.368 95.138,301.182 94.845,301.375 94.845 C 301.569 94.845,301.996 94.709,302.324 94.542 C 302.987 94.204,305.037 93.358,307.302 92.486 C 307.728 92.322,308.540 91.992,309.107 91.753 C 309.674 91.513,310.447 91.204,310.825 91.065 C 311.203 90.927,311.937 90.638,312.457 90.424 C 314.314 89.658,315.117 89.342,328.694 84.033 C 344.979 77.665,344.905 77.701,343.070 77.121 C 342.723 77.012,341.744 76.633,340.893 76.280 C 340.043 75.927,337.878 75.080,336.082 74.398 C 334.287 73.716,332.354 72.948,331.787 72.690 C 331.220 72.432,330.060 71.962,329.210 71.646 C 328.359 71.329,327.277 70.909,326.804 70.712 C 326.332 70.516,325.636 70.235,325.258 70.089 C 324.880 69.943,322.483 69.019,319.931 68.035 C 317.380 67.052,314.674 65.977,313.918 65.647 C 313.162 65.317,307.904 63.237,302.234 61.025 C 296.564 58.813,291.656 56.857,291.328 56.680 C 290.452 56.207,289.389 56.326,287.457 57.114 M399.399 79.146 C 397.774 82.805,388.275 88.956,374.914 95.002 C 373.308 95.729,371.065 96.748,369.931 97.266 C 368.797 97.784,367.174 98.516,366.323 98.893 C 365.473 99.270,364.003 99.923,363.058 100.344 C 361.171 101.185,359.033 102.135,356.787 103.132 C 355.984 103.488,354.669 104.074,353.866 104.433 C 353.063 104.792,350.782 105.781,348.797 106.629 C 346.813 107.478,343.333 108.979,341.065 109.964 C 337.076 111.696,335.964 112.177,333.591 113.193 C 332.977 113.456,331.580 114.075,330.488 114.568 C 329.396 115.061,328.434 115.464,328.351 115.464 C 328.267 115.464,327.305 115.867,326.213 116.360 C 323.594 117.542,324.106 117.321,308.763 123.887 C 302.715 126.475,296.950 128.963,295.952 129.417 C 294.954 129.870,294.070 130.241,293.986 130.241 C 293.903 130.241,293.018 130.611,292.020 131.064 C 291.023 131.517,286.340 133.544,281.615 135.569 C 276.890 137.593,271.889 139.774,270.502 140.415 C 269.115 141.056,267.915 141.581,267.835 141.581 C 267.755 141.581,267.035 141.881,266.233 142.249 C 265.432 142.616,260.601 144.765,255.498 147.024 C 241.908 153.040,238.492 154.619,229.586 159.000 C 204.115 171.530,194.021 172.045,172.165 161.932 C 170.936 161.363,169.158 160.555,168.213 160.136 C 167.268 159.716,165.678 159.004,164.681 158.553 C 163.683 158.101,162.797 157.732,162.713 157.732 C 162.629 157.732,161.547 157.268,160.309 156.701 C 159.071 156.134,157.990 155.670,157.905 155.670 C 157.821 155.670,156.936 155.298,155.938 154.843 C 154.940 154.389,150.722 152.604,146.564 150.877 C 142.405 149.150,138.540 147.524,137.973 147.263 C 137.405 147.002,136.091 146.456,135.052 146.048 C 134.012 145.641,132.659 145.087,132.045 144.819 C 131.430 144.550,130.425 144.110,129.811 143.842 C 129.197 143.574,127.457 142.864,125.945 142.265 C 124.433 141.666,122.577 140.898,121.821 140.558 C 121.065 140.218,118.127 138.988,115.292 137.826 C 112.457 136.663,109.287 135.343,108.247 134.891 C 107.208 134.440,105.120 133.582,103.608 132.984 C 102.096 132.387,100.241 131.616,99.485 131.271 C 98.729 130.927,96.873 130.155,95.361 129.556 C 92.526 128.433,91.704 128.087,88.921 126.844 C 88.026 126.444,87.221 126.117,87.133 126.117 C 87.044 126.117,85.380 125.442,83.435 124.618 C 81.489 123.794,77.732 122.230,75.086 121.142 C 72.440 120.055,69.811 118.966,69.244 118.724 C 68.677 118.482,66.821 117.706,65.120 117.001 C 63.419 116.296,61.409 115.443,60.653 115.106 C 59.897 114.770,58.041 114.003,56.529 113.402 C 55.017 112.801,53.162 112.033,52.405 111.693 C 51.649 111.354,48.170 109.883,44.674 108.425 C 41.177 106.966,37.500 105.401,36.502 104.948 C 35.504 104.495,34.619 104.124,34.535 104.124 C 34.450 104.124,33.369 103.660,32.131 103.093 C 30.893 102.526,29.811 102.062,29.727 102.062 C 29.642 102.062,28.719 101.675,27.673 101.203 C 26.628 100.730,24.918 99.957,23.873 99.485 C 22.828 99.012,21.909 98.625,21.831 98.625 C 21.753 98.625,19.889 97.776,17.687 96.738 C 7.914 92.128,2.566 88.376,0.785 84.880 C 0.171 83.675,-0.416 122.374,0.166 125.640 C 0.363 126.745,3.039 129.897,3.780 129.897 C 4.006 129.897,4.603 130.322,5.106 130.842 C 5.609 131.362,6.251 131.837,6.532 131.899 C 6.814 131.960,7.096 132.153,7.159 132.328 C 7.222 132.503,7.493 132.646,7.761 132.646 C 8.028 132.646,8.249 132.762,8.250 132.904 C 8.252 133.046,8.600 133.338,9.023 133.554 C 13.059 135.611,14.836 136.426,15.281 136.426 C 15.571 136.426,15.808 136.567,15.808 136.740 C 15.808 136.912,16.465 137.161,17.268 137.294 C 18.683 137.527,20.905 138.360,24.667 140.069 C 25.664 140.523,26.547 140.893,26.627 140.893 C 26.707 140.893,27.747 141.340,28.936 141.886 C 31.178 142.914,31.806 143.188,37.199 145.495 C 37.814 145.758,40.249 146.780,42.612 147.768 C 44.974 148.755,48.918 150.410,51.375 151.444 C 53.832 152.479,57.156 153.869,58.763 154.533 C 60.369 155.197,62.148 155.945,62.715 156.194 C 63.282 156.443,64.584 156.977,65.608 157.379 C 66.632 157.782,68.101 158.399,68.873 158.750 C 69.644 159.102,71.512 159.879,73.024 160.478 C 74.536 161.077,76.237 161.783,76.804 162.047 C 77.861 162.538,87.578 166.567,94.330 169.314 C 97.890 170.762,98.709 171.106,101.460 172.310 C 102.075 172.579,103.428 173.132,104.467 173.540 C 105.507 173.947,106.860 174.500,107.474 174.769 C 109.602 175.700,110.853 176.223,116.838 178.680 C 120.146 180.038,124.288 181.756,126.042 182.499 C 127.796 183.241,129.299 183.849,129.382 183.849 C 129.465 183.849,130.352 184.223,131.353 184.681 C 132.354 185.139,134.021 185.847,135.057 186.255 C 136.094 186.662,137.483 187.233,138.144 187.525 C 139.663 188.193,140.212 188.426,146.907 191.235 C 154.032 194.226,163.326 198.173,165.292 199.044 C 166.143 199.421,167.380 199.963,168.041 200.249 C 169.558 200.905,171.958 201.996,175.258 203.530 C 193.244 211.890,205.946 211.024,228.007 199.934 C 230.653 198.604,235.911 196.084,239.691 194.334 C 247.700 190.627,249.044 190.020,255.498 187.194 C 257.010 186.532,259.098 185.601,260.137 185.125 C 261.177 184.649,263.651 183.564,265.636 182.714 C 270.999 180.417,277.981 177.375,279.635 176.615 C 280.437 176.246,281.167 175.945,281.258 175.945 C 281.349 175.945,282.239 175.576,283.237 175.126 C 284.235 174.675,286.211 173.807,287.629 173.196 C 289.046 172.585,291.023 171.717,292.020 171.266 C 293.018 170.815,293.903 170.447,293.986 170.447 C 294.070 170.447,294.954 170.075,295.952 169.620 C 296.950 169.165,299.854 167.911,302.405 166.832 C 307.368 164.734,314.706 161.550,317.092 160.460 C 317.894 160.093,318.624 159.794,318.716 159.794 C 318.808 159.794,319.896 159.330,321.134 158.763 C 322.372 158.196,323.454 157.732,323.538 157.732 C 323.622 157.732,324.507 157.361,325.505 156.909 C 326.503 156.456,331.186 154.427,335.911 152.400 C 340.636 150.373,345.318 148.347,346.316 147.897 C 347.314 147.447,348.196 147.079,348.277 147.079 C 348.357 147.079,349.396 146.633,350.586 146.087 C 351.776 145.541,353.290 144.862,353.952 144.577 C 355.094 144.085,356.469 143.478,359.966 141.924 C 360.816 141.546,362.208 140.928,363.058 140.550 C 370.280 137.340,375.200 135.094,378.267 133.605 C 380.351 132.594,381.417 132.264,382.281 132.365 C 383.129 132.464,383.581 132.331,383.901 131.887 C 384.145 131.548,384.619 131.271,384.956 131.271 C 385.292 131.271,385.567 131.117,385.567 130.928 C 385.567 130.739,385.876 130.584,386.254 130.584 C 386.632 130.584,386.942 130.430,386.942 130.241 C 386.942 130.052,387.144 129.897,387.392 129.897 C 387.640 129.897,388.175 129.588,388.581 129.210 C 388.986 128.832,389.557 128.522,389.848 128.522 C 390.140 128.522,390.378 128.368,390.378 128.179 C 390.378 127.990,390.581 127.835,390.829 127.835 C 391.077 127.835,391.611 127.526,392.017 127.148 C 392.423 126.770,392.882 126.460,393.037 126.460 C 393.192 126.460,393.542 126.151,393.814 125.773 C 394.087 125.395,394.519 125.086,394.776 125.086 C 395.418 125.086,399.625 120.697,399.842 119.801 C 400.270 118.032,399.835 78.164,399.399 79.146 M1.571 145.214 C 1.207 145.480,1.007 145.795,1.126 145.914 C 1.245 146.033,1.600 145.872,1.915 145.557 C 2.655 144.817,2.427 144.588,1.571 145.214 M399.404 146.831 C 397.400 151.333,388.630 156.732,369.242 165.397 C 365.652 167.002,361.787 168.734,360.653 169.246 C 359.519 169.758,358.127 170.374,357.560 170.615 C 354.976 171.712,352.125 172.966,348.873 174.437 C 347.875 174.888,346.984 175.258,346.893 175.258 C 346.802 175.258,346.072 175.560,345.271 175.929 C 342.803 177.067,331.928 181.787,331.776 181.787 C 331.697 181.787,330.619 182.251,329.381 182.818 C 328.143 183.385,327.062 183.849,326.978 183.849 C 326.893 183.849,325.969 184.235,324.924 184.708 C 323.879 185.180,322.169 185.954,321.124 186.426 C 320.079 186.899,319.155 187.285,319.071 187.285 C 318.986 187.285,317.905 187.749,316.667 188.316 C 315.429 188.883,314.347 189.347,314.263 189.347 C 314.179 189.347,313.293 189.717,312.295 190.170 C 311.298 190.622,306.615 192.648,301.890 194.672 C 297.165 196.695,292.483 198.722,291.485 199.175 C 290.487 199.629,289.601 200.000,289.517 200.000 C 289.433 200.000,288.351 200.464,287.113 201.031 C 285.875 201.598,284.794 202.062,284.709 202.062 C 284.625 202.062,283.740 202.431,282.742 202.882 C 281.744 203.333,276.753 205.515,271.649 207.731 C 266.546 209.947,261.714 212.052,260.911 212.409 C 260.107 212.766,258.793 213.350,257.990 213.707 C 257.186 214.063,255.756 214.698,254.811 215.117 C 253.866 215.537,252.629 216.086,252.062 216.337 C 251.495 216.588,249.662 217.422,247.990 218.190 C 246.317 218.959,244.890 219.588,244.817 219.588 C 244.744 219.588,242.575 220.593,239.995 221.821 C 237.416 223.050,235.253 224.055,235.188 224.055 C 235.124 224.055,232.013 225.573,228.274 227.428 C 205.082 238.937,193.493 239.632,174.227 230.668 C 172.620 229.921,170.146 228.805,168.729 228.188 C 167.311 227.571,165.533 226.793,164.777 226.457 C 162.997 225.668,154.656 222.114,150.687 220.454 C 145.949 218.473,145.648 218.345,143.904 217.566 C 143.008 217.166,142.201 216.838,142.110 216.838 C 142.019 216.838,141.128 216.465,140.130 216.009 C 139.133 215.553,137.079 214.689,135.567 214.089 C 134.055 213.488,132.187 212.710,131.416 212.359 C 130.644 212.007,129.175 211.390,128.151 210.988 C 127.127 210.585,125.825 210.042,125.258 209.782 C 124.691 209.521,122.835 208.742,121.134 208.050 C 112.226 204.428,110.366 203.661,109.107 203.090 C 108.351 202.747,106.495 201.975,104.983 201.375 C 103.471 200.774,101.615 200.001,100.859 199.657 C 100.103 199.313,97.861 198.385,95.876 197.595 C 93.892 196.804,91.649 195.879,90.893 195.539 C 90.137 195.198,87.354 194.040,84.708 192.964 C 79.784 190.962,76.891 189.752,74.316 188.615 C 73.515 188.262,72.785 187.973,72.693 187.973 C 72.601 187.973,71.513 187.509,70.275 186.942 C 69.037 186.375,67.827 185.911,67.586 185.911 C 67.345 185.911,67.001 185.781,66.821 185.622 C 66.642 185.463,65.954 185.127,65.292 184.874 C 64.631 184.621,63.316 184.074,62.371 183.658 C 61.426 183.242,58.488 182.010,55.842 180.921 C 53.196 179.832,48.359 177.803,45.094 176.412 C 41.828 175.021,39.087 173.883,39.003 173.883 C 38.918 173.883,37.836 173.419,36.598 172.852 C 35.360 172.285,34.278 171.821,34.194 171.821 C 34.110 171.821,33.225 171.453,32.227 171.003 C 31.229 170.552,27.474 168.896,23.883 167.322 C 9.703 161.105,3.008 156.901,0.765 152.802 C 0.012 151.426,-0.066 154.279,0.075 178.016 L 0.172 194.349 1.795 195.972 C 2.688 196.864,3.554 197.595,3.720 197.595 C 3.886 197.595,4.507 198.058,5.101 198.625 C 5.694 199.192,6.342 199.656,6.540 199.656 C 6.739 199.656,7.234 199.966,7.639 200.344 C 8.045 200.722,8.580 201.031,8.828 201.031 C 9.076 201.031,9.278 201.186,9.278 201.375 C 9.278 201.564,9.510 201.718,9.794 201.718 C 10.077 201.718,10.309 201.873,10.309 202.062 C 10.309 202.251,10.619 202.405,10.997 202.405 C 11.375 202.405,11.684 202.560,11.684 202.749 C 11.684 202.938,11.993 203.093,12.371 203.093 C 13.004 203.093,13.232 203.470,13.080 204.268 C 13.047 204.442,13.259 204.385,13.551 204.143 C 14.230 203.579,16.093 203.910,18.194 204.968 C 19.055 205.402,22.698 207.026,26.289 208.578 C 29.880 210.130,33.473 211.696,34.275 212.057 C 35.076 212.419,35.806 212.715,35.898 212.715 C 35.990 212.715,37.078 213.179,38.316 213.746 C 39.554 214.313,40.637 214.777,40.722 214.777 C 40.807 214.777,41.889 215.241,43.127 215.808 C 44.365 216.375,45.453 216.838,45.545 216.838 C 45.637 216.838,46.445 217.166,47.341 217.566 C 48.236 217.966,49.433 218.488,50.000 218.727 C 56.542 221.481,67.767 226.144,72.509 228.079 C 75.698 229.381,76.666 229.792,79.120 230.888 C 80.016 231.288,80.816 231.615,80.898 231.615 C 80.980 231.615,83.031 232.450,85.455 233.471 C 87.879 234.492,93.883 236.983,98.797 239.007 C 103.711 241.031,108.273 242.920,108.935 243.205 C 109.596 243.491,110.601 243.926,111.168 244.172 C 111.735 244.418,113.050 244.953,114.089 245.361 C 115.129 245.768,116.443 246.306,117.010 246.555 C 117.577 246.805,119.356 247.552,120.962 248.217 C 125.341 250.027,135.172 254.119,138.660 255.581 C 139.794 256.057,141.377 256.735,142.178 257.089 C 142.980 257.443,143.710 257.732,143.802 257.732 C 143.894 257.732,144.982 258.196,146.220 258.763 C 147.458 259.330,148.546 259.794,148.638 259.794 C 148.730 259.794,149.460 260.087,150.261 260.445 C 151.063 260.803,155.430 262.676,159.966 264.607 C 168.700 268.325,170.335 269.046,174.312 270.930 C 185.231 276.103,197.091 278.184,205.155 276.342 C 209.066 275.448,210.202 275.147,212.577 274.374 C 217.001 272.933,221.390 271.051,228.179 267.682 C 231.864 265.853,235.653 264.005,236.598 263.575 C 237.543 263.144,239.761 262.118,241.527 261.293 C 243.292 260.469,244.785 259.794,244.843 259.794 C 244.901 259.794,246.317 259.165,247.990 258.397 C 249.662 257.628,251.495 256.794,252.062 256.543 C 255.602 254.975,256.729 254.471,258.419 253.700 C 259.459 253.225,262.474 251.913,265.120 250.784 C 269.798 248.787,271.053 248.237,274.838 246.525 C 275.836 246.074,276.721 245.704,276.804 245.704 C 276.887 245.704,277.772 245.335,278.770 244.884 C 281.093 243.833,283.715 242.670,285.137 242.060 C 285.752 241.796,286.757 241.364,287.371 241.099 C 287.985 240.834,292.354 238.961,297.079 236.936 C 301.804 234.912,306.211 233.023,306.873 232.738 C 307.534 232.454,308.540 232.024,309.107 231.783 C 309.674 231.543,311.031 230.942,312.124 230.449 C 313.216 229.957,314.179 229.553,314.263 229.553 C 314.347 229.553,315.429 229.089,316.667 228.522 C 317.905 227.955,318.986 227.491,319.071 227.491 C 319.155 227.491,320.040 227.120,321.038 226.667 C 322.036 226.213,325.790 224.582,329.381 223.042 C 332.973 221.502,336.452 220.000,337.113 219.703 C 337.775 219.405,338.780 218.967,339.347 218.728 C 339.914 218.489,341.111 217.966,342.007 217.566 C 342.902 217.166,343.707 216.838,343.795 216.838 C 343.883 216.838,344.967 216.375,346.205 215.808 C 347.442 215.241,349.466 214.313,350.703 213.746 C 351.940 213.179,353.018 212.715,353.098 212.715 C 353.178 212.715,354.061 212.346,355.059 211.895 C 356.056 211.444,359.241 210.043,362.136 208.781 C 369.315 205.651,374.258 203.389,380.584 200.337 C 382.474 199.425,384.678 198.576,385.481 198.450 C 386.284 198.324,386.942 198.080,386.942 197.908 C 386.942 197.736,387.251 197.595,387.629 197.595 C 388.007 197.595,388.316 197.459,388.316 197.293 C 388.316 197.126,388.780 196.798,389.347 196.564 C 389.914 196.329,390.378 196.001,390.378 195.835 C 390.378 195.669,390.610 195.533,390.893 195.533 C 391.177 195.533,391.409 195.378,391.409 195.189 C 391.409 195.000,391.727 194.845,392.117 194.845 C 392.506 194.845,392.728 194.691,392.612 194.502 C 392.495 194.313,392.640 194.158,392.935 194.158 C 393.230 194.158,393.471 194.022,393.471 193.856 C 393.471 193.690,393.912 193.371,394.451 193.148 C 395.782 192.597,398.666 189.791,399.418 188.316 C 399.990 187.195,400.024 185.723,399.930 166.495 C 399.847 149.777,399.748 146.057,399.404 146.831 M399.141 212.585 C 396.922 216.711,386.637 223.099,371.134 229.978 C 370.473 230.271,369.235 230.818,368.385 231.192 C 367.534 231.566,364.751 232.804,362.199 233.943 C 357.638 235.980,356.173 236.624,347.938 240.211 C 345.670 241.199,342.998 242.375,342.000 242.825 C 341.002 243.275,340.118 243.643,340.034 243.643 C 339.951 243.643,339.066 244.011,338.069 244.462 C 337.071 244.913,335.095 245.781,333.677 246.392 C 332.259 247.003,330.481 247.780,329.725 248.117 C 328.969 248.455,326.263 249.614,323.711 250.694 C 321.160 251.773,318.454 252.932,317.698 253.270 C 316.942 253.607,314.777 254.537,312.887 255.335 C 310.997 256.134,308.754 257.094,307.904 257.468 C 307.053 257.842,305.893 258.345,305.326 258.587 C 304.759 258.828,303.677 259.294,302.921 259.622 C 302.165 259.950,301.082 260.414,300.515 260.653 C 299.015 261.284,297.069 262.127,295.790 262.699 C 295.176 262.973,291.735 264.458,288.144 265.998 C 284.553 267.537,280.799 269.168,279.801 269.622 C 278.803 270.076,277.918 270.447,277.835 270.447 C 277.752 270.447,276.867 270.815,275.869 271.266 C 274.871 271.717,272.895 272.585,271.478 273.197 C 269.036 274.249,267.936 274.732,264.519 276.250 C 263.716 276.607,261.203 277.704,258.935 278.687 C 256.667 279.669,252.569 281.484,249.828 282.719 C 247.088 283.954,244.149 285.275,243.299 285.655 C 240.310 286.992,234.479 289.783,228.866 292.565 C 223.847 295.052,220.185 296.749,218.041 297.580 C 217.663 297.726,216.967 298.011,216.495 298.213 C 202.507 304.190,189.785 303.361,172.680 295.357 C 170.790 294.473,165.455 292.135,160.825 290.162 C 151.373 286.134,151.633 286.246,149.402 285.258 C 148.507 284.861,147.693 284.536,147.595 284.536 C 147.496 284.536,146.760 284.234,145.958 283.864 C 144.164 283.037,134.040 278.797,129.381 276.922 C 127.491 276.162,125.326 275.258,124.570 274.914 C 123.814 274.569,121.959 273.797,120.447 273.196 C 118.935 272.595,117.079 271.822,116.323 271.478 C 115.567 271.133,113.711 270.363,112.199 269.765 C 110.687 269.167,108.600 268.310,107.560 267.860 C 106.521 267.409,103.737 266.248,101.375 265.280 C 94.664 262.530,91.360 261.152,89.780 260.445 C 88.979 260.087,88.243 259.794,88.144 259.794 C 88.046 259.794,87.232 259.469,86.336 259.072 C 85.441 258.675,84.399 258.227,84.021 258.076 C 83.643 257.925,82.792 257.566,82.131 257.278 C 81.469 256.990,80.077 256.421,79.038 256.014 C 77.998 255.606,76.684 255.062,76.117 254.804 C 75.550 254.545,70.911 252.608,65.808 250.498 C 60.704 248.388,55.911 246.383,55.155 246.042 C 54.399 245.701,52.543 244.931,51.031 244.331 C 49.519 243.730,47.465 242.866,46.467 242.410 C 45.470 241.954,44.585 241.581,44.502 241.581 C 44.418 241.581,43.531 241.206,42.530 240.748 C 41.529 240.290,39.862 239.582,38.826 239.174 C 36.982 238.449,28.419 234.749,24.818 233.122 C 23.820 232.671,22.945 232.302,22.874 232.302 C 22.428 232.302,12.966 227.718,10.309 226.215 C 5.664 223.587,1.868 220.423,0.813 218.301 L 0.172 217.010 0.075 221.993 C 0.021 224.734,0.021 234.331,0.075 243.320 L 0.172 259.664 2.339 261.791 C 3.531 262.960,4.628 263.918,4.778 263.918 C 4.927 263.918,5.406 264.227,5.842 264.605 C 6.278 264.983,6.841 265.292,7.093 265.292 C 7.517 265.292,8.344 265.862,9.464 266.924 C 9.713 267.161,10.160 267.354,10.457 267.354 C 10.754 267.354,10.997 267.509,10.997 267.698 C 10.997 267.887,11.306 268.041,11.684 268.041 C 12.062 268.041,12.371 268.196,12.371 268.385 C 12.371 268.574,12.680 268.729,13.058 268.729 C 13.436 268.729,13.746 268.883,13.746 269.072 C 13.746 269.261,14.055 269.416,14.433 269.416 C 14.811 269.416,15.120 269.570,15.120 269.759 C 15.120 269.948,15.430 270.103,15.808 270.103 C 16.186 270.103,16.495 270.258,16.495 270.447 C 16.495 270.636,16.804 270.790,17.182 270.790 C 17.560 270.790,17.869 270.945,17.869 271.134 C 17.869 271.323,18.179 271.478,18.557 271.478 C 18.935 271.478,19.244 271.599,19.244 271.746 C 19.244 271.894,19.669 272.050,20.189 272.093 C 20.709 272.136,21.186 272.324,21.249 272.512 C 21.312 272.699,21.660 272.852,22.022 272.852 C 22.384 272.852,22.680 273.007,22.680 273.196 C 22.680 273.385,22.990 273.540,23.368 273.540 C 23.746 273.540,24.055 273.694,24.055 273.883 C 24.055 274.072,24.364 274.227,24.742 274.227 C 25.120 274.227,25.430 274.381,25.430 274.570 C 25.430 274.759,25.816 274.914,26.289 274.914 C 26.761 274.914,27.148 275.069,27.148 275.258 C 27.148 275.447,27.457 275.601,27.835 275.601 C 28.213 275.601,28.522 275.756,28.522 275.945 C 28.522 276.134,28.822 276.289,29.189 276.289 C 29.556 276.289,29.952 276.443,30.069 276.632 C 30.186 276.821,30.659 276.976,31.120 276.976 C 31.581 276.976,31.959 277.131,31.959 277.320 C 31.959 277.509,32.173 277.663,32.435 277.663 C 32.697 277.663,33.343 277.887,33.871 278.161 C 34.399 278.435,34.958 278.580,35.113 278.484 C 35.268 278.388,35.395 278.457,35.395 278.636 C 35.395 278.815,35.936 279.063,36.598 279.187 C 37.259 279.311,37.801 279.560,37.801 279.741 C 37.801 279.921,38.101 280.069,38.468 280.069 C 38.835 280.069,39.230 280.223,39.347 280.412 C 39.464 280.601,39.937 280.756,40.398 280.756 C 40.860 280.756,41.237 280.911,41.237 281.100 C 41.237 281.289,41.546 281.443,41.924 281.443 C 42.302 281.443,42.612 281.570,42.612 281.725 C 42.612 281.880,43.385 282.217,44.330 282.474 C 45.275 282.732,46.048 283.069,46.048 283.224 C 46.048 283.378,46.357 283.505,46.735 283.505 C 47.113 283.505,47.423 283.660,47.423 283.849 C 47.423 284.038,47.887 284.192,48.454 284.192 C 49.021 284.192,49.485 284.347,49.485 284.536 C 49.485 284.725,49.794 284.880,50.172 284.880 C 50.550 284.880,50.859 285.034,50.859 285.223 C 50.859 285.412,51.168 285.567,51.546 285.567 C 51.924 285.567,52.234 285.722,52.234 285.911 C 52.234 286.100,52.620 286.254,53.093 286.254 C 53.565 286.254,53.952 286.409,53.952 286.598 C 53.952 286.787,54.261 286.942,54.639 286.942 C 55.017 286.942,55.326 287.096,55.326 287.285 C 55.326 287.474,55.704 287.629,56.165 287.629 C 56.627 287.629,57.100 287.784,57.216 287.973 C 57.333 288.162,57.729 288.316,58.096 288.316 C 58.463 288.316,58.763 288.471,58.763 288.660 C 58.763 288.849,59.063 289.003,59.430 289.003 C 59.797 289.003,60.192 289.158,60.309 289.347 C 60.426 289.536,60.899 289.691,61.360 289.691 C 61.822 289.691,62.199 289.845,62.199 290.034 C 62.199 290.223,62.509 290.378,62.887 290.378 C 63.265 290.378,63.574 290.533,63.574 290.722 C 63.574 290.911,63.847 291.065,64.180 291.065 C 64.514 291.065,65.712 291.516,66.844 292.066 C 67.975 292.617,69.480 293.176,70.189 293.307 C 70.898 293.439,71.478 293.685,71.478 293.853 C 71.478 294.021,71.864 294.158,72.337 294.158 C 72.809 294.158,73.196 294.313,73.196 294.502 C 73.196 294.691,73.582 294.845,74.055 294.845 C 74.527 294.845,74.914 295.000,74.914 295.189 C 74.914 295.378,75.214 295.533,75.581 295.533 C 75.948 295.533,76.344 295.687,76.460 295.876 C 76.577 296.065,77.050 296.220,77.512 296.220 C 77.973 296.220,78.351 296.375,78.351 296.564 C 78.351 296.753,78.660 296.907,79.038 296.907 C 79.416 296.907,79.725 297.062,79.725 297.251 C 79.725 297.440,80.112 297.595,80.584 297.595 C 81.057 297.595,81.443 297.749,81.443 297.938 C 81.443 298.127,81.753 298.282,82.131 298.282 C 82.509 298.282,82.818 298.436,82.818 298.625 C 82.818 298.814,83.204 298.969,83.677 298.969 C 84.149 298.969,84.536 299.124,84.536 299.313 C 84.536 299.502,84.923 299.656,85.395 299.656 C 85.868 299.656,86.254 299.811,86.254 300.000 C 86.254 300.189,86.564 300.344,86.942 300.344 C 87.320 300.344,87.629 300.498,87.629 300.687 C 87.629 300.876,88.093 301.031,88.660 301.031 C 89.227 301.031,89.691 301.186,89.691 301.375 C 89.691 301.564,90.000 301.718,90.378 301.718 C 90.756 301.718,91.065 301.873,91.065 302.062 C 91.065 302.251,91.443 302.405,91.904 302.405 C 92.365 302.405,92.839 302.560,92.955 302.749 C 93.072 302.938,93.468 303.093,93.835 303.093 C 94.202 303.093,94.503 303.209,94.504 303.351 C 94.508 303.699,96.208 304.467,96.976 304.467 C 97.316 304.467,97.595 304.622,97.595 304.811 C 97.595 305.000,97.829 305.155,98.115 305.155 C 98.401 305.155,98.903 305.291,99.231 305.458 C 99.560 305.625,100.215 305.919,100.687 306.111 C 101.160 306.303,102.253 306.773,103.117 307.155 C 103.981 307.537,105.257 307.956,105.952 308.087 C 106.648 308.217,107.216 308.461,107.216 308.629 C 107.216 308.797,107.526 308.935,107.904 308.935 C 108.282 308.935,108.591 309.089,108.591 309.278 C 108.591 309.467,108.969 309.622,109.430 309.622 C 109.891 309.622,110.364 309.777,110.481 309.966 C 110.598 310.155,110.994 310.309,111.360 310.309 C 111.727 310.309,112.027 310.464,112.027 310.653 C 112.027 310.842,112.414 310.997,112.887 310.997 C 113.359 310.997,113.746 311.151,113.746 311.340 C 113.746 311.529,114.055 311.684,114.433 311.684 C 114.811 311.684,115.120 311.838,115.120 312.027 C 115.120 312.216,115.584 312.371,116.151 312.371 C 116.718 312.371,117.182 312.526,117.182 312.715 C 117.182 312.904,117.491 313.058,117.869 313.058 C 118.247 313.058,118.557 313.213,118.557 313.402 C 118.557 313.591,118.866 313.746,119.244 313.746 C 119.622 313.746,119.931 313.900,119.931 314.089 C 119.931 314.278,120.395 314.433,120.962 314.433 C 121.529 314.433,121.993 314.571,121.993 314.739 C 121.993 314.907,122.689 315.250,123.540 315.501 C 124.390 315.752,125.086 316.078,125.086 316.226 C 125.086 316.374,125.395 316.495,125.773 316.495 C 126.151 316.495,126.460 316.649,126.460 316.838 C 126.460 317.027,126.772 317.182,127.152 317.182 C 127.533 317.182,128.113 317.317,128.441 317.483 C 131.109 318.827,132.113 319.244,132.679 319.244 C 133.039 319.244,133.333 319.399,133.333 319.588 C 133.333 319.777,133.643 319.931,134.021 319.931 C 134.399 319.931,134.708 320.086,134.708 320.275 C 134.708 320.464,134.991 320.619,135.337 320.619 C 135.683 320.619,136.727 321.005,137.657 321.476 C 138.586 321.948,139.772 322.335,140.292 322.335 C 140.812 322.336,141.237 322.491,141.237 322.680 C 141.237 322.869,141.546 323.024,141.924 323.024 C 142.302 323.024,142.612 323.179,142.612 323.368 C 142.612 323.557,142.921 323.711,143.299 323.711 C 143.677 323.711,143.986 323.866,143.986 324.055 C 143.986 324.244,144.450 324.399,145.017 324.399 C 145.584 324.399,146.048 324.553,146.048 324.742 C 146.048 324.931,146.357 325.086,146.735 325.086 C 147.113 325.086,147.423 325.241,147.423 325.430 C 147.423 325.619,147.657 325.773,147.943 325.773 C 148.229 325.773,148.731 325.908,149.060 326.074 C 151.727 327.418,152.731 327.835,153.297 327.835 C 153.657 327.835,153.952 327.990,153.952 328.179 C 153.952 328.368,154.261 328.522,154.639 328.522 C 155.017 328.522,155.326 328.677,155.326 328.866 C 155.326 329.055,155.636 329.210,156.014 329.210 C 156.392 329.210,156.701 329.364,156.701 329.553 C 156.701 329.742,157.165 329.897,157.732 329.897 C 158.299 329.897,158.763 330.052,158.763 330.241 C 158.763 330.430,159.072 330.584,159.450 330.584 C 159.828 330.584,160.137 330.739,160.137 330.928 C 160.137 331.117,160.447 331.271,160.825 331.271 C 161.203 331.271,161.512 331.426,161.512 331.615 C 161.512 331.804,161.976 331.959,162.543 331.959 C 163.110 331.959,163.574 332.113,163.574 332.302 C 163.574 332.491,163.883 332.646,164.261 332.646 C 164.639 332.646,164.948 332.801,164.948 332.990 C 164.948 333.179,165.258 333.333,165.636 333.333 C 166.014 333.333,166.323 333.488,166.323 333.677 C 166.323 333.866,166.557 334.021,166.843 334.021 C 167.129 334.021,167.632 334.162,167.960 334.334 C 169.844 335.325,172.482 336.426,172.972 336.426 C 173.284 336.426,173.540 336.581,173.540 336.770 C 173.540 336.959,173.840 337.113,174.207 337.113 C 174.573 337.113,174.969 337.268,175.086 337.457 C 175.203 337.646,175.676 337.801,176.137 337.801 C 176.598 337.801,176.976 337.955,176.976 338.144 C 176.976 338.333,177.285 338.488,177.663 338.488 C 178.041 338.488,178.351 338.643,178.351 338.832 C 178.351 339.021,178.737 339.175,179.210 339.175 C 179.682 339.175,180.069 339.330,180.069 339.519 C 180.069 339.708,180.455 339.863,180.928 339.863 C 181.400 339.863,181.787 340.017,181.787 340.206 C 181.787 340.395,182.251 340.550,182.818 340.550 C 183.385 340.550,183.849 340.704,183.849 340.893 C 183.849 341.082,184.390 341.237,185.052 341.237 C 185.713 341.237,186.254 341.392,186.254 341.581 C 186.254 341.770,187.027 341.924,187.973 341.924 C 188.918 341.924,189.691 342.079,189.691 342.268 C 189.691 342.470,190.887 342.612,192.591 342.612 C 194.239 342.612,195.588 342.767,195.714 342.971 C 195.969 343.384,199.261 343.317,199.523 342.893 C 199.619 342.738,201.002 342.612,202.598 342.612 C 204.302 342.612,205.498 342.470,205.498 342.268 C 205.498 342.079,206.271 341.924,207.216 341.924 C 208.162 341.924,208.935 341.770,208.935 341.581 C 208.935 341.392,209.389 341.237,209.945 341.237 C 210.501 341.237,211.052 341.082,211.168 340.893 C 211.285 340.704,211.913 340.550,212.563 340.550 C 213.214 340.550,213.746 340.395,213.746 340.206 C 213.746 340.017,214.123 339.863,214.585 339.863 C 215.046 339.863,215.519 339.708,215.636 339.519 C 215.753 339.330,216.148 339.175,216.515 339.175 C 216.882 339.175,217.182 339.021,217.182 338.832 C 217.182 338.643,217.569 338.488,218.041 338.488 C 218.514 338.488,218.900 338.333,218.900 338.144 C 218.900 337.955,219.274 337.801,219.731 337.801 C 220.188 337.801,220.615 337.639,220.681 337.442 C 220.747 337.244,221.135 337.058,221.545 337.027 C 221.954 336.996,222.213 336.848,222.121 336.698 C 222.028 336.549,222.155 336.414,222.402 336.400 C 222.650 336.385,223.084 336.325,223.368 336.266 C 224.177 336.098,230.056 333.201,230.183 332.909 C 230.246 332.764,230.502 332.646,230.752 332.646 C 231.303 332.646,234.147 331.203,234.307 330.842 C 234.370 330.700,234.718 330.584,235.080 330.584 C 235.442 330.584,235.739 330.430,235.739 330.241 C 235.739 330.052,236.048 329.897,236.426 329.897 C 236.804 329.897,237.113 329.742,237.113 329.553 C 237.113 329.364,237.423 329.210,237.801 329.210 C 238.179 329.210,238.488 329.055,238.488 328.866 C 238.488 328.677,238.797 328.522,239.175 328.522 C 239.553 328.522,239.863 328.368,239.863 328.179 C 239.863 327.990,240.240 327.835,240.701 327.835 C 241.163 327.835,241.636 327.680,241.753 327.491 C 241.869 327.302,242.265 327.148,242.632 327.148 C 242.999 327.148,243.300 327.032,243.302 326.890 C 243.305 326.581,244.969 325.773,245.601 325.773 C 245.847 325.773,246.048 325.619,246.048 325.430 C 246.048 325.241,246.357 325.086,246.735 325.086 C 247.113 325.086,247.423 324.931,247.423 324.742 C 247.423 324.553,247.818 324.399,248.302 324.399 C 248.801 324.399,249.090 324.250,248.969 324.055 C 248.849 323.860,249.137 323.711,249.636 323.711 C 250.120 323.711,250.515 323.557,250.515 323.368 C 250.515 323.179,250.825 323.024,251.203 323.024 C 251.581 323.024,251.890 322.889,251.890 322.723 C 251.890 322.558,252.343 322.332,252.896 322.222 C 253.816 322.037,256.355 321.018,257.813 320.247 C 258.141 320.073,258.644 319.931,258.930 319.931 C 259.216 319.931,259.450 319.777,259.450 319.588 C 259.450 319.399,259.668 319.244,259.933 319.244 C 260.199 319.244,261.011 318.946,261.737 318.583 C 262.464 318.219,263.561 317.717,264.175 317.468 C 264.790 317.218,265.292 316.897,265.292 316.755 C 265.292 316.612,265.601 316.495,265.979 316.495 C 266.357 316.495,266.669 316.302,266.672 316.065 C 266.675 315.779,266.788 315.808,267.010 316.151 C 267.232 316.495,267.345 316.523,267.349 316.237 C 267.352 316.001,267.663 315.808,268.041 315.808 C 268.419 315.808,268.729 315.653,268.729 315.464 C 268.729 315.275,269.038 315.120,269.416 315.120 C 269.794 315.120,270.103 314.966,270.103 314.777 C 270.103 314.588,270.490 314.433,270.962 314.433 C 271.435 314.433,271.821 314.278,271.821 314.089 C 271.821 313.900,272.208 313.746,272.680 313.746 C 273.153 313.746,273.540 313.591,273.540 313.402 C 273.540 313.213,273.849 313.058,274.227 313.058 C 274.605 313.058,274.914 312.904,274.914 312.715 C 274.914 312.526,275.310 312.371,275.793 312.371 C 276.292 312.371,276.581 312.222,276.460 312.027 C 276.340 311.833,276.629 311.684,277.127 311.684 C 277.611 311.684,278.007 311.529,278.007 311.340 C 278.007 311.151,278.316 310.997,278.694 310.997 C 279.072 310.997,279.381 310.842,279.381 310.653 C 279.381 310.464,279.691 310.309,280.069 310.309 C 280.447 310.309,280.756 310.155,280.756 309.966 C 280.756 309.777,281.220 309.622,281.787 309.622 C 282.354 309.622,282.818 309.467,282.818 309.278 C 282.818 309.089,283.127 308.935,283.505 308.935 C 283.883 308.935,284.192 308.812,284.192 308.662 C 284.192 308.513,284.927 308.195,285.825 307.956 C 287.248 307.577,289.954 306.457,291.834 305.468 C 292.162 305.296,292.665 305.155,292.951 305.155 C 293.237 305.155,293.471 305.000,293.471 304.811 C 293.471 304.622,293.780 304.467,294.158 304.467 C 294.536 304.467,294.845 304.313,294.845 304.124 C 294.845 303.935,295.232 303.780,295.704 303.780 C 296.177 303.780,296.564 303.625,296.564 303.436 C 296.564 303.247,296.950 303.093,297.423 303.093 C 297.895 303.093,298.282 302.938,298.282 302.749 C 298.282 302.560,298.591 302.405,298.969 302.405 C 299.347 302.405,299.656 302.251,299.656 302.062 C 299.656 301.873,299.966 301.718,300.344 301.718 C 300.722 301.718,301.031 301.564,301.031 301.375 C 301.031 301.186,301.495 301.031,302.062 301.031 C 302.629 301.031,303.093 300.914,303.093 300.771 C 303.093 300.628,303.595 300.309,304.210 300.061 C 304.824 299.814,305.595 299.467,305.923 299.290 C 306.251 299.114,306.754 298.969,307.040 298.969 C 307.326 298.969,307.560 298.814,307.560 298.625 C 307.560 298.436,307.869 298.282,308.247 298.282 C 308.625 298.282,308.935 298.127,308.935 297.938 C 308.935 297.749,309.312 297.595,309.774 297.595 C 310.235 297.595,310.708 297.440,310.825 297.251 C 310.942 297.062,311.337 296.907,311.704 296.907 C 312.071 296.907,312.371 296.753,312.371 296.564 C 312.371 296.375,312.680 296.220,313.058 296.220 C 313.436 296.220,313.746 296.093,313.746 295.938 C 313.746 295.784,314.519 295.446,315.464 295.189 C 316.409 294.932,317.182 294.594,317.182 294.440 C 317.182 294.285,317.491 294.158,317.869 294.158 C 318.247 294.158,318.557 294.003,318.557 293.814 C 318.557 293.625,318.905 293.470,319.330 293.469 C 319.755 293.468,320.546 293.236,321.087 292.953 C 321.629 292.671,322.286 292.440,322.548 292.440 C 322.810 292.440,323.024 292.285,323.024 292.096 C 323.024 291.907,323.333 291.753,323.711 291.753 C 324.089 291.753,324.399 291.598,324.399 291.409 C 324.399 291.220,324.776 291.065,325.237 291.065 C 325.699 291.065,326.172 290.911,326.289 290.722 C 326.405 290.533,326.801 290.378,327.168 290.378 C 327.535 290.378,327.835 290.223,327.835 290.034 C 327.835 289.845,328.144 289.691,328.522 289.691 C 328.900 289.691,329.210 289.536,329.210 289.347 C 329.210 289.158,329.587 289.003,330.048 289.003 C 330.510 289.003,330.983 288.849,331.100 288.660 C 331.216 288.471,331.612 288.316,331.979 288.316 C 332.346 288.316,332.646 288.162,332.646 287.973 C 332.646 287.784,332.955 287.629,333.333 287.629 C 333.711 287.629,334.021 287.474,334.021 287.285 C 334.021 287.096,334.407 286.942,334.880 286.942 C 335.352 286.942,335.739 286.787,335.739 286.598 C 335.739 286.409,336.048 286.254,336.426 286.254 C 336.804 286.254,337.113 286.100,337.113 285.911 C 337.113 285.722,337.423 285.567,337.801 285.567 C 338.179 285.567,338.488 285.412,338.488 285.223 C 338.488 285.034,338.952 284.880,339.519 284.880 C 340.086 284.880,340.550 284.725,340.550 284.536 C 340.550 284.347,340.859 284.192,341.237 284.192 C 341.615 284.192,341.924 284.038,341.924 283.849 C 341.924 283.660,342.234 283.505,342.612 283.505 C 342.990 283.505,343.299 283.351,343.299 283.162 C 343.299 282.973,343.686 282.818,344.158 282.818 C 344.631 282.818,345.017 282.663,345.017 282.474 C 345.017 282.285,345.404 282.131,345.876 282.131 C 346.349 282.131,346.735 281.976,346.735 281.787 C 346.735 281.598,347.045 281.443,347.423 281.443 C 347.801 281.443,348.110 281.289,348.110 281.100 C 348.110 280.911,348.419 280.756,348.797 280.756 C 349.175 280.756,349.485 280.601,349.485 280.412 C 349.485 280.223,349.871 280.069,350.344 280.069 C 350.816 280.069,351.203 279.928,351.203 279.755 C 351.203 279.583,351.821 279.337,352.577 279.210 C 353.333 279.082,353.952 278.836,353.952 278.664 C 353.952 278.492,354.191 278.351,354.484 278.351 C 354.777 278.351,355.656 278.041,356.439 277.663 C 357.221 277.285,358.064 276.976,358.312 276.976 C 358.560 276.976,358.764 276.860,358.766 276.718 C 358.769 276.370,360.469 275.601,361.237 275.601 C 361.577 275.601,361.856 275.447,361.856 275.258 C 361.856 275.069,362.057 274.914,362.303 274.914 C 362.935 274.914,364.599 274.106,364.602 273.797 C 364.604 273.655,364.914 273.540,365.292 273.540 C 365.670 273.540,365.979 273.385,365.979 273.196 C 365.979 273.007,366.357 272.852,366.818 272.852 C 367.280 272.852,367.753 272.698,367.869 272.509 C 367.986 272.320,368.382 272.165,368.749 272.165 C 369.116 272.165,369.416 272.010,369.416 271.821 C 369.416 271.632,369.725 271.478,370.103 271.478 C 370.481 271.478,370.790 271.323,370.790 271.134 C 370.790 270.945,371.100 270.790,371.478 270.790 C 371.856 270.790,372.165 270.636,372.165 270.447 C 372.165 270.258,372.552 270.103,373.024 270.103 C 373.497 270.103,373.883 269.948,373.883 269.759 C 373.883 269.570,374.093 269.416,374.350 269.416 C 374.915 269.416,379.162 267.288,379.324 266.924 C 379.387 266.783,379.735 266.667,380.097 266.667 C 380.460 266.667,380.756 266.512,380.756 266.323 C 380.756 266.134,381.065 265.979,381.443 265.979 C 381.821 265.979,382.131 265.825,382.131 265.636 C 382.131 265.447,382.390 265.292,382.707 265.292 C 383.271 265.292,389.351 262.343,389.691 261.905 C 389.785 261.783,390.285 261.465,390.802 261.199 C 391.318 260.933,392.046 260.430,392.420 260.082 C 392.793 259.735,393.241 259.450,393.415 259.450 C 393.589 259.450,394.369 258.832,395.148 258.076 C 395.927 257.320,396.724 256.701,396.918 256.701 C 397.113 256.701,397.374 256.430,397.498 256.100 C 397.623 255.769,398.198 255.052,398.776 254.507 L 399.828 253.516 399.925 237.153 C 399.979 228.154,399.979 218.657,399.925 216.049 L 399.828 211.308 399.141 212.585 " stroke="none" fill="#942424" fill-rule="evenodd"></path><path id="path2" d="M201.873 0.657 C 201.693 0.829,200.696 1.056,199.656 1.161 C 195.892 1.541,194.502 1.793,194.502 2.096 C 194.502 2.266,193.914 2.405,193.196 2.405 C 192.478 2.405,191.741 2.555,191.558 2.738 C 191.375 2.920,190.737 3.107,190.138 3.152 C 189.540 3.198,189.127 3.358,189.219 3.508 C 189.312 3.658,188.828 3.780,188.144 3.780 C 187.403 3.780,186.987 3.919,187.113 4.124 C 187.237 4.324,186.895 4.467,186.295 4.467 C 185.728 4.467,185.168 4.622,185.052 4.811 C 184.935 5.000,184.462 5.155,184.000 5.155 C 183.539 5.155,183.162 5.276,183.162 5.423 C 183.162 5.571,182.736 5.727,182.216 5.770 C 181.697 5.813,181.220 6.001,181.157 6.189 C 181.094 6.376,180.591 6.529,180.040 6.529 C 179.489 6.529,179.038 6.663,179.038 6.828 C 179.038 6.992,178.386 7.213,177.589 7.320 C 176.793 7.427,175.981 7.734,175.785 8.002 C 175.589 8.270,175.042 8.458,174.570 8.420 C 174.098 8.382,173.627 8.479,173.525 8.634 C 173.422 8.790,173.001 8.969,172.588 9.032 C 172.176 9.095,171.732 9.253,171.601 9.384 C 171.470 9.515,171.080 9.622,170.733 9.622 C 170.387 9.622,170.103 9.751,170.103 9.908 C 170.103 10.066,169.910 10.201,169.674 10.208 C 168.942 10.231,168.222 10.469,168.010 10.756 C 167.899 10.907,167.474 11.056,167.065 11.087 C 166.657 11.118,166.323 11.265,166.323 11.413 C 166.323 11.562,166.014 11.684,165.636 11.684 C 165.258 11.684,164.948 11.838,164.948 12.027 C 164.948 12.216,164.658 12.371,164.303 12.371 C 163.948 12.371,163.117 12.597,162.457 12.873 C 161.796 13.149,161.134 13.265,160.985 13.131 C 160.836 12.996,160.826 13.080,160.962 13.316 C 161.137 13.621,160.897 13.746,160.137 13.746 C 159.511 13.746,159.154 13.888,159.278 14.089 C 159.397 14.281,159.133 14.433,158.680 14.433 C 158.234 14.433,157.716 14.587,157.528 14.775 C 157.340 14.963,156.779 15.150,156.281 15.191 C 155.783 15.232,155.451 15.388,155.543 15.537 C 155.635 15.686,155.315 15.808,154.831 15.808 C 154.348 15.808,153.952 15.962,153.952 16.151 C 153.952 16.340,153.479 16.495,152.901 16.495 C 152.287 16.495,151.938 16.638,152.062 16.838 C 152.179 17.027,151.956 17.182,151.567 17.182 C 151.178 17.182,150.859 17.337,150.859 17.526 C 150.859 17.715,150.470 17.869,149.995 17.869 C 149.520 17.869,148.824 18.024,148.449 18.213 C 148.074 18.402,147.459 18.711,147.084 18.900 C 146.708 19.089,146.172 19.244,145.891 19.244 C 145.611 19.244,144.831 19.553,144.158 19.931 C 143.485 20.309,142.707 20.619,142.429 20.619 C 142.152 20.619,141.924 20.773,141.924 20.962 C 141.924 21.151,141.564 21.306,141.123 21.306 C 140.682 21.306,140.207 21.420,140.067 21.559 C 139.928 21.699,139.632 21.830,139.409 21.850 C 139.186 21.871,138.724 21.912,138.382 21.941 C 138.040 21.970,137.847 22.133,137.953 22.305 C 138.059 22.476,137.836 22.535,137.458 22.436 C 137.079 22.338,136.770 22.404,136.770 22.583 C 136.770 22.763,136.576 22.916,136.340 22.923 C 135.703 22.943,134.903 23.170,134.708 23.386 C 134.423 23.700,132.195 24.673,131.182 24.926 C 130.661 25.056,130.149 25.300,130.045 25.468 C 129.941 25.636,129.580 25.773,129.242 25.773 C 128.904 25.773,128.142 26.015,127.549 26.312 C 126.955 26.608,126.289 26.739,126.068 26.602 C 125.848 26.466,125.757 26.500,125.867 26.678 C 126.077 27.017,125.209 27.440,122.766 28.186 C 121.963 28.431,121.306 28.762,121.306 28.921 C 121.306 29.080,121.015 29.210,120.661 29.210 C 120.306 29.210,119.475 29.435,118.814 29.711 C 118.154 29.987,117.516 30.116,117.398 29.998 C 117.279 29.879,117.182 29.963,117.182 30.183 C 117.182 30.404,116.873 30.584,116.495 30.584 C 116.117 30.584,115.808 30.739,115.808 30.928 C 115.808 31.117,115.452 31.271,115.017 31.271 C 114.582 31.271,114.080 31.399,113.900 31.555 C 113.721 31.712,112.917 32.046,112.113 32.298 C 111.310 32.550,110.653 32.886,110.653 33.045 C 110.653 33.203,110.189 33.333,109.622 33.333 C 109.055 33.333,108.591 33.488,108.591 33.677 C 108.591 33.866,108.357 34.021,108.071 34.021 C 107.785 34.021,107.244 34.175,106.868 34.364 C 106.493 34.553,105.878 34.863,105.503 35.052 C 105.128 35.241,104.586 35.395,104.300 35.395 C 104.014 35.395,103.780 35.530,103.780 35.695 C 103.780 35.967,101.217 36.597,100.601 36.477 C 100.460 36.449,100.344 36.590,100.344 36.790 C 100.344 36.990,100.189 37.058,100.000 36.942 C 99.811 36.825,99.656 36.919,99.656 37.150 C 99.656 37.382,99.555 37.470,99.430 37.345 C 99.306 37.221,99.009 37.281,98.771 37.478 C 98.534 37.676,97.978 37.880,97.537 37.931 C 97.096 37.983,96.046 38.350,95.204 38.748 C 94.362 39.146,93.550 39.396,93.400 39.303 C 93.250 39.211,93.127 39.280,93.127 39.459 C 93.127 39.782,92.190 40.171,90.378 40.600 C 90.095 40.667,89.785 40.799,89.691 40.893 C 89.341 41.243,87.970 41.924,87.617 41.924 C 87.416 41.924,86.612 42.234,85.830 42.612 C 85.047 42.990,84.136 43.299,83.805 43.299 C 83.473 43.299,83.107 43.454,82.990 43.643 C 82.873 43.832,82.508 43.986,82.179 43.986 C 81.427 43.986,79.731 44.759,79.728 45.103 C 79.726 45.245,79.261 45.361,78.694 45.361 C 78.127 45.361,77.663 45.515,77.663 45.704 C 77.663 45.893,77.354 46.048,76.976 46.048 C 76.598 46.048,76.289 46.203,76.289 46.392 C 76.289 46.581,75.911 46.735,75.450 46.735 C 74.988 46.735,74.515 46.890,74.399 47.079 C 74.282 47.268,73.886 47.423,73.519 47.423 C 73.152 47.423,72.852 47.577,72.852 47.766 C 72.852 47.955,72.483 48.110,72.032 48.110 C 71.582 48.110,70.781 48.334,70.253 48.608 C 69.725 48.882,69.166 49.027,69.011 48.931 C 68.856 48.835,68.729 48.920,68.729 49.121 C 68.729 49.321,68.497 49.485,68.213 49.485 C 67.930 49.485,67.698 49.665,67.698 49.885 C 67.698 50.106,67.601 50.189,67.482 50.071 C 67.364 49.952,66.758 50.068,66.136 50.328 C 65.513 50.588,64.913 50.709,64.801 50.597 C 64.689 50.485,64.391 50.677,64.138 51.023 C 63.885 51.368,63.512 51.549,63.309 51.423 C 63.106 51.298,62.425 51.493,61.796 51.858 C 61.167 52.223,60.266 52.573,59.794 52.635 C 59.321 52.698,58.843 52.873,58.732 53.024 C 58.620 53.175,58.202 53.324,57.802 53.354 C 57.402 53.384,57.146 53.481,57.234 53.569 C 57.438 53.772,55.010 54.627,54.210 54.634 C 53.879 54.637,53.608 54.769,53.608 54.928 C 53.608 55.087,52.951 55.427,52.148 55.685 C 51.345 55.943,50.180 56.432,49.560 56.771 C 48.940 57.111,48.203 57.388,47.923 57.388 C 47.643 57.388,47.106 57.543,46.731 57.732 C 46.355 57.921,45.741 58.230,45.365 58.419 C 44.990 58.608,44.371 58.763,43.991 58.763 C 43.610 58.763,43.298 58.879,43.296 59.021 C 43.293 59.365,41.597 60.137,40.845 60.137 C 40.516 60.137,40.151 60.292,40.034 60.481 C 39.918 60.670,39.445 60.825,38.983 60.825 C 38.522 60.825,38.144 60.979,38.144 61.168 C 38.144 61.357,37.835 61.512,37.457 61.512 C 37.079 61.512,36.770 61.667,36.770 61.856 C 36.770 62.045,36.392 62.199,35.931 62.199 C 35.470 62.199,34.997 62.354,34.880 62.543 C 34.763 62.732,34.367 62.887,34.000 62.887 C 33.633 62.887,33.333 63.041,33.333 63.230 C 33.333 63.419,33.022 63.574,32.641 63.574 C 32.261 63.574,31.681 63.717,31.353 63.892 C 30.392 64.405,29.412 64.718,28.978 64.650 C 28.756 64.615,28.476 64.745,28.356 64.939 C 28.236 65.133,27.761 65.292,27.299 65.292 C 26.838 65.292,26.460 65.473,26.460 65.693 C 26.460 65.914,26.364 65.997,26.245 65.879 C 26.127 65.760,25.593 65.889,25.059 66.165 C 24.526 66.441,23.763 66.667,23.364 66.667 C 22.966 66.667,22.735 66.821,22.852 67.010 C 22.969 67.199,22.777 67.354,22.426 67.354 C 22.074 67.354,21.601 67.540,21.375 67.766 C 21.148 67.993,20.962 68.062,20.962 67.919 C 20.962 67.776,20.537 67.881,20.017 68.152 C 19.092 68.634,17.871 69.169,16.151 69.846 C 15.679 70.031,15.005 70.331,14.655 70.512 C 14.190 70.752,14.085 70.732,14.268 70.436 C 14.405 70.214,14.138 70.280,13.675 70.584 C 13.211 70.888,12.728 71.033,12.601 70.906 C 12.475 70.779,12.371 70.818,12.370 70.991 C 12.369 71.164,11.519 71.692,10.481 72.165 C 9.443 72.637,8.593 73.140,8.592 73.282 C 8.592 73.424,8.357 73.540,8.071 73.540 C 7.408 73.540,6.182 74.226,5.462 75.000 C 5.154 75.331,4.712 75.601,4.479 75.601 C 4.246 75.601,3.514 76.142,2.853 76.804 C 2.192 77.465,1.511 77.920,1.341 77.814 C 1.170 77.709,1.031 77.875,1.031 78.183 C 1.031 78.491,0.799 78.975,0.515 79.259 C -0.690 80.464,-0.004 84.006,1.975 86.791 C 2.784 87.930,7.235 91.230,10.225 92.908 C 13.207 94.582,21.416 98.625,21.831 98.625 C 21.909 98.625,22.828 99.012,23.873 99.485 C 24.918 99.957,26.628 100.730,27.673 101.203 C 28.719 101.675,29.642 102.062,29.727 102.062 C 29.811 102.062,30.893 102.526,32.131 103.093 C 33.369 103.660,34.450 104.124,34.535 104.124 C 34.619 104.124,35.504 104.495,36.502 104.948 C 37.500 105.401,41.177 106.966,44.674 108.425 C 48.170 109.883,51.649 111.354,52.405 111.693 C 53.162 112.033,55.017 112.801,56.529 113.402 C 58.041 114.003,59.897 114.770,60.653 115.106 C 61.409 115.443,63.419 116.296,65.120 117.001 C 66.821 117.706,68.677 118.482,69.244 118.724 C 69.811 118.966,72.440 120.055,75.086 121.142 C 77.732 122.230,81.489 123.794,83.435 124.618 C 85.380 125.442,87.044 126.117,87.133 126.117 C 87.221 126.117,88.026 126.444,88.921 126.844 C 91.704 128.087,92.526 128.433,95.361 129.556 C 96.873 130.155,98.729 130.927,99.485 131.271 C 100.241 131.616,102.096 132.387,103.608 132.984 C 105.120 133.582,107.208 134.440,108.247 134.891 C 109.287 135.343,112.457 136.663,115.292 137.826 C 118.127 138.988,121.065 140.218,121.821 140.558 C 122.577 140.898,124.433 141.666,125.945 142.265 C 127.457 142.864,129.235 143.592,129.897 143.883 C 132.526 145.038,133.234 145.336,135.052 146.048 C 136.091 146.456,137.405 147.002,137.973 147.263 C 138.540 147.524,142.405 149.150,146.564 150.877 C 150.722 152.604,154.940 154.389,155.938 154.843 C 156.936 155.298,157.821 155.670,157.905 155.670 C 157.990 155.670,159.071 156.134,160.309 156.701 C 161.547 157.268,162.629 157.732,162.713 157.732 C 162.797 157.732,163.683 158.101,164.681 158.553 C 165.678 159.004,167.268 159.716,168.213 160.136 C 169.158 160.555,170.936 161.363,172.165 161.932 C 194.021 172.045,204.115 171.530,229.586 159.000 C 238.492 154.619,241.908 153.040,255.498 147.024 C 260.601 144.765,265.432 142.616,266.233 142.249 C 267.035 141.881,267.755 141.581,267.835 141.581 C 267.915 141.581,269.115 141.056,270.502 140.415 C 271.889 139.774,276.890 137.593,281.615 135.569 C 286.340 133.544,291.023 131.517,292.020 131.064 C 293.018 130.611,293.903 130.241,293.986 130.241 C 294.070 130.241,294.954 129.870,295.952 129.417 C 296.950 128.963,302.715 126.475,308.763 123.887 C 314.811 121.299,320.262 118.963,320.876 118.697 C 321.491 118.431,322.496 117.998,323.110 117.735 C 323.724 117.472,325.121 116.853,326.213 116.360 C 327.305 115.867,328.267 115.464,328.351 115.464 C 328.434 115.464,329.396 115.061,330.488 114.568 C 332.398 113.706,333.702 113.135,335.911 112.194 C 336.478 111.952,338.797 110.949,341.065 109.964 C 343.333 108.979,346.813 107.478,348.797 106.629 C 350.782 105.781,353.063 104.792,353.866 104.433 C 354.669 104.074,356.022 103.471,356.873 103.093 C 357.723 102.715,359.115 102.096,359.966 101.718 C 360.816 101.340,362.208 100.722,363.058 100.344 C 363.909 99.966,365.339 99.331,366.237 98.932 C 367.135 98.534,368.797 97.784,369.931 97.266 C 371.065 96.748,373.308 95.729,374.914 95.002 C 388.657 88.784,397.568 82.954,399.475 78.935 C 400.704 76.345,399.463 71.561,397.545 71.497 C 397.235 71.486,396.896 71.257,396.793 70.988 C 396.690 70.719,396.055 70.237,395.382 69.918 C 394.709 69.599,394.158 69.191,394.158 69.013 C 394.158 68.834,394.029 68.768,393.872 68.865 C 393.714 68.962,393.021 68.658,392.331 68.189 C 391.641 67.721,390.994 67.350,390.892 67.365 C 390.462 67.431,388.316 66.505,388.316 66.254 C 388.316 66.103,388.016 65.979,387.649 65.979 C 387.282 65.979,386.879 65.812,386.753 65.608 C 386.626 65.404,386.166 65.326,385.730 65.435 C 385.294 65.545,384.882 65.472,384.816 65.273 C 384.750 65.074,384.466 64.865,384.186 64.810 C 383.302 64.634,379.692 63.227,378.269 62.503 C 377.941 62.336,377.284 62.199,376.809 62.199 C 376.334 62.199,375.945 62.045,375.945 61.856 C 375.945 61.667,375.636 61.512,375.258 61.512 C 374.880 61.512,374.570 61.357,374.570 61.168 C 374.570 60.979,374.184 60.825,373.711 60.825 C 373.239 60.825,372.852 60.670,372.852 60.481 C 372.852 60.292,372.552 60.137,372.185 60.137 C 371.818 60.137,371.423 59.983,371.306 59.794 C 371.189 59.605,370.811 59.450,370.466 59.450 C 370.120 59.450,369.406 59.226,368.878 58.952 C 368.351 58.678,367.792 58.533,367.636 58.629 C 367.481 58.725,367.354 58.640,367.354 58.440 C 367.354 58.239,367.120 58.076,366.834 58.076 C 366.548 58.076,366.007 57.921,365.631 57.732 C 365.256 57.543,364.641 57.234,364.266 57.045 C 363.890 56.856,363.195 56.701,362.719 56.701 C 362.244 56.701,361.856 56.546,361.856 56.357 C 361.856 56.168,361.537 56.014,361.148 56.014 C 360.759 56.014,360.516 55.892,360.608 55.743 C 360.700 55.594,360.368 55.439,359.870 55.397 C 359.372 55.356,358.811 55.169,358.623 54.981 C 358.436 54.793,357.994 54.639,357.643 54.639 C 357.248 54.639,357.098 54.488,357.249 54.242 C 357.389 54.016,357.345 53.938,357.145 54.062 C 356.714 54.328,353.952 53.279,353.952 52.849 C 353.952 52.677,353.795 52.634,353.604 52.752 C 353.412 52.870,352.770 52.725,352.177 52.428 C 351.583 52.132,350.898 51.890,350.654 51.890 C 350.410 51.890,349.682 51.578,349.035 51.196 C 348.388 50.814,347.606 50.599,347.297 50.717 C 346.986 50.837,346.735 50.763,346.735 50.552 C 346.735 50.343,346.349 50.172,345.876 50.172 C 345.404 50.172,345.017 50.017,345.017 49.828 C 345.017 49.639,344.621 49.485,344.138 49.485 C 343.639 49.485,343.350 49.336,343.471 49.141 C 343.591 48.946,343.303 48.797,342.804 48.797 C 342.320 48.797,341.924 48.643,341.924 48.454 C 341.924 48.265,341.624 48.110,341.257 48.110 C 340.891 48.110,340.495 47.955,340.378 47.766 C 340.261 47.577,339.788 47.423,339.327 47.423 C 338.865 47.423,338.488 47.268,338.488 47.079 C 338.488 46.890,338.177 46.735,337.796 46.735 C 337.415 46.735,336.797 46.581,336.421 46.392 C 336.046 46.203,335.432 45.893,335.056 45.704 C 334.681 45.515,334.140 45.361,333.853 45.361 C 333.567 45.361,333.333 45.206,333.333 45.017 C 333.333 44.828,332.947 44.674,332.474 44.674 C 332.002 44.674,331.615 44.519,331.615 44.330 C 331.615 44.141,331.345 43.984,331.014 43.981 C 330.067 43.973,327.804 43.101,328.061 42.844 C 328.189 42.716,327.890 42.612,327.397 42.612 C 326.904 42.612,326.405 42.457,326.289 42.268 C 326.172 42.079,325.699 41.924,325.237 41.924 C 324.776 41.924,324.399 41.770,324.399 41.581 C 324.399 41.392,324.143 41.237,323.830 41.237 C 323.518 41.237,322.397 40.819,321.339 40.308 C 319.223 39.285,319.206 39.280,318.193 39.218 C 317.804 39.195,317.561 39.053,317.653 38.905 C 317.745 38.756,317.452 38.603,317.002 38.566 C 316.552 38.529,315.210 38.025,314.020 37.447 C 312.829 36.868,311.198 36.304,310.395 36.192 C 309.592 36.080,308.935 35.855,308.935 35.692 C 308.935 35.529,308.638 35.395,308.276 35.395 C 307.914 35.395,307.566 35.255,307.503 35.084 C 307.440 34.913,307.002 34.720,306.529 34.655 C 306.057 34.589,305.593 34.459,305.498 34.364 C 305.034 33.900,303.714 33.333,303.097 33.333 C 302.717 33.333,302.405 33.179,302.405 32.990 C 302.405 32.801,302.101 32.646,301.729 32.646 C 301.356 32.646,300.501 32.337,299.828 31.959 C 299.155 31.581,298.375 31.271,298.095 31.271 C 297.815 31.271,297.239 31.093,296.817 30.874 C 295.162 30.019,294.831 29.897,294.163 29.897 C 293.782 29.897,293.470 29.781,293.468 29.639 C 293.464 29.255,291.730 28.522,290.825 28.522 C 290.390 28.522,290.034 28.368,290.034 28.179 C 290.034 27.990,289.831 27.835,289.583 27.835 C 289.335 27.835,288.492 27.526,287.710 27.148 C 286.928 26.770,286.039 26.460,285.735 26.460 C 285.431 26.460,285.258 26.339,285.350 26.190 C 285.442 26.041,285.110 25.885,284.612 25.844 C 284.115 25.803,283.554 25.615,283.366 25.428 C 283.178 25.240,282.737 25.086,282.385 25.086 C 281.990 25.086,281.840 24.935,281.992 24.689 C 282.142 24.446,282.086 24.386,281.847 24.533 C 281.633 24.666,281.106 24.581,280.677 24.344 C 280.248 24.108,279.510 23.859,279.038 23.792 C 278.565 23.724,278.127 23.524,278.064 23.347 C 278.001 23.169,277.653 23.024,277.291 23.024 C 276.929 23.024,276.632 22.883,276.632 22.711 C 276.632 22.539,276.362 22.442,276.031 22.496 C 275.700 22.550,275.169 22.367,274.850 22.088 C 274.531 21.810,274.116 21.677,273.929 21.793 C 273.741 21.909,273.490 21.847,273.371 21.655 C 273.252 21.463,272.769 21.306,272.296 21.306 C 271.811 21.306,271.530 21.156,271.649 20.962 C 271.770 20.767,271.481 20.619,270.982 20.619 C 270.499 20.619,270.103 20.464,270.103 20.275 C 270.103 20.086,269.630 19.931,269.052 19.931 C 268.439 19.931,268.089 19.788,268.213 19.588 C 268.334 19.393,268.045 19.244,267.546 19.244 C 267.062 19.244,266.667 19.089,266.667 18.900 C 266.667 18.711,266.289 18.557,265.828 18.557 C 265.366 18.557,264.893 18.402,264.777 18.213 C 264.660 18.024,264.109 17.869,263.554 17.869 C 262.998 17.869,262.543 17.715,262.543 17.526 C 262.543 17.337,262.234 17.182,261.856 17.182 C 261.478 17.182,261.168 17.027,261.168 16.838 C 261.168 16.649,260.868 16.495,260.501 16.495 C 260.135 16.495,259.739 16.340,259.622 16.151 C 259.505 15.962,259.041 15.808,258.591 15.808 C 258.141 15.808,257.677 15.653,257.560 15.464 C 257.443 15.275,257.060 15.120,256.709 15.120 C 256.358 15.120,256.019 15.004,255.956 14.863 C 255.815 14.544,252.742 13.371,251.460 13.146 C 250.941 13.055,250.515 12.858,250.515 12.708 C 250.515 12.557,249.742 12.236,248.797 11.994 C 247.852 11.752,247.079 11.429,247.079 11.275 C 247.079 11.122,246.845 10.997,246.559 10.997 C 246.273 10.997,245.770 10.861,245.442 10.695 C 243.835 9.883,242.068 9.161,241.828 9.220 C 241.681 9.256,241.139 9.073,240.625 8.813 C 240.111 8.554,239.499 8.410,239.264 8.494 C 239.030 8.578,238.599 8.408,238.308 8.117 C 238.017 7.825,237.242 7.487,236.587 7.364 C 235.931 7.241,235.395 7.003,235.395 6.835 C 235.395 6.667,235.125 6.527,234.794 6.524 C 233.847 6.516,231.584 5.644,231.841 5.387 C 231.969 5.259,231.497 5.155,230.793 5.155 C 230.027 5.155,229.598 5.017,229.725 4.811 C 229.849 4.611,229.500 4.467,228.886 4.467 C 228.308 4.467,227.835 4.313,227.835 4.124 C 227.835 3.935,227.380 3.780,226.824 3.780 C 226.269 3.780,225.718 3.625,225.601 3.436 C 225.485 3.247,224.943 3.093,224.399 3.093 C 223.854 3.093,223.313 2.938,223.196 2.749 C 223.079 2.560,222.529 2.405,221.973 2.405 C 221.417 2.405,220.962 2.251,220.962 2.062 C 220.962 1.873,220.275 1.718,219.436 1.718 C 218.597 1.718,217.814 1.564,217.698 1.375 C 217.581 1.186,216.653 1.031,215.636 1.031 C 214.619 1.031,213.691 0.876,213.574 0.687 C 213.305 0.251,202.325 0.223,201.873 0.657 M184.934 25.629 C 189.535 27.440,193.647 29.064,194.072 29.238 C 198.845 31.187,202.771 32.646,203.241 32.646 C 203.509 32.646,208.649 31.017,214.664 29.026 C 228.925 24.305,228.866 24.323,228.866 24.891 C 228.866 25.344,228.319 26.773,227.146 29.381 C 226.566 30.671,225.003 34.437,223.203 38.878 C 222.248 41.235,222.266 41.265,225.258 42.357 C 226.581 42.840,228.900 43.699,230.412 44.267 C 242.123 48.662,244.395 49.509,245.978 50.069 C 248.461 50.947,247.573 51.336,241.726 51.932 C 238.716 52.239,234.476 52.676,232.302 52.904 C 226.784 53.482,223.118 53.857,218.748 54.292 C 215.240 54.641,214.089 54.989,214.089 55.702 C 214.089 55.862,213.719 56.810,213.267 57.808 C 212.814 58.806,211.591 61.710,210.548 64.261 C 207.446 71.857,207.143 72.509,206.721 72.509 C 206.395 72.509,203.156 67.466,200.343 62.580 C 200.060 62.087,198.597 59.644,197.094 57.150 L 194.361 52.617 192.284 52.416 C 191.141 52.306,184.098 51.682,176.632 51.030 C 152.630 48.936,153.759 49.206,160.137 47.083 C 160.610 46.925,162.311 46.305,163.918 45.704 C 165.524 45.104,167.225 44.485,167.698 44.330 C 168.170 44.175,169.871 43.561,171.478 42.965 C 175.016 41.654,179.644 40.009,181.908 39.258 C 184.373 38.440,184.374 38.352,181.928 34.021 C 181.341 32.981,180.053 30.607,179.065 28.745 C 178.077 26.882,176.970 24.829,176.607 24.181 C 175.233 21.735,174.888 21.675,184.934 25.629 M291.328 56.680 C 291.656 56.857,296.564 58.813,302.234 61.025 C 307.904 63.237,313.162 65.317,313.918 65.647 C 314.674 65.977,317.380 67.052,319.931 68.035 C 322.483 69.019,324.880 69.943,325.258 70.089 C 325.636 70.235,326.332 70.516,326.804 70.712 C 327.277 70.909,328.359 71.329,329.210 71.646 C 330.060 71.962,331.220 72.432,331.787 72.690 C 332.354 72.948,334.287 73.716,336.082 74.398 C 337.878 75.080,340.043 75.927,340.893 76.280 C 341.744 76.633,342.723 77.012,343.070 77.121 C 344.905 77.701,344.979 77.665,328.694 84.033 C 315.117 89.342,314.314 89.658,312.457 90.424 C 311.937 90.638,311.203 90.927,310.825 91.065 C 310.447 91.204,309.674 91.513,309.107 91.753 C 308.540 91.992,307.728 92.322,307.302 92.486 C 305.037 93.358,302.987 94.204,302.324 94.542 C 301.996 94.709,301.569 94.845,301.375 94.845 C 301.182 94.845,300.368 95.138,299.567 95.495 C 296.810 96.726,290.030 99.313,289.563 99.313 C 289.091 99.313,285.903 100.483,284.798 101.062 C 284.470 101.234,284.018 101.375,283.793 101.375 C 283.395 101.375,252.473 89.230,249.574 87.936 C 248.773 87.578,247.959 87.285,247.765 87.285 C 247.572 87.285,247.106 87.131,246.731 86.942 C 246.355 86.753,245.741 86.443,245.365 86.254 C 244.990 86.065,244.524 85.911,244.331 85.911 C 244.137 85.911,243.323 85.618,242.522 85.261 C 241.721 84.904,240.369 84.350,239.519 84.030 C 238.668 83.710,237.509 83.245,236.942 82.995 C 236.375 82.746,234.569 82.026,232.928 81.397 C 229.733 80.170,229.587 79.858,231.851 79.092 C 232.572 78.848,233.548 78.484,234.021 78.282 C 234.493 78.080,235.228 77.781,235.653 77.617 C 236.078 77.454,236.813 77.165,237.285 76.976 C 237.758 76.787,238.531 76.478,239.003 76.289 C 239.476 76.100,240.210 75.802,240.636 75.628 C 241.061 75.454,248.754 72.426,257.732 68.900 C 275.827 61.794,274.805 62.201,277.058 61.203 C 277.954 60.806,278.814 60.481,278.970 60.481 C 279.125 60.481,279.892 60.172,280.675 59.794 C 281.457 59.416,282.261 59.107,282.461 59.107 C 282.662 59.107,283.481 58.816,284.282 58.460 C 289.030 56.355,290.186 56.063,291.328 56.680 M130.584 62.358 C 163.840 66.749,175.680 82.181,153.782 92.593 C 150.947 93.941,144.216 96.183,140.893 96.885 C 139.854 97.105,138.385 97.421,137.629 97.589 C 136.326 97.878,135.036 98.071,128.179 99.005 C 124.390 99.521,107.519 99.515,103.569 98.997 C 97.172 98.158,94.389 97.680,89.347 96.556 C 72.869 92.884,63.433 84.000,67.905 76.369 C 74.202 65.624,104.323 58.891,130.584 62.358 M230.022 104.014 C 227.338 107.900,220.519 117.921,216.503 123.883 C 214.720 126.529,213.168 128.771,213.054 128.866 C 212.940 128.960,211.345 131.280,209.511 134.021 C 204.591 141.372,204.816 141.135,203.401 140.476 C 202.759 140.177,199.682 138.898,196.564 137.634 C 193.445 136.370,190.391 135.118,189.777 134.850 C 189.162 134.583,188.157 134.144,187.543 133.876 C 186.929 133.607,185.576 133.054,184.536 132.646 C 183.497 132.239,182.143 131.685,181.529 131.416 C 180.915 131.148,179.910 130.709,179.296 130.441 C 178.681 130.173,176.555 129.309,174.570 128.522 C 172.586 127.735,170.498 126.876,169.931 126.613 C 168.892 126.130,159.405 122.195,152.405 119.344 C 150.326 118.497,147.852 117.459,146.907 117.037 C 145.962 116.616,144.291 115.913,143.193 115.475 C 140.768 114.509,140.932 114.321,144.674 113.777 C 146.280 113.543,148.368 113.217,149.313 113.051 C 150.258 112.886,152.191 112.583,153.608 112.377 C 155.026 112.172,157.113 111.860,158.247 111.684 C 159.381 111.508,162.397 111.047,164.948 110.659 C 167.500 110.272,170.515 109.805,171.649 109.621 C 172.784 109.437,177.345 108.743,181.787 108.079 C 186.229 107.415,190.829 106.717,192.010 106.529 C 193.192 106.340,195.163 106.031,196.392 105.842 C 197.620 105.653,199.631 105.344,200.859 105.155 C 202.088 104.966,204.098 104.656,205.326 104.467 C 206.555 104.278,208.565 103.969,209.794 103.780 C 211.022 103.591,212.994 103.287,214.175 103.105 C 215.357 102.922,217.483 102.604,218.900 102.396 C 220.318 102.189,222.328 101.879,223.368 101.706 C 229.764 100.646,231.753 100.436,231.912 100.806 C 231.981 100.966,231.131 102.410,230.022 104.014 M378.866 133.282 C 376.939 134.314,371.068 136.998,359.880 141.964 C 356.032 143.671,355.067 144.096,353.952 144.577 C 353.290 144.862,351.776 145.541,350.586 146.087 C 349.396 146.633,348.357 147.079,348.277 147.079 C 348.196 147.079,347.314 147.447,346.316 147.897 C 345.318 148.347,340.636 150.373,335.911 152.400 C 331.186 154.427,326.503 156.456,325.505 156.909 C 324.507 157.361,323.622 157.732,323.538 157.732 C 323.454 157.732,322.372 158.196,321.134 158.763 C 319.896 159.330,318.808 159.794,318.716 159.794 C 318.624 159.794,317.894 160.093,317.092 160.460 C 314.706 161.550,307.368 164.734,302.405 166.832 C 299.854 167.911,296.950 169.165,295.952 169.620 C 294.954 170.075,294.070 170.447,293.986 170.447 C 293.903 170.447,293.018 170.815,292.020 171.266 C 291.023 171.717,289.046 172.585,287.629 173.196 C 286.211 173.807,284.235 174.675,283.237 175.126 C 282.239 175.576,281.349 175.945,281.258 175.945 C 281.167 175.945,280.437 176.246,279.635 176.615 C 277.981 177.375,270.999 180.417,265.636 182.714 C 263.651 183.564,261.177 184.649,260.137 185.125 C 259.098 185.601,257.010 186.532,255.498 187.194 C 248.977 190.050,247.784 190.589,239.691 194.334 C 235.911 196.084,230.653 198.604,228.007 199.934 C 205.946 211.024,193.244 211.890,175.258 203.530 C 171.958 201.996,169.558 200.905,168.041 200.249 C 167.380 199.963,166.143 199.421,165.292 199.044 C 163.326 198.173,154.032 194.226,146.907 191.235 C 141.718 189.058,140.448 188.518,137.973 187.443 C 137.405 187.197,136.094 186.662,135.057 186.255 C 134.021 185.847,132.354 185.139,131.353 184.681 C 130.352 184.223,129.465 183.849,129.382 183.849 C 129.299 183.849,127.796 183.241,126.042 182.499 C 124.288 181.756,120.146 180.038,116.838 178.680 C 111.210 176.369,110.010 175.867,107.388 174.728 C 106.821 174.482,105.507 173.947,104.467 173.540 C 103.428 173.132,102.075 172.579,101.460 172.310 C 98.709 171.106,97.890 170.762,94.330 169.314 C 87.578 166.567,77.861 162.538,76.804 162.047 C 76.237 161.783,74.536 161.077,73.024 160.478 C 71.512 159.879,69.644 159.102,68.873 158.750 C 68.101 158.399,66.632 157.782,65.608 157.379 C 64.584 156.977,63.282 156.443,62.715 156.194 C 62.148 155.945,60.369 155.197,58.763 154.533 C 57.156 153.869,53.832 152.479,51.375 151.444 C 48.918 150.410,44.974 148.755,42.612 147.768 C 40.249 146.780,37.775 145.739,37.113 145.454 C 36.452 145.169,35.408 144.722,34.794 144.461 C 32.156 143.340,30.975 142.821,28.936 141.886 C 27.747 141.340,26.707 140.893,26.627 140.893 C 26.547 140.893,25.664 140.526,24.667 140.076 C 17.757 136.963,17.057 136.813,14.951 137.989 C 14.091 138.469,13.248 138.777,13.080 138.673 C 12.911 138.569,12.722 138.625,12.658 138.798 C 12.595 138.971,12.234 139.165,11.856 139.230 C 11.478 139.294,10.963 139.542,10.711 139.780 C 10.460 140.018,10.112 140.125,9.938 140.017 C 9.764 139.910,9.622 139.963,9.622 140.134 C 9.622 140.500,5.147 142.828,4.712 142.689 C 4.549 142.637,4.514 142.753,4.634 142.947 C 4.754 143.140,4.695 143.299,4.503 143.299 C 4.311 143.299,3.279 144.154,2.209 145.199 C -4.211 151.467,1.867 157.670,23.883 167.322 C 27.474 168.896,31.229 170.552,32.227 171.003 C 33.225 171.453,34.110 171.821,34.194 171.821 C 34.278 171.821,35.360 172.285,36.598 172.852 C 37.836 173.419,38.918 173.883,39.003 173.883 C 39.087 173.883,41.828 175.021,45.094 176.412 C 48.359 177.803,53.196 179.832,55.842 180.921 C 58.488 182.010,61.426 183.242,62.371 183.658 C 63.316 184.074,64.631 184.621,65.292 184.874 C 65.954 185.127,66.642 185.463,66.821 185.622 C 67.001 185.781,67.345 185.911,67.586 185.911 C 67.827 185.911,69.037 186.375,70.275 186.942 C 71.513 187.509,72.601 187.973,72.693 187.973 C 72.785 187.973,73.515 188.262,74.316 188.615 C 76.891 189.752,79.784 190.962,84.708 192.964 C 87.354 194.040,90.137 195.198,90.893 195.539 C 91.649 195.879,93.892 196.804,95.876 197.595 C 97.861 198.385,100.103 199.313,100.859 199.657 C 101.615 200.001,103.471 200.774,104.983 201.375 C 106.495 201.975,108.351 202.747,109.107 203.090 C 110.366 203.661,112.226 204.428,121.134 208.050 C 122.835 208.742,124.691 209.521,125.258 209.782 C 125.825 210.042,127.127 210.585,128.151 210.988 C 129.175 211.390,130.644 212.007,131.416 212.359 C 132.187 212.710,134.055 213.488,135.567 214.089 C 137.079 214.689,139.133 215.553,140.130 216.009 C 141.128 216.465,142.019 216.838,142.110 216.838 C 142.201 216.838,143.008 217.166,143.904 217.566 C 145.648 218.345,145.949 218.473,150.687 220.454 C 154.656 222.114,162.997 225.668,164.777 226.457 C 165.533 226.793,167.311 227.571,168.729 228.188 C 170.146 228.805,172.620 229.921,174.227 230.668 C 193.493 239.632,205.082 238.937,228.274 227.428 C 232.013 225.573,235.124 224.055,235.188 224.055 C 235.253 224.055,237.416 223.050,239.995 221.821 C 242.575 220.593,244.744 219.588,244.817 219.588 C 244.890 219.588,246.317 218.959,247.990 218.190 C 249.662 217.422,251.495 216.588,252.062 216.337 C 252.629 216.086,253.789 215.572,254.639 215.196 C 256.311 214.456,258.379 213.537,260.825 212.448 C 261.675 212.069,266.546 209.947,271.649 207.731 C 276.753 205.515,281.744 203.333,282.742 202.882 C 283.740 202.431,284.625 202.062,284.709 202.062 C 284.794 202.062,285.875 201.598,287.113 201.031 C 288.351 200.464,289.433 200.000,289.517 200.000 C 289.601 200.000,290.487 199.629,291.485 199.175 C 292.483 198.722,297.165 196.695,301.890 194.672 C 306.615 192.648,311.298 190.622,312.295 190.170 C 313.293 189.717,314.179 189.347,314.263 189.347 C 314.347 189.347,315.429 188.883,316.667 188.316 C 317.905 187.749,318.986 187.285,319.071 187.285 C 319.155 187.285,320.079 186.899,321.124 186.426 C 322.169 185.954,323.879 185.180,324.924 184.708 C 325.969 184.235,326.893 183.849,326.978 183.849 C 327.062 183.849,328.143 183.385,329.381 182.818 C 330.619 182.251,331.697 181.787,331.776 181.787 C 331.928 181.787,342.803 177.067,345.271 175.929 C 346.072 175.560,346.802 175.258,346.893 175.258 C 346.984 175.258,347.875 174.888,348.873 174.437 C 349.871 173.986,351.460 173.274,352.405 172.854 C 354.013 172.141,354.619 171.879,357.474 170.656 C 358.088 170.393,359.519 169.758,360.653 169.246 C 361.787 168.734,365.652 167.002,369.242 165.397 C 389.030 156.554,397.164 151.503,399.480 146.622 C 400.227 145.048,400.069 141.944,399.198 141.074 C 398.880 140.755,398.722 140.328,398.847 140.125 C 398.982 139.907,398.914 139.856,398.679 140.002 C 398.443 140.147,398.282 140.028,398.282 139.711 C 398.282 139.416,398.010 139.175,397.677 139.175 C 397.344 139.175,396.665 138.798,396.167 138.336 C 395.670 137.875,395.169 137.592,395.054 137.706 C 394.939 137.821,394.845 137.726,394.845 137.494 C 394.845 137.262,394.707 137.158,394.538 137.263 C 394.369 137.368,394.133 137.200,394.014 136.890 C 393.895 136.581,393.710 136.416,393.602 136.524 C 393.493 136.633,392.874 136.423,392.225 136.058 C 391.576 135.694,390.808 135.395,390.519 135.395 C 390.230 135.395,390.089 135.241,390.206 135.052 C 390.387 134.759,389.425 134.533,388.574 134.667 C 388.432 134.690,388.316 134.553,388.316 134.364 C 388.316 134.175,388.007 134.021,387.629 134.021 C 387.251 134.021,386.942 133.866,386.942 133.677 C 386.942 133.488,386.469 133.333,385.890 133.333 C 385.312 133.333,384.922 133.199,385.023 133.035 C 385.204 132.742,382.730 132.274,381.309 132.332 C 380.911 132.349,379.811 132.776,378.866 133.282 M384.880 198.522 C 384.407 198.603,382.474 199.417,380.584 200.332 C 374.410 203.319,369.395 205.616,362.136 208.781 C 359.241 210.043,356.056 211.444,355.059 211.895 C 354.061 212.346,353.178 212.715,353.098 212.715 C 353.018 212.715,351.940 213.179,350.703 213.746 C 349.466 214.313,347.442 215.241,346.205 215.808 C 344.967 216.375,343.883 216.838,343.795 216.838 C 343.707 216.838,342.902 217.166,342.007 217.566 C 341.111 217.966,339.914 218.489,339.347 218.728 C 338.780 218.967,337.775 219.405,337.113 219.703 C 336.452 220.000,332.973 221.502,329.381 223.042 C 325.790 224.582,322.036 226.213,321.038 226.667 C 320.040 227.120,319.155 227.491,319.071 227.491 C 318.986 227.491,317.905 227.955,316.667 228.522 C 315.429 229.089,314.347 229.553,314.263 229.553 C 314.179 229.553,313.216 229.957,312.124 230.449 C 311.031 230.942,309.674 231.543,309.107 231.783 C 308.540 232.024,307.534 232.454,306.873 232.738 C 306.211 233.023,301.804 234.912,297.079 236.936 C 292.354 238.961,287.985 240.834,287.371 241.099 C 286.757 241.364,285.752 241.796,285.137 242.060 C 283.715 242.670,281.093 243.833,278.770 244.884 C 277.772 245.335,276.887 245.704,276.804 245.704 C 276.721 245.704,275.836 246.074,274.838 246.525 C 271.053 248.237,269.798 248.787,265.120 250.784 C 262.474 251.913,259.459 253.225,258.419 253.700 C 256.729 254.471,255.602 254.975,252.062 256.543 C 251.495 256.794,249.662 257.628,247.990 258.397 C 246.317 259.165,244.901 259.794,244.843 259.794 C 244.785 259.794,243.292 260.469,241.527 261.293 C 239.761 262.118,237.543 263.144,236.598 263.575 C 235.653 264.005,231.864 265.853,228.179 267.682 C 221.390 271.051,217.001 272.933,212.577 274.374 C 210.202 275.147,209.066 275.448,205.155 276.342 C 197.091 278.184,185.231 276.103,174.312 270.930 C 170.335 269.046,168.700 268.325,159.966 264.607 C 155.430 262.676,151.063 260.803,150.261 260.445 C 149.460 260.087,148.730 259.794,148.638 259.794 C 148.546 259.794,147.458 259.330,146.220 258.763 C 144.982 258.196,143.894 257.732,143.802 257.732 C 143.710 257.732,142.980 257.443,142.178 257.089 C 141.377 256.735,139.794 256.057,138.660 255.581 C 135.172 254.119,125.341 250.027,120.962 248.217 C 119.356 247.552,117.577 246.805,117.010 246.555 C 116.443 246.306,115.129 245.768,114.089 245.361 C 113.050 244.953,111.697 244.400,111.082 244.131 C 108.813 243.138,107.545 242.609,98.797 239.007 C 93.883 236.983,87.879 234.492,85.455 233.471 C 83.031 232.450,80.980 231.615,80.898 231.615 C 80.816 231.615,80.016 231.288,79.120 230.888 C 76.666 229.792,75.698 229.381,72.509 228.079 C 67.767 226.144,56.542 221.481,50.000 218.727 C 49.433 218.488,48.236 217.966,47.341 217.566 C 46.445 217.166,45.637 216.838,45.545 216.838 C 45.453 216.838,44.365 216.375,43.127 215.808 C 41.889 215.241,40.807 214.777,40.722 214.777 C 40.637 214.777,39.554 214.313,38.316 213.746 C 37.078 213.179,35.990 212.715,35.898 212.715 C 35.806 212.715,35.076 212.419,34.275 212.057 C 33.473 211.696,29.880 210.130,26.289 208.578 C 22.698 207.026,18.994 205.371,18.059 204.900 C 16.382 204.055,12.844 203.498,13.242 204.142 C 13.352 204.321,13.124 204.467,12.735 204.467 C 12.346 204.467,12.027 204.622,12.027 204.811 C 12.027 205.000,11.632 205.155,11.148 205.155 C 10.649 205.155,10.361 205.303,10.481 205.498 C 10.598 205.687,10.483 205.842,10.226 205.842 C 9.578 205.842,7.910 206.645,7.906 206.959 C 7.905 207.101,7.595 207.216,7.216 207.216 C 6.838 207.216,6.529 207.371,6.529 207.560 C 6.529 207.749,6.220 207.904,5.842 207.904 C 5.464 207.904,5.155 208.068,5.155 208.268 C 5.155 208.468,5.016 208.546,4.847 208.441 C 4.678 208.337,4.442 208.505,4.323 208.814 C 4.205 209.124,4.018 209.287,3.908 209.177 C 3.798 209.068,2.874 209.846,1.854 210.908 C -2.468 215.406,0.407 220.612,10.309 226.215 C 12.966 227.718,22.428 232.302,22.874 232.302 C 22.945 232.302,23.820 232.671,24.818 233.122 C 28.419 234.749,36.982 238.449,38.826 239.174 C 39.862 239.582,41.529 240.290,42.530 240.748 C 43.531 241.206,44.418 241.581,44.502 241.581 C 44.585 241.581,45.470 241.954,46.467 242.410 C 47.465 242.866,49.519 243.730,51.031 244.331 C 52.543 244.931,54.399 245.701,55.155 246.042 C 55.911 246.383,60.704 248.388,65.808 250.498 C 70.911 252.608,75.550 254.545,76.117 254.804 C 76.684 255.062,77.998 255.606,79.038 256.014 C 80.077 256.421,81.469 256.990,82.131 257.278 C 82.792 257.566,83.643 257.925,84.021 258.076 C 84.399 258.227,85.441 258.675,86.336 259.072 C 87.232 259.469,88.046 259.794,88.144 259.794 C 88.243 259.794,88.979 260.087,89.780 260.445 C 91.360 261.152,94.664 262.530,101.375 265.280 C 103.737 266.248,106.521 267.409,107.560 267.860 C 108.600 268.310,110.687 269.167,112.199 269.765 C 113.711 270.363,115.567 271.133,116.323 271.478 C 117.079 271.822,118.935 272.595,120.447 273.196 C 121.959 273.797,123.814 274.569,124.570 274.914 C 125.326 275.258,127.491 276.162,129.381 276.922 C 134.040 278.797,144.164 283.037,145.958 283.864 C 146.760 284.234,147.496 284.536,147.595 284.536 C 147.693 284.536,148.507 284.861,149.402 285.258 C 151.633 286.246,151.373 286.134,160.825 290.162 C 165.455 292.135,170.790 294.473,172.680 295.357 C 189.778 303.357,202.155 304.179,216.409 298.259 C 216.834 298.083,217.530 297.798,217.955 297.626 C 220.599 296.558,223.886 295.033,228.866 292.565 C 234.479 289.783,240.310 286.992,243.299 285.655 C 244.149 285.275,247.088 283.954,249.828 282.719 C 252.569 281.484,256.667 279.669,258.935 278.687 C 261.203 277.704,263.677 276.625,264.433 276.290 C 265.189 275.954,266.503 275.371,267.354 274.994 C 268.204 274.616,270.060 273.808,271.478 273.197 C 272.895 272.585,274.871 271.717,275.869 271.266 C 276.867 270.815,277.752 270.447,277.835 270.447 C 277.918 270.447,278.803 270.076,279.801 269.622 C 280.799 269.168,284.553 267.537,288.144 265.998 C 291.735 264.458,295.137 262.992,295.704 262.739 C 297.084 262.126,299.983 260.875,302.835 259.663 C 304.398 258.999,306.096 258.263,307.904 257.468 C 308.754 257.094,310.997 256.134,312.887 255.335 C 314.777 254.537,316.942 253.607,317.698 253.270 C 318.454 252.932,321.160 251.773,323.711 250.694 C 326.263 249.614,328.969 248.455,329.725 248.117 C 330.481 247.780,332.259 247.003,333.677 246.392 C 335.095 245.781,337.071 244.913,338.069 244.462 C 339.066 244.011,339.951 243.643,340.034 243.643 C 340.118 243.643,341.002 243.275,342.000 242.825 C 342.998 242.375,345.670 241.199,347.938 240.211 C 356.173 236.624,357.638 235.980,362.199 233.943 C 364.751 232.804,367.534 231.566,368.385 231.192 C 369.235 230.818,370.473 230.271,371.134 229.978 C 395.777 219.043,404.330 211.301,398.244 205.440 C 396.822 204.070,396.267 203.669,394.330 202.610 C 393.952 202.403,393.565 202.156,393.471 202.062 C 393.053 201.644,391.715 201.031,391.221 201.031 C 390.924 201.031,390.777 200.876,390.893 200.687 C 391.014 200.492,390.725 200.344,390.226 200.344 C 389.743 200.344,389.347 200.189,389.347 200.000 C 389.347 199.811,388.970 199.656,388.508 199.656 C 388.047 199.656,387.574 199.502,387.457 199.313 C 387.340 199.124,386.935 198.969,386.557 198.969 C 386.179 198.969,385.966 198.814,386.082 198.625 C 386.199 198.436,386.170 198.303,386.017 198.329 C 385.864 198.354,385.352 198.441,384.880 198.522 " stroke="none" fill="#c3332c" fill-rule="evenodd"></path></g></svg>