<svg id="svg" version="1.1" xmlns="http://www.w3.org/2000/svg" xmlns:xlink="http://www.w3.org/1999/xlink" width="400" height="400" viewBox="0, 0, 400,400"><g id="svgg"><path id="path0" d="M41.695 155.066 C 41.418 155.178,40.999 155.628,40.765 156.065 C 40.385 156.776,40.423 156.816,41.123 156.441 C 41.711 156.127,42.775 154.655,42.287 154.832 C 42.239 154.849,41.973 154.955,41.695 155.066 M371.100 157.278 C 371.583 157.761,372.105 158.029,372.260 157.874 C 372.415 157.719,372.195 157.329,371.771 157.009 C 370.581 156.109,370.117 156.295,371.100 157.278 M33.214 163.974 C 32.707 164.921,32.684 165.319,33.152 165.030 C 33.505 164.812,34.055 163.200,33.777 163.200 C 33.695 163.200,33.442 163.548,33.214 163.974 M85.067 163.467 C 84.920 163.613,84.800 165.683,84.800 168.067 L 84.800 172.400 88.200 172.400 L 91.600 172.400 91.600 200.584 L 91.600 228.768 88.300 228.884 L 85.000 229.000 85.000 233.200 L 85.000 237.400 96.200 237.400 L 107.400 237.400 107.400 233.200 L 107.400 229.000 104.500 228.882 L 101.600 228.765 101.600 217.982 L 101.600 207.200 108.148 207.200 L 114.696 207.200 115.200 209.000 C 115.477 209.990,115.842 210.800,116.012 210.800 C 116.181 210.800,116.643 211.700,117.039 212.800 C 117.434 213.900,117.890 214.800,118.051 214.800 C 118.212 214.800,118.631 215.790,118.983 217.000 C 119.335 218.210,119.768 219.200,119.946 219.200 C 120.124 219.200,120.607 220.190,121.018 221.400 C 121.429 222.610,121.873 223.600,122.004 223.600 C 122.135 223.600,122.566 224.500,122.961 225.600 C 123.357 226.700,123.842 227.600,124.040 227.600 C 124.238 227.600,124.400 227.870,124.400 228.200 C 124.400 228.633,123.956 228.800,122.800 228.800 L 121.200 228.800 121.200 233.200 L 121.200 237.600 130.800 237.600 L 140.400 237.600 140.400 233.218 L 140.400 228.837 137.700 228.718 L 135.000 228.600 134.629 227.100 C 134.426 226.275,134.129 225.600,133.970 225.600 C 133.811 225.600,133.357 224.700,132.961 223.600 C 132.566 222.500,132.107 221.600,131.941 221.600 C 131.776 221.600,131.329 220.610,130.947 219.400 C 130.566 218.190,130.125 217.200,129.967 217.200 C 129.809 217.200,129.357 216.300,128.961 215.200 C 128.566 214.100,128.110 213.200,127.949 213.200 C 127.788 213.200,127.369 212.210,127.017 211.000 C 126.665 209.790,126.224 208.800,126.035 208.800 C 124.882 208.800,125.323 206.927,126.814 205.495 C 127.686 204.656,128.400 203.834,128.400 203.668 C 128.400 203.502,129.930 201.808,131.800 199.904 L 135.200 196.442 135.200 185.412 L 135.200 174.382 133.000 172.251 C 131.790 171.079,130.800 169.993,130.800 169.836 C 130.800 169.680,129.371 168.122,127.624 166.376 L 124.448 163.200 104.891 163.200 C 94.134 163.200,85.213 163.320,85.067 163.467 M153.067 163.467 C 152.920 163.613,152.800 165.683,152.800 168.067 L 152.800 172.400 156.200 172.400 L 159.600 172.400 159.600 200.584 L 159.600 228.768 156.300 228.884 L 153.000 229.000 153.000 233.200 L 153.000 237.400 176.700 237.503 L 200.400 237.606 200.400 227.390 L 200.400 217.174 195.900 217.287 L 191.400 217.400 191.503 223.100 L 191.606 228.800 180.603 228.800 L 169.600 228.800 169.600 217.006 L 169.600 205.212 181.100 205.106 L 192.600 205.000 192.714 200.700 L 192.827 196.400 181.214 196.400 L 169.600 196.400 169.600 184.400 L 169.600 172.400 180.389 172.400 L 191.177 172.400 191.289 177.900 L 191.400 183.400 195.900 183.513 L 200.400 183.626 200.400 173.413 L 200.400 163.200 176.867 163.200 C 163.923 163.200,153.213 163.320,153.067 163.467 M222.100 166.588 C 220.285 168.422,218.800 170.048,218.800 170.201 C 218.800 170.354,217.900 171.361,216.800 172.438 L 214.800 174.396 214.800 184.267 L 214.800 194.137 216.600 195.862 C 217.590 196.810,218.403 197.725,218.406 197.893 C 218.409 198.062,219.918 199.685,221.758 201.500 L 225.106 204.800 235.120 204.800 C 245.187 204.800,246.400 204.901,246.400 205.743 C 246.401 205.994,247.121 206.898,248.000 207.752 L 249.600 209.304 249.600 216.471 L 249.600 223.639 247.212 226.020 L 244.825 228.400 237.008 228.400 L 229.190 228.400 226.195 225.434 L 223.200 222.468 223.200 218.034 L 223.200 213.600 218.800 213.600 L 214.400 213.600 214.400 220.371 L 214.400 227.143 219.411 232.171 L 224.421 237.200 237.000 237.200 L 249.579 237.200 254.589 232.171 L 259.600 227.143 259.600 216.239 L 259.600 205.336 254.550 200.268 L 249.501 195.200 239.492 195.200 L 229.482 195.200 227.149 192.900 L 224.817 190.600 224.808 184.263 L 224.800 177.926 227.363 175.363 L 229.926 172.800 237.032 172.800 L 244.137 172.800 245.769 174.555 C 249.729 178.816,249.600 178.529,249.600 183.079 C 249.600 187.919,249.337 187.703,255.000 187.518 L 258.600 187.400 258.600 180.600 L 258.600 173.800 254.000 169.127 C 251.470 166.556,249.168 164.171,248.884 163.827 C 248.437 163.283,246.844 163.204,236.884 163.227 L 225.400 163.254 222.100 166.588 M267.600 173.400 L 267.600 183.600 271.600 183.600 L 275.600 183.600 275.600 178.000 L 275.600 172.400 282.559 172.400 L 289.519 172.400 289.667 195.300 C 289.748 207.895,289.661 218.310,289.473 218.445 C 289.285 218.580,289.167 219.030,289.212 219.445 C 289.256 219.860,289.271 222.135,289.246 224.500 L 289.200 228.800 284.400 228.800 L 279.600 228.800 279.600 233.205 L 279.600 237.610 294.300 237.505 L 309.000 237.400 309.000 233.200 L 309.000 229.000 304.100 228.888 L 299.200 228.775 299.200 200.588 L 299.200 172.400 306.000 172.400 L 312.800 172.400 312.800 177.773 C 312.800 183.991,312.383 183.499,317.600 183.439 L 321.000 183.400 321.107 173.564 L 321.214 163.729 310.707 163.465 C 304.928 163.320,292.865 163.201,283.900 163.201 L 267.600 163.200 267.600 173.400 M43.446 166.986 C 42.536 168.375,42.641 168.509,43.800 167.435 C 44.839 166.472,45.052 166.000,44.446 166.000 C 44.251 166.000,43.801 166.444,43.446 166.986 M123.071 175.368 L 125.600 177.947 125.600 185.309 L 125.600 192.672 123.136 195.136 L 120.672 197.600 111.136 197.600 L 101.600 197.600 101.600 184.936 L 101.600 172.272 111.071 172.531 L 120.543 172.789 123.071 175.368 M377.600 173.976 C 377.600 174.429,377.780 174.800,378.000 174.800 C 378.220 174.800,378.400 174.541,378.400 174.224 C 378.400 173.907,378.220 173.536,378.000 173.400 C 377.780 173.264,377.600 173.523,377.600 173.976 M33.867 178.667 C 33.452 179.082,33.553 180.400,34.000 180.400 C 34.220 180.400,34.400 179.950,34.400 179.400 C 34.400 178.353,34.308 178.226,33.867 178.667 M43.600 182.000 C 43.600 182.440,43.780 182.800,44.000 182.800 C 44.220 182.800,44.400 182.440,44.400 182.000 C 44.400 181.560,44.220 181.200,44.000 181.200 C 43.780 181.200,43.600 181.560,43.600 182.000 M32.667 193.467 C 32.181 193.953,32.390 194.379,33.000 194.145 C 33.330 194.018,33.600 193.754,33.600 193.557 C 33.600 193.138,33.049 193.084,32.667 193.467 M28.868 200.780 C 28.830 202.859,28.943 204.389,29.118 204.180 C 29.292 203.971,29.323 202.270,29.185 200.400 L 28.935 197.000 28.868 200.780 M41.692 204.075 C 41.779 204.336,42.064 204.621,42.325 204.708 C 42.618 204.806,42.707 204.623,42.557 204.233 C 42.278 203.506,41.452 203.355,41.692 204.075 M33.600 221.800 C 33.600 222.130,33.780 222.400,34.000 222.400 C 34.220 222.400,34.400 222.130,34.400 221.800 C 34.400 221.470,34.220 221.200,34.000 221.200 C 33.780 221.200,33.600 221.470,33.600 221.800 M33.200 227.800 C 33.200 228.130,33.380 228.400,33.600 228.400 C 33.820 228.400,34.000 228.130,34.000 227.800 C 34.000 227.470,33.820 227.200,33.600 227.200 C 33.380 227.200,33.200 227.470,33.200 227.800 M47.600 238.000 C 47.600 238.231,48.867 238.400,50.600 238.400 C 52.333 238.400,53.600 238.231,53.600 238.000 C 53.600 237.769,52.333 237.600,50.600 237.600 C 48.867 237.600,47.600 237.769,47.600 238.000 M357.600 238.000 C 357.600 238.233,358.933 238.400,360.800 238.400 C 362.667 238.400,364.000 238.233,364.000 238.000 C 364.000 237.767,362.667 237.600,360.800 237.600 C 358.933 237.600,357.600 237.767,357.600 238.000 M38.813 242.611 C 38.834 243.271,39.975 244.558,40.274 244.260 C 40.429 244.105,40.161 243.583,39.678 243.100 C 39.195 242.617,38.806 242.397,38.813 242.611 " stroke="none" fill="#0a9fc9" fill-rule="evenodd"></path><path id="path1" d="M42.823 154.368 C 42.510 154.802,42.109 155.067,41.932 154.958 C 41.754 154.848,41.706 155.011,41.825 155.320 C 41.951 155.650,41.581 156.182,40.929 156.610 C 37.811 158.653,32.453 165.115,33.062 166.100 C 33.198 166.321,33.276 167.919,33.234 169.651 C 33.193 171.383,33.306 172.800,33.487 172.800 C 33.668 172.800,33.746 174.174,33.661 175.852 C 33.551 178.030,33.635 178.825,33.954 178.629 C 34.265 178.436,34.406 179.178,34.419 181.076 C 34.430 182.574,34.594 185.600,34.783 187.800 C 35.100 191.482,35.067 191.853,34.364 192.464 C 33.944 192.829,33.600 193.312,33.600 193.537 C 33.600 193.762,33.195 194.066,32.700 194.213 C 30.178 194.962,29.153 196.990,29.250 201.044 C 29.316 203.817,29.476 204.800,29.861 204.800 C 30.147 204.800,30.657 205.220,30.993 205.734 C 31.330 206.247,32.099 206.922,32.703 207.234 C 34.988 208.413,35.035 208.618,34.638 215.718 C 34.439 219.283,34.098 222.316,33.881 222.459 C 33.650 222.610,33.571 223.891,33.689 225.543 C 33.800 227.098,33.745 228.421,33.567 228.485 C 33.389 228.548,33.202 230.460,33.153 232.734 L 33.062 236.868 36.731 240.377 C 38.749 242.306,40.400 244.055,40.400 244.264 C 40.400 244.472,40.994 245.218,41.719 245.922 L 43.038 247.200 48.719 247.200 L 54.400 247.200 54.400 242.800 L 54.400 238.400 51.232 238.400 L 48.065 238.400 45.403 235.700 C 42.841 233.102,42.749 232.940,42.958 231.400 C 43.078 230.520,43.296 227.240,43.444 224.111 C 43.610 220.574,43.859 218.513,44.102 218.663 C 44.348 218.815,44.436 217.775,44.339 215.852 C 44.254 214.174,44.323 212.800,44.492 212.800 C 44.662 212.800,44.800 211.391,44.800 209.670 C 44.800 206.622,43.994 204.800,42.645 204.800 C 42.478 204.800,41.468 203.864,40.399 202.720 C 38.243 200.412,38.245 199.989,40.417 198.334 C 44.425 195.279,44.800 194.713,44.800 191.727 C 44.800 190.108,44.601 188.761,44.320 188.480 C 44.056 188.216,44.011 188.000,44.220 188.001 C 44.435 188.001,44.542 186.871,44.466 185.401 C 44.392 183.970,44.193 182.800,44.024 182.800 C 43.855 182.800,43.592 180.325,43.440 177.300 C 43.289 174.275,43.061 170.880,42.934 169.756 C 42.711 167.786,42.756 167.664,44.200 166.356 C 45.024 165.610,46.101 164.595,46.594 164.100 C 47.369 163.324,47.911 163.200,50.546 163.200 C 52.429 163.200,53.600 163.038,53.600 162.776 C 53.600 162.543,53.786 162.468,54.013 162.608 C 54.291 162.780,54.390 161.376,54.313 158.332 L 54.200 153.800 48.796 153.689 C 43.805 153.587,43.348 153.639,42.823 154.368 M357.200 157.829 C 357.200 163.050,357.311 163.200,361.171 163.200 L 364.000 163.200 366.381 165.581 L 368.762 167.962 368.521 172.768 C 368.378 175.612,368.125 177.478,367.902 177.340 C 367.676 177.199,367.574 178.280,367.648 180.053 C 367.716 181.674,367.630 183.228,367.458 183.506 C 367.286 183.784,367.188 185.179,367.239 186.606 C 367.291 188.033,367.213 189.320,367.067 189.467 C 366.067 190.466,366.832 194.691,368.219 195.832 C 369.000 196.475,370.451 197.781,371.445 198.736 L 373.252 200.473 371.326 202.593 C 370.267 203.760,369.086 204.835,368.702 204.983 C 367.206 205.560,366.800 206.410,366.800 208.962 C 366.800 210.340,366.920 211.587,367.067 211.733 C 367.213 211.880,367.291 213.167,367.239 214.594 C 367.188 216.021,367.275 217.397,367.432 217.652 C 367.590 217.908,367.680 219.459,367.632 221.099 C 367.582 222.828,367.700 223.986,367.912 223.854 C 368.122 223.725,368.386 225.630,368.529 228.295 L 368.779 232.963 366.290 235.633 L 363.800 238.303 360.500 238.352 L 357.200 238.400 357.200 242.800 L 357.200 247.200 362.900 247.192 L 368.600 247.183 370.900 244.851 C 372.165 243.567,373.200 242.392,373.200 242.240 C 373.200 242.087,374.460 240.731,376.000 239.227 C 378.727 236.564,379.524 234.857,378.511 233.844 C 378.352 233.685,378.279 232.194,378.348 230.531 C 378.421 228.787,378.321 227.602,378.111 227.731 C 377.671 228.003,376.606 210.042,376.990 208.831 C 377.137 208.368,377.414 208.085,377.605 208.203 C 377.796 208.321,378.638 207.717,379.476 206.860 C 380.314 206.003,381.405 205.092,381.900 204.837 C 383.180 204.175,383.245 196.400,381.971 196.400 C 381.781 196.400,380.952 195.725,380.127 194.900 C 379.301 194.075,378.426 193.446,378.182 193.502 C 377.937 193.558,377.503 193.166,377.217 192.631 C 376.597 191.474,377.465 173.069,378.119 173.474 C 378.339 173.609,378.429 172.379,378.342 170.451 C 378.261 168.663,378.330 167.200,378.497 167.200 C 380.239 167.200,378.565 164.273,374.707 160.569 C 372.456 158.409,370.611 156.452,370.607 156.220 C 370.575 154.288,368.520 153.600,362.782 153.600 L 357.200 153.600 357.200 157.829 M316.305 183.483 C 316.802 183.579,317.522 183.575,317.905 183.475 C 318.287 183.375,317.880 183.296,317.000 183.301 C 316.120 183.305,315.807 183.387,316.305 183.483 M289.200 215.400 C 289.200 217.133,289.369 218.400,289.600 218.400 C 289.831 218.400,290.000 217.133,290.000 215.400 C 290.000 213.667,289.831 212.400,289.600 212.400 C 289.369 212.400,289.200 213.667,289.200 215.400 " stroke="none" fill="#12ba8b" fill-rule="evenodd"></path></g></svg>