<svg id="svg" version="1.1" xmlns="http://www.w3.org/2000/svg" xmlns:xlink="http://www.w3.org/1999/xlink" width="400" height="414.90683229813664" viewBox="0, 0, 400,414.90683229813664"><g id="svgg"><path id="path0" d="M208.500 35.465 C 208.225 35.576,208.000 35.922,208.000 36.233 C 208.000 36.680,207.239 36.800,204.400 36.800 C 201.467 36.800,200.800 36.911,200.800 37.400 C 200.800 37.872,200.244 38.000,198.200 38.000 C 196.156 38.000,195.600 38.128,195.600 38.600 C 195.600 39.080,195.000 39.200,192.600 39.200 C 190.200 39.200,189.600 39.320,189.600 39.800 C 189.600 40.253,189.111 40.400,187.600 40.400 C 186.089 40.400,185.600 40.547,185.600 41.000 C 185.600 41.444,185.133 41.600,183.800 41.600 C 182.467 41.600,182.000 41.756,182.000 42.200 C 182.000 42.644,181.533 42.800,180.200 42.800 C 178.867 42.800,178.400 42.956,178.400 43.400 C 178.400 43.801,177.999 44.000,177.187 44.000 C 176.479 44.000,175.879 44.249,175.745 44.600 C 175.588 45.007,174.950 45.200,173.757 45.200 C 172.462 45.200,172.000 45.358,172.000 45.800 C 172.000 46.200,171.600 46.400,170.800 46.400 C 169.867 46.400,169.600 46.578,169.600 47.200 C 169.600 47.822,169.333 48.000,168.400 48.000 C 167.600 48.000,167.200 48.200,167.200 48.600 C 167.200 49.001,166.799 49.200,165.987 49.200 C 165.279 49.200,164.679 49.449,164.545 49.800 C 164.413 50.142,163.817 50.400,163.157 50.400 C 162.395 50.400,162.000 50.605,162.000 51.000 C 162.000 51.400,161.600 51.600,160.800 51.600 C 160.000 51.600,159.600 51.800,159.600 52.200 C 159.600 52.530,159.330 52.800,159.000 52.800 C 158.670 52.800,158.400 53.070,158.400 53.400 C 158.400 53.800,158.000 54.000,157.200 54.000 C 156.400 54.000,156.000 54.200,156.000 54.600 C 156.000 55.000,155.600 55.200,154.800 55.200 C 154.000 55.200,153.600 55.400,153.600 55.800 C 153.600 56.219,153.178 56.400,152.200 56.400 C 151.222 56.400,150.800 56.581,150.800 57.000 C 150.800 57.330,150.530 57.600,150.200 57.600 C 149.870 57.600,149.600 57.851,149.600 58.157 C 149.600 58.464,149.330 58.818,149.000 58.945 C 148.670 59.071,148.400 59.451,148.400 59.787 C 148.400 60.201,148.011 60.400,147.200 60.400 C 146.400 60.400,146.000 60.600,146.000 61.000 C 146.000 61.330,145.730 61.600,145.400 61.600 C 145.070 61.600,144.800 61.870,144.800 62.200 C 144.800 62.530,144.530 62.800,144.200 62.800 C 143.870 62.800,143.600 63.070,143.600 63.400 C 143.600 63.730,143.330 64.000,143.000 64.000 C 142.670 64.000,142.400 64.270,142.400 64.600 C 142.400 65.019,141.978 65.200,141.000 65.200 C 140.022 65.200,139.600 65.381,139.600 65.800 C 139.600 66.130,139.330 66.400,139.000 66.400 C 138.670 66.400,138.400 66.670,138.400 67.000 C 138.400 67.330,138.130 67.600,137.800 67.600 C 137.470 67.600,137.200 67.870,137.200 68.200 C 137.200 68.530,136.930 68.800,136.600 68.800 C 136.270 68.800,136.000 69.070,136.000 69.400 C 136.000 69.730,135.730 70.000,135.400 70.000 C 135.067 70.000,134.800 70.356,134.800 70.800 C 134.800 71.244,134.533 71.600,134.200 71.600 C 133.870 71.600,133.600 71.870,133.600 72.200 C 133.600 72.530,133.330 72.800,133.000 72.800 C 132.670 72.800,132.400 73.070,132.400 73.400 C 132.400 73.730,132.130 74.000,131.800 74.000 C 131.470 74.000,131.200 74.270,131.200 74.600 C 131.200 74.930,130.930 75.200,130.600 75.200 C 130.270 75.200,130.000 75.470,130.000 75.800 C 130.000 76.133,129.644 76.400,129.200 76.400 C 128.756 76.400,128.400 76.667,128.400 77.000 C 128.400 77.330,128.130 77.600,127.800 77.600 C 127.470 77.600,127.200 77.870,127.200 78.200 C 127.200 78.530,126.930 78.800,126.600 78.800 C 126.200 78.800,126.000 79.200,126.000 80.000 C 126.000 80.800,125.800 81.200,125.400 81.200 C 125.070 81.200,124.800 81.451,124.800 81.757 C 124.800 82.064,124.530 82.418,124.200 82.545 C 123.870 82.671,123.600 83.051,123.600 83.387 C 123.600 83.724,123.330 84.000,123.000 84.000 C 122.600 84.000,122.400 84.400,122.400 85.200 C 122.400 86.000,122.200 86.400,121.800 86.400 C 121.470 86.400,121.200 86.670,121.200 87.000 C 121.200 87.330,120.930 87.600,120.600 87.600 C 120.270 87.600,120.000 87.870,120.000 88.200 C 120.000 88.530,119.730 88.800,119.400 88.800 C 119.000 88.800,118.800 89.200,118.800 90.000 C 118.800 90.811,118.601 91.200,118.187 91.200 C 117.851 91.200,117.471 91.470,117.345 91.800 C 117.218 92.130,116.864 92.400,116.557 92.400 C 116.187 92.400,116.000 92.870,116.000 93.800 C 116.000 94.778,115.819 95.200,115.400 95.200 C 115.070 95.200,114.800 95.470,114.800 95.800 C 114.800 96.130,114.530 96.400,114.200 96.400 C 113.800 96.400,113.600 96.800,113.600 97.600 C 113.600 98.400,113.400 98.800,113.000 98.800 C 112.600 98.800,112.400 99.200,112.400 100.000 C 112.400 100.800,112.200 101.200,111.800 101.200 C 111.400 101.200,111.200 101.600,111.200 102.400 C 111.200 103.200,111.000 103.600,110.600 103.600 C 110.270 103.600,110.000 103.870,110.000 104.200 C 110.000 104.530,109.730 104.800,109.400 104.800 C 108.981 104.800,108.800 105.222,108.800 106.200 C 108.800 107.178,108.619 107.600,108.200 107.600 C 107.756 107.600,107.600 108.067,107.600 109.400 C 107.600 110.733,107.444 111.200,107.000 111.200 C 106.600 111.200,106.400 111.600,106.400 112.400 C 106.400 113.333,106.222 113.600,105.600 113.600 C 104.921 113.600,104.800 113.867,104.800 115.357 C 104.800 116.550,104.607 117.188,104.200 117.345 C 103.849 117.479,103.600 118.079,103.600 118.787 C 103.600 119.599,103.401 120.000,103.000 120.000 C 102.556 120.000,102.400 120.467,102.400 121.800 C 102.400 123.133,102.244 123.600,101.800 123.600 C 101.356 123.600,101.200 124.067,101.200 125.400 C 101.200 126.733,101.044 127.200,100.600 127.200 C 100.128 127.200,100.000 127.756,100.000 129.800 L 100.000 132.400 102.400 132.400 C 104.267 132.400,104.800 132.267,104.800 131.800 C 104.800 131.396,105.204 131.200,106.037 131.200 C 106.938 131.200,107.332 130.983,107.484 130.400 C 107.653 129.753,108.030 129.600,109.447 129.600 C 110.739 129.600,111.200 129.442,111.200 129.000 C 111.200 128.600,111.600 128.400,112.400 128.400 C 113.200 128.400,113.600 128.200,113.600 127.800 C 113.600 127.356,114.067 127.200,115.400 127.200 C 116.733 127.200,117.200 127.044,117.200 126.600 C 117.200 126.181,117.622 126.000,118.600 126.000 C 119.578 126.000,120.000 125.819,120.000 125.400 C 120.000 125.000,120.400 124.800,121.200 124.800 C 122.000 124.800,122.400 124.600,122.400 124.200 C 122.400 123.756,122.867 123.600,124.200 123.600 C 125.533 123.600,126.000 123.444,126.000 123.000 C 126.000 122.528,126.556 122.400,128.600 122.400 C 130.644 122.400,131.200 122.272,131.200 121.800 C 131.200 121.356,131.667 121.200,133.000 121.200 C 134.333 121.200,134.800 121.044,134.800 120.600 C 134.800 120.133,135.333 120.000,137.200 120.000 C 139.067 120.000,139.600 119.867,139.600 119.400 C 139.600 118.917,140.222 118.800,142.800 118.800 C 145.733 118.800,146.000 118.733,146.000 118.000 C 146.000 117.256,146.267 117.200,149.800 117.200 C 152.911 117.200,153.600 117.091,153.600 116.600 C 153.600 116.156,154.067 116.000,155.400 116.000 C 156.733 116.000,157.200 115.844,157.200 115.400 C 157.200 115.070,157.470 114.800,157.800 114.800 C 158.130 114.800,158.400 114.530,158.400 114.200 C 158.400 113.870,158.670 113.600,159.000 113.600 C 159.330 113.600,159.600 113.330,159.600 113.000 C 159.600 112.670,159.870 112.400,160.200 112.400 C 160.600 112.400,160.800 112.000,160.800 111.200 C 160.800 110.400,161.000 110.000,161.400 110.000 C 161.730 110.000,162.000 109.730,162.000 109.400 C 162.000 109.070,162.270 108.800,162.600 108.800 C 162.930 108.800,163.200 108.530,163.200 108.200 C 163.200 107.870,163.470 107.600,163.800 107.600 C 164.133 107.600,164.400 107.244,164.400 106.800 C 164.400 106.267,164.667 106.000,165.200 106.000 C 165.644 106.000,166.000 105.733,166.000 105.400 C 166.000 105.070,166.270 104.800,166.600 104.800 C 166.930 104.800,167.200 104.530,167.200 104.200 C 167.200 103.870,167.470 103.600,167.800 103.600 C 168.130 103.600,168.400 103.330,168.400 103.000 C 168.400 102.670,168.670 102.400,169.000 102.400 C 169.330 102.400,169.600 102.130,169.600 101.800 C 169.600 101.470,169.870 101.200,170.200 101.200 C 170.530 101.200,170.800 100.930,170.800 100.600 C 170.800 100.270,171.070 100.000,171.400 100.000 C 171.730 100.000,172.000 99.730,172.000 99.400 C 172.000 99.000,172.400 98.800,173.200 98.800 C 174.000 98.800,174.400 98.600,174.400 98.200 C 174.400 97.870,174.670 97.600,175.000 97.600 C 175.330 97.600,175.600 97.330,175.600 97.000 C 175.600 96.670,175.876 96.400,176.213 96.400 C 176.549 96.400,176.929 96.130,177.055 95.800 C 177.187 95.458,177.783 95.200,178.443 95.200 C 179.333 95.200,179.600 95.016,179.600 94.400 C 179.600 93.956,179.867 93.600,180.200 93.600 C 180.530 93.600,180.800 93.330,180.800 93.000 C 180.800 92.600,181.200 92.400,182.000 92.400 C 182.800 92.400,183.200 92.200,183.200 91.800 C 183.200 91.400,183.600 91.200,184.400 91.200 C 185.200 91.200,185.600 91.000,185.600 90.600 C 185.600 90.200,186.000 90.000,186.800 90.000 C 187.600 90.000,188.000 89.800,188.000 89.400 C 188.000 89.067,188.356 88.800,188.800 88.800 C 189.244 88.800,189.600 88.533,189.600 88.200 C 189.600 87.756,190.067 87.600,191.400 87.600 C 192.733 87.600,193.200 87.444,193.200 87.000 C 193.200 86.556,193.667 86.400,195.000 86.400 C 196.333 86.400,196.800 86.244,196.800 85.800 C 196.800 85.400,197.200 85.200,198.000 85.200 C 198.800 85.200,199.200 85.000,199.200 84.600 C 199.200 84.147,199.689 84.000,201.200 84.000 C 202.933 84.000,203.200 83.893,203.200 83.200 C 203.200 82.489,203.467 82.400,205.600 82.400 C 207.467 82.400,208.000 82.267,208.000 81.800 C 208.000 81.299,208.822 81.200,213.000 81.200 C 217.178 81.200,218.000 81.101,218.000 80.600 C 218.000 80.088,219.089 80.000,225.400 80.000 C 231.711 80.000,232.800 80.088,232.800 80.600 C 232.800 81.091,233.489 81.200,236.600 81.200 C 239.711 81.200,240.400 81.309,240.400 81.800 C 240.400 82.279,240.995 82.400,243.353 82.400 C 245.970 82.400,246.331 82.491,246.516 83.200 C 246.687 83.854,247.062 84.000,248.563 84.000 C 249.929 84.000,250.400 84.154,250.400 84.600 C 250.400 85.044,250.867 85.200,252.200 85.200 C 253.533 85.200,254.000 85.356,254.000 85.800 C 254.000 86.200,254.400 86.400,255.200 86.400 C 256.000 86.400,256.400 86.600,256.400 87.000 C 256.400 87.419,256.822 87.600,257.800 87.600 C 258.778 87.600,259.200 87.781,259.200 88.200 C 259.200 88.600,259.600 88.800,260.400 88.800 C 261.200 88.800,261.600 89.000,261.600 89.400 C 261.600 89.844,262.067 90.000,263.400 90.000 C 264.733 90.000,265.200 90.156,265.200 90.600 C 265.200 90.930,265.470 91.200,265.800 91.200 C 266.130 91.200,266.400 91.470,266.400 91.800 C 266.400 92.200,266.800 92.400,267.600 92.400 C 268.400 92.400,268.800 92.600,268.800 93.000 C 268.800 93.330,269.049 93.600,269.353 93.600 C 269.658 93.600,270.001 93.960,270.116 94.400 C 270.268 94.983,270.662 95.200,271.563 95.200 C 272.396 95.200,272.800 95.396,272.800 95.800 C 272.800 96.130,273.070 96.400,273.400 96.400 C 273.730 96.400,274.000 96.670,274.000 97.000 C 274.000 97.330,274.270 97.600,274.600 97.600 C 274.930 97.600,275.200 97.870,275.200 98.200 C 275.200 98.530,275.470 98.800,275.800 98.800 C 276.130 98.800,276.400 99.070,276.400 99.400 C 276.400 99.800,276.800 100.000,277.600 100.000 C 278.400 100.000,278.800 100.200,278.800 100.600 C 278.800 100.930,279.070 101.200,279.400 101.200 C 279.730 101.200,280.000 101.470,280.000 101.800 C 280.000 102.130,280.270 102.400,280.600 102.400 C 280.930 102.400,281.200 102.670,281.200 103.000 C 281.200 103.333,281.556 103.600,282.000 103.600 C 282.444 103.600,282.800 103.867,282.800 104.200 C 282.800 104.530,283.070 104.800,283.400 104.800 C 283.730 104.800,284.000 105.070,284.000 105.400 C 284.000 105.730,284.270 106.000,284.600 106.000 C 284.933 106.000,285.200 106.356,285.200 106.800 C 285.200 107.244,285.467 107.600,285.800 107.600 C 286.200 107.600,286.400 108.000,286.400 108.800 C 286.400 109.600,286.600 110.000,287.000 110.000 C 287.330 110.000,287.600 110.270,287.600 110.600 C 287.600 110.930,287.870 111.200,288.200 111.200 C 288.530 111.200,288.800 111.470,288.800 111.800 C 288.800 112.130,289.070 112.400,289.400 112.400 C 289.730 112.400,290.000 112.670,290.000 113.000 C 290.000 113.330,290.270 113.600,290.600 113.600 C 291.000 113.600,291.200 114.000,291.200 114.800 C 291.200 115.600,291.400 116.000,291.800 116.000 C 292.130 116.000,292.400 116.270,292.400 116.600 C 292.400 116.930,292.670 117.200,293.000 117.200 C 293.404 117.200,293.600 117.604,293.600 118.437 C 293.600 119.338,293.817 119.732,294.400 119.884 C 294.840 119.999,295.200 120.342,295.200 120.647 C 295.200 120.951,295.470 121.200,295.800 121.200 C 296.200 121.200,296.400 121.600,296.400 122.400 C 296.400 123.200,296.600 123.600,297.000 123.600 C 297.400 123.600,297.600 124.000,297.600 124.800 C 297.600 125.600,297.800 126.000,298.200 126.000 C 298.600 126.000,298.800 126.400,298.800 127.200 C 298.800 128.000,299.000 128.400,299.400 128.400 C 299.819 128.400,300.000 128.822,300.000 129.800 C 300.000 130.778,300.181 131.200,300.600 131.200 C 301.000 131.200,301.200 131.600,301.200 132.400 C 301.200 133.200,301.400 133.600,301.800 133.600 C 302.244 133.600,302.400 134.067,302.400 135.400 C 302.400 136.733,302.556 137.200,303.000 137.200 C 303.467 137.200,303.600 137.733,303.600 139.600 C 303.600 141.467,303.733 142.000,304.200 142.000 C 304.653 142.000,304.800 142.489,304.800 144.000 C 304.800 145.733,304.907 146.000,305.600 146.000 C 306.341 146.000,306.400 146.267,306.400 149.600 C 306.400 152.533,306.511 153.200,307.000 153.200 C 307.518 153.200,307.600 154.644,307.600 163.800 C 307.600 172.956,307.518 174.400,307.000 174.400 C 306.509 174.400,306.400 175.089,306.400 178.200 C 306.400 181.733,306.344 182.000,305.600 182.000 C 304.889 182.000,304.800 182.267,304.800 184.400 C 304.800 186.267,304.667 186.800,304.200 186.800 C 303.747 186.800,303.600 187.289,303.600 188.800 C 303.600 190.311,303.453 190.800,303.000 190.800 C 302.600 190.800,302.400 191.200,302.400 192.000 C 302.400 192.800,302.200 193.200,301.800 193.200 C 301.356 193.200,301.200 193.667,301.200 195.000 C 301.200 196.333,301.044 196.800,300.600 196.800 C 300.200 196.800,300.000 197.200,300.000 198.000 C 300.000 198.800,299.800 199.200,299.400 199.200 C 298.981 199.200,298.800 199.622,298.800 200.600 C 298.800 201.578,298.619 202.000,298.200 202.000 C 297.800 202.000,297.600 202.400,297.600 203.200 C 297.600 204.000,297.400 204.400,297.000 204.400 C 296.670 204.400,296.400 204.670,296.400 205.000 C 296.400 205.330,296.130 205.600,295.800 205.600 C 295.405 205.600,295.200 205.995,295.200 206.753 C 295.200 207.570,294.967 207.968,294.400 208.116 C 293.859 208.257,293.600 208.662,293.600 209.363 C 293.600 210.018,293.379 210.400,293.000 210.400 C 292.670 210.400,292.400 210.670,292.400 211.000 C 292.400 211.330,292.130 211.600,291.800 211.600 C 291.470 211.600,291.200 211.851,291.200 212.157 C 291.200 212.464,290.930 212.818,290.600 212.945 C 290.249 213.079,290.000 213.679,290.000 214.387 C 290.000 215.199,289.801 215.600,289.400 215.600 C 289.070 215.600,288.800 215.870,288.800 216.200 C 288.800 216.530,288.530 216.800,288.200 216.800 C 287.870 216.800,287.600 217.070,287.600 217.400 C 287.600 217.730,287.330 218.000,287.000 218.000 C 286.670 218.000,286.400 218.270,286.400 218.600 C 286.400 218.930,286.130 219.200,285.800 219.200 C 285.470 219.200,285.200 219.470,285.200 219.800 C 285.200 220.130,284.930 220.400,284.600 220.400 C 284.270 220.400,284.000 220.670,284.000 221.000 C 284.000 221.330,283.730 221.600,283.400 221.600 C 283.070 221.600,282.800 221.870,282.800 222.200 C 282.800 222.530,282.575 222.803,282.300 222.807 C 281.690 222.815,280.000 224.542,280.000 225.156 C 280.000 225.400,279.730 225.600,279.400 225.600 C 279.070 225.600,278.800 225.870,278.800 226.200 C 278.800 226.530,278.530 226.800,278.200 226.800 C 277.870 226.800,277.600 227.070,277.600 227.400 C 277.600 227.730,277.330 228.000,277.000 228.000 C 276.670 228.000,276.400 228.270,276.400 228.600 C 276.400 229.000,276.000 229.200,275.200 229.200 C 274.400 229.200,274.000 229.400,274.000 229.800 C 274.000 230.130,273.730 230.400,273.400 230.400 C 273.070 230.400,272.800 230.670,272.800 231.000 C 272.800 231.330,272.530 231.600,272.200 231.600 C 271.870 231.600,271.600 231.870,271.600 232.200 C 271.600 232.619,271.178 232.800,270.200 232.800 C 269.222 232.800,268.800 232.981,268.800 233.400 C 268.800 233.730,268.530 234.000,268.200 234.000 C 267.870 234.000,267.600 234.270,267.600 234.600 C 267.600 235.000,267.200 235.200,266.400 235.200 C 265.600 235.200,265.200 235.400,265.200 235.800 C 265.200 236.200,264.800 236.400,264.000 236.400 C 263.067 236.400,262.800 236.578,262.800 237.200 C 262.800 237.822,262.533 238.000,261.600 238.000 C 260.800 238.000,260.400 238.200,260.400 238.600 C 260.400 238.930,260.130 239.200,259.800 239.200 C 259.470 239.200,259.200 239.470,259.200 239.800 C 259.200 240.253,258.711 240.400,257.200 240.400 C 255.689 240.400,255.200 240.547,255.200 241.000 C 255.200 241.400,254.800 241.600,254.000 241.600 C 253.200 241.600,252.800 241.800,252.800 242.200 C 252.800 242.644,252.333 242.800,251.000 242.800 L 249.200 242.800 249.200 256.400 C 249.200 268.222,249.122 270.000,248.600 270.000 C 248.117 270.000,248.000 270.622,248.000 273.200 C 248.000 276.133,247.933 276.400,247.200 276.400 C 246.489 276.400,246.400 276.667,246.400 278.800 C 246.400 280.667,246.267 281.200,245.800 281.200 C 245.347 281.200,245.200 281.689,245.200 283.200 C 245.200 284.711,245.053 285.200,244.600 285.200 C 244.120 285.200,244.000 285.800,244.000 288.200 L 244.000 291.200 245.200 291.200 C 246.000 291.200,246.400 291.000,246.400 290.600 C 246.400 290.117,247.022 290.000,249.600 290.000 C 252.178 290.000,252.800 289.883,252.800 289.400 C 252.800 288.933,253.333 288.800,255.200 288.800 C 257.067 288.800,257.600 288.667,257.600 288.200 C 257.600 287.747,258.089 287.600,259.600 287.600 C 261.111 287.600,261.600 287.453,261.600 287.000 C 261.600 286.533,262.133 286.400,264.000 286.400 C 265.867 286.400,266.400 286.267,266.400 285.800 C 266.400 285.356,266.867 285.200,268.200 285.200 C 269.733 285.200,270.000 285.081,270.000 284.400 C 270.000 283.752,270.267 283.600,271.400 283.600 C 272.378 283.600,272.800 283.419,272.800 283.000 C 272.800 282.556,273.267 282.400,274.600 282.400 C 275.933 282.400,276.400 282.244,276.400 281.800 C 276.400 281.400,276.800 281.200,277.600 281.200 C 278.400 281.200,278.800 281.000,278.800 280.600 C 278.800 280.200,279.200 280.000,280.000 280.000 C 280.800 280.000,281.200 279.800,281.200 279.400 C 281.200 278.981,281.622 278.800,282.600 278.800 C 283.578 278.800,284.000 278.619,284.000 278.200 C 284.000 277.800,284.400 277.600,285.200 277.600 C 286.000 277.600,286.400 277.400,286.400 277.000 C 286.400 276.600,286.800 276.400,287.600 276.400 C 288.400 276.400,288.800 276.200,288.800 275.800 C 288.800 275.400,289.200 275.200,290.000 275.200 C 290.800 275.200,291.200 275.000,291.200 274.600 C 291.200 274.270,291.470 274.000,291.800 274.000 C 292.130 274.000,292.400 273.730,292.400 273.400 C 292.400 272.996,292.804 272.800,293.637 272.800 C 294.538 272.800,294.932 272.583,295.084 272.000 C 295.199 271.560,295.542 271.200,295.847 271.200 C 296.151 271.200,296.400 270.930,296.400 270.600 C 296.400 270.200,296.800 270.000,297.600 270.000 C 298.400 270.000,298.800 269.800,298.800 269.400 C 298.800 269.070,299.070 268.800,299.400 268.800 C 299.730 268.800,300.000 268.530,300.000 268.200 C 300.000 267.870,300.270 267.600,300.600 267.600 C 300.930 267.600,301.200 267.330,301.200 267.000 C 301.200 266.600,301.600 266.400,302.400 266.400 C 303.200 266.400,303.600 266.200,303.600 265.800 C 303.600 265.470,303.870 265.200,304.200 265.200 C 304.530 265.200,304.800 264.930,304.800 264.600 C 304.800 264.181,305.222 264.000,306.200 264.000 C 307.178 264.000,307.600 263.819,307.600 263.400 C 307.600 263.070,307.870 262.800,308.200 262.800 C 308.530 262.800,308.800 262.530,308.800 262.200 C 308.800 261.870,309.070 261.600,309.400 261.600 C 309.733 261.600,310.000 261.244,310.000 260.800 C 310.000 260.356,310.267 260.000,310.600 260.000 C 310.930 260.000,311.200 259.730,311.200 259.400 C 311.200 259.070,311.470 258.800,311.800 258.800 C 312.130 258.800,312.400 258.530,312.400 258.200 C 312.400 257.870,312.670 257.600,313.000 257.600 C 313.330 257.600,313.600 257.330,313.600 257.000 C 313.600 256.670,313.870 256.400,314.200 256.400 C 314.530 256.400,314.800 256.130,314.800 255.800 C 314.800 255.470,315.070 255.200,315.400 255.200 C 315.730 255.200,316.000 254.930,316.000 254.600 C 316.000 254.270,316.270 254.000,316.600 254.000 C 316.930 254.000,317.200 253.730,317.200 253.400 C 317.200 253.067,317.556 252.800,318.000 252.800 C 318.444 252.800,318.800 252.533,318.800 252.200 C 318.800 251.870,319.070 251.600,319.400 251.600 C 319.730 251.600,320.000 251.330,320.000 251.000 C 320.000 250.670,320.270 250.400,320.600 250.400 C 320.930 250.400,321.200 250.130,321.200 249.800 C 321.200 249.470,321.470 249.200,321.800 249.200 C 322.133 249.200,322.400 248.844,322.400 248.400 C 322.400 247.956,322.667 247.600,323.000 247.600 C 323.330 247.600,323.600 247.330,323.600 247.000 C 323.600 246.670,323.870 246.400,324.200 246.400 C 324.600 246.400,324.800 246.000,324.800 245.200 C 324.800 244.400,325.000 244.000,325.400 244.000 C 325.730 244.000,326.000 243.730,326.000 243.400 C 326.000 243.070,326.270 242.800,326.600 242.800 C 326.930 242.800,327.200 242.530,327.200 242.200 C 327.200 241.870,327.470 241.600,327.800 241.600 C 328.130 241.600,328.400 241.330,328.400 241.000 C 328.400 240.667,328.756 240.400,329.200 240.400 C 329.816 240.400,330.000 240.133,330.000 239.243 C 330.000 238.583,330.258 237.987,330.600 237.855 C 330.930 237.729,331.200 237.349,331.200 237.013 C 331.200 236.676,331.470 236.400,331.800 236.400 C 332.200 236.400,332.400 236.000,332.400 235.200 C 332.400 234.400,332.600 234.000,333.000 234.000 C 333.330 234.000,333.600 233.730,333.600 233.400 C 333.600 233.070,333.870 232.800,334.200 232.800 C 334.600 232.800,334.800 232.400,334.800 231.600 C 334.800 230.800,335.000 230.400,335.400 230.400 C 335.800 230.400,336.000 230.000,336.000 229.200 C 336.000 228.400,336.200 228.000,336.600 228.000 C 336.930 228.000,337.200 227.730,337.200 227.400 C 337.200 227.070,337.470 226.800,337.800 226.800 C 338.219 226.800,338.400 226.378,338.400 225.400 C 338.400 224.422,338.581 224.000,339.000 224.000 C 339.400 224.000,339.600 223.600,339.600 222.800 C 339.600 222.000,339.800 221.600,340.200 221.600 C 340.600 221.600,340.800 221.200,340.800 220.400 C 340.800 219.467,340.978 219.200,341.600 219.200 C 342.222 219.200,342.400 218.933,342.400 218.000 C 342.400 217.200,342.600 216.800,343.000 216.800 C 343.453 216.800,343.600 216.311,343.600 214.800 C 343.600 213.289,343.747 212.800,344.200 212.800 C 344.600 212.800,344.800 212.400,344.800 211.600 C 344.800 210.800,345.000 210.400,345.400 210.400 C 345.800 210.400,346.000 210.000,346.000 209.200 C 346.000 208.400,346.200 208.000,346.600 208.000 C 347.044 208.000,347.200 207.533,347.200 206.200 C 347.200 204.867,347.356 204.400,347.800 204.400 C 348.272 204.400,348.400 203.844,348.400 201.800 C 348.400 199.756,348.528 199.200,349.000 199.200 C 349.467 199.200,349.600 198.667,349.600 196.800 C 349.600 194.933,349.733 194.400,350.200 194.400 C 350.644 194.400,350.800 193.933,350.800 192.600 C 350.800 191.267,350.956 190.800,351.400 190.800 C 351.897 190.800,352.000 190.044,352.000 186.400 C 352.000 182.267,352.048 182.000,352.800 182.000 C 353.557 182.000,353.600 181.733,353.600 177.000 C 353.600 172.822,353.699 172.000,354.200 172.000 C 354.644 172.000,354.800 171.533,354.800 170.200 C 354.800 168.867,354.644 168.400,354.200 168.400 C 353.681 168.400,353.600 166.889,353.600 157.200 C 353.600 146.267,353.581 146.000,352.800 146.000 C 352.056 146.000,352.000 145.733,352.000 142.200 C 352.000 139.089,351.891 138.400,351.400 138.400 C 350.920 138.400,350.800 137.800,350.800 135.400 C 350.800 133.000,350.680 132.400,350.200 132.400 C 349.747 132.400,349.600 131.911,349.600 130.400 C 349.600 128.889,349.453 128.400,349.000 128.400 C 348.533 128.400,348.400 127.867,348.400 126.000 C 348.400 124.133,348.267 123.600,347.800 123.600 C 347.356 123.600,347.200 123.133,347.200 121.800 C 347.200 120.467,347.044 120.000,346.600 120.000 C 346.147 120.000,346.000 119.511,346.000 118.000 C 346.000 116.489,345.853 116.000,345.400 116.000 C 345.000 116.000,344.800 115.600,344.800 114.800 C 344.800 114.000,344.600 113.600,344.200 113.600 C 343.800 113.600,343.600 113.200,343.600 112.400 C 343.600 111.600,343.400 111.200,343.000 111.200 C 342.600 111.200,342.400 110.800,342.400 110.000 C 342.400 109.067,342.222 108.800,341.600 108.800 C 340.952 108.800,340.800 108.533,340.800 107.400 C 340.800 106.422,340.619 106.000,340.200 106.000 C 339.756 106.000,339.600 105.533,339.600 104.200 C 339.600 102.867,339.444 102.400,339.000 102.400 C 338.670 102.400,338.400 102.130,338.400 101.800 C 338.400 101.470,338.130 101.200,337.800 101.200 C 337.400 101.200,337.200 100.800,337.200 100.000 C 337.200 99.200,337.000 98.800,336.600 98.800 C 336.200 98.800,336.000 98.400,336.000 97.600 C 336.000 96.800,335.800 96.400,335.400 96.400 C 335.070 96.400,334.800 96.130,334.800 95.800 C 334.800 95.470,334.530 95.200,334.200 95.200 C 333.781 95.200,333.600 94.778,333.600 93.800 C 333.600 92.822,333.419 92.400,333.000 92.400 C 332.670 92.400,332.400 92.130,332.400 91.800 C 332.400 91.470,332.130 91.200,331.800 91.200 C 331.400 91.200,331.200 90.800,331.200 90.000 C 331.200 89.200,331.000 88.800,330.600 88.800 C 330.270 88.800,330.000 88.530,330.000 88.200 C 330.000 87.867,329.644 87.600,329.200 87.600 C 328.578 87.600,328.400 87.333,328.400 86.400 C 328.400 85.600,328.200 85.200,327.800 85.200 C 327.470 85.200,327.200 84.930,327.200 84.600 C 327.200 84.270,326.930 84.000,326.600 84.000 C 326.267 84.000,326.000 83.644,326.000 83.200 C 326.000 82.756,325.733 82.400,325.400 82.400 C 325.070 82.400,324.800 82.130,324.800 81.800 C 324.800 81.470,324.530 81.200,324.200 81.200 C 323.870 81.200,323.600 80.930,323.600 80.600 C 323.600 80.270,323.330 80.000,323.000 80.000 C 322.600 80.000,322.400 79.600,322.400 78.800 C 322.400 78.000,322.200 77.600,321.800 77.600 C 321.470 77.600,321.200 77.330,321.200 77.000 C 321.200 76.670,320.930 76.400,320.600 76.400 C 320.270 76.400,320.000 76.130,320.000 75.800 C 320.000 75.470,319.730 75.200,319.400 75.200 C 319.070 75.200,318.800 74.930,318.800 74.600 C 318.800 74.267,318.444 74.000,318.000 74.000 C 317.556 74.000,317.200 73.733,317.200 73.400 C 317.200 73.070,316.930 72.800,316.600 72.800 C 316.270 72.800,316.000 72.530,316.000 72.200 C 316.000 71.870,315.730 71.600,315.400 71.600 C 315.067 71.600,314.800 71.244,314.800 70.800 C 314.800 70.356,314.533 70.000,314.200 70.000 C 313.870 70.000,313.600 69.730,313.600 69.400 C 313.600 69.070,313.330 68.800,313.000 68.800 C 312.670 68.800,312.400 68.530,312.400 68.200 C 312.400 67.870,312.130 67.600,311.800 67.600 C 311.470 67.600,311.200 67.330,311.200 67.000 C 311.200 66.600,310.800 66.400,310.000 66.400 C 309.200 66.400,308.800 66.200,308.800 65.800 C 308.800 65.470,308.530 65.200,308.200 65.200 C 307.870 65.200,307.600 64.930,307.600 64.600 C 307.600 64.270,307.330 64.000,307.000 64.000 C 306.670 64.000,306.400 63.730,306.400 63.400 C 306.400 63.067,306.044 62.800,305.600 62.800 C 305.156 62.800,304.800 62.533,304.800 62.200 C 304.800 61.870,304.530 61.600,304.200 61.600 C 303.870 61.600,303.600 61.330,303.600 61.000 C 303.600 60.600,303.200 60.400,302.400 60.400 C 301.589 60.400,301.200 60.201,301.200 59.787 C 301.200 59.451,300.930 59.071,300.600 58.945 C 300.270 58.818,300.000 58.464,300.000 58.157 C 300.000 57.805,299.559 57.600,298.800 57.600 C 298.000 57.600,297.600 57.400,297.600 57.000 C 297.600 56.670,297.330 56.400,297.000 56.400 C 296.670 56.400,296.400 56.130,296.400 55.800 C 296.400 55.381,295.978 55.200,295.000 55.200 C 294.022 55.200,293.600 55.019,293.600 54.600 C 293.600 54.270,293.330 54.000,293.000 54.000 C 292.670 54.000,292.400 53.730,292.400 53.400 C 292.400 53.000,292.000 52.800,291.200 52.800 C 290.400 52.800,290.000 52.600,290.000 52.200 C 290.000 51.800,289.600 51.600,288.800 51.600 C 288.000 51.600,287.600 51.400,287.600 51.000 C 287.600 50.600,287.200 50.400,286.400 50.400 C 285.600 50.400,285.200 50.200,285.200 49.800 C 285.200 49.400,284.800 49.200,284.000 49.200 C 283.200 49.200,282.800 49.000,282.800 48.600 C 282.800 48.181,282.378 48.000,281.400 48.000 C 280.267 48.000,280.000 47.848,280.000 47.200 C 280.000 46.578,279.733 46.400,278.800 46.400 C 278.000 46.400,277.600 46.200,277.600 45.800 C 277.600 45.400,277.200 45.200,276.400 45.200 C 275.600 45.200,275.200 45.000,275.200 44.600 C 275.200 44.156,274.733 44.000,273.400 44.000 C 272.067 44.000,271.600 43.844,271.600 43.400 C 271.600 42.947,271.111 42.800,269.600 42.800 C 268.089 42.800,267.600 42.653,267.600 42.200 C 267.600 41.756,267.133 41.600,265.800 41.600 C 264.467 41.600,264.000 41.444,264.000 41.000 C 264.000 40.556,263.533 40.400,262.200 40.400 C 260.867 40.400,260.400 40.244,260.400 39.800 C 260.400 39.328,259.844 39.200,257.800 39.200 C 255.756 39.200,255.200 39.072,255.200 38.600 C 255.200 38.120,254.600 38.000,252.200 38.000 C 249.800 38.000,249.200 37.880,249.200 37.400 C 249.200 36.909,248.511 36.800,245.400 36.800 C 242.419 36.800,241.600 36.680,241.600 36.243 C 241.600 35.936,241.315 35.576,240.967 35.443 C 240.212 35.153,209.221 35.174,208.500 35.465 M219.200 127.800 C 219.200 128.280,218.600 128.400,216.200 128.400 C 213.800 128.400,213.200 128.520,213.200 129.000 C 213.200 129.404,212.796 129.600,211.963 129.600 C 211.062 129.600,210.668 129.817,210.516 130.400 C 210.347 131.047,209.970 131.200,208.553 131.200 C 207.261 131.200,206.800 131.358,206.800 131.800 C 206.800 132.200,206.400 132.400,205.600 132.400 C 204.800 132.400,204.400 132.600,204.400 133.000 C 204.400 133.330,204.130 133.600,203.800 133.600 C 203.470 133.600,203.200 133.870,203.200 134.200 C 203.200 134.600,202.800 134.800,202.000 134.800 C 201.200 134.800,200.800 135.000,200.800 135.400 C 200.800 135.733,200.444 136.000,200.000 136.000 C 199.556 136.000,199.200 136.267,199.200 136.600 C 199.200 136.930,198.930 137.200,198.600 137.200 C 198.270 137.200,198.000 137.470,198.000 137.800 C 198.000 138.130,197.730 138.400,197.400 138.400 C 197.070 138.400,196.800 138.670,196.800 139.000 C 196.800 139.330,196.530 139.600,196.200 139.600 C 195.781 139.600,195.600 140.022,195.600 141.000 C 195.600 141.978,195.419 142.400,195.000 142.400 C 194.670 142.400,194.400 142.670,194.400 143.000 C 194.400 143.330,194.130 143.600,193.800 143.600 C 193.470 143.600,193.200 143.870,193.200 144.200 C 193.200 144.530,192.930 144.800,192.600 144.800 C 192.156 144.800,192.000 145.267,192.000 146.600 C 192.000 147.933,191.844 148.400,191.400 148.400 C 191.000 148.400,190.800 148.800,190.800 149.600 C 190.800 150.400,190.600 150.800,190.200 150.800 C 189.747 150.800,189.600 151.289,189.600 152.800 C 189.600 154.311,189.453 154.800,189.000 154.800 C 188.505 154.800,188.400 155.533,188.400 159.000 C 188.400 162.933,188.349 163.200,187.600 163.200 C 186.978 163.200,186.800 163.467,186.800 164.400 C 186.800 165.333,186.978 165.600,187.600 165.600 C 188.352 165.600,188.400 165.867,188.400 170.000 C 188.400 173.644,188.503 174.400,189.000 174.400 C 189.400 174.400,189.600 174.800,189.600 175.600 C 189.600 176.400,189.800 176.800,190.200 176.800 C 190.653 176.800,190.800 177.289,190.800 178.800 C 190.800 180.311,190.947 180.800,191.400 180.800 C 191.800 180.800,192.000 181.200,192.000 182.000 C 192.000 182.800,192.200 183.200,192.600 183.200 C 192.930 183.200,193.200 183.470,193.200 183.800 C 193.200 184.130,193.470 184.400,193.800 184.400 C 194.200 184.400,194.400 184.800,194.400 185.600 C 194.400 186.400,194.600 186.800,195.000 186.800 C 195.330 186.800,195.600 187.070,195.600 187.400 C 195.600 187.730,195.870 188.000,196.200 188.000 C 196.530 188.000,196.800 188.270,196.800 188.600 C 196.800 188.930,197.070 189.200,197.400 189.200 C 197.730 189.200,198.003 189.425,198.007 189.700 C 198.019 190.560,199.865 192.000,200.956 192.000 C 201.617 192.000,202.000 192.220,202.000 192.600 C 202.000 192.930,202.270 193.200,202.600 193.200 C 202.930 193.200,203.200 193.470,203.200 193.800 C 203.200 194.130,203.470 194.400,203.800 194.400 C 204.130 194.400,204.400 194.670,204.400 195.000 C 204.400 195.400,204.800 195.600,205.600 195.600 C 206.400 195.600,206.800 195.800,206.800 196.200 C 206.800 196.644,207.267 196.800,208.600 196.800 C 209.933 196.800,210.400 196.956,210.400 197.400 C 210.400 197.819,210.822 198.000,211.800 198.000 C 212.778 198.000,213.200 198.181,213.200 198.600 C 213.200 199.080,213.800 199.200,216.200 199.200 C 218.600 199.200,219.200 199.320,219.200 199.800 C 219.200 200.301,220.022 200.400,224.200 200.400 C 228.378 200.400,229.200 200.301,229.200 199.800 C 229.200 199.309,229.889 199.200,233.000 199.200 C 236.111 199.200,236.800 199.091,236.800 198.600 C 236.800 198.200,237.200 198.000,238.000 198.000 C 238.800 198.000,239.200 197.800,239.200 197.400 C 239.200 197.000,239.600 196.800,240.400 196.800 C 241.200 196.800,241.600 196.600,241.600 196.200 C 241.600 195.800,242.000 195.600,242.800 195.600 C 243.600 195.600,244.000 195.400,244.000 195.000 C 244.000 194.600,244.400 194.400,245.200 194.400 C 246.000 194.400,246.400 194.200,246.400 193.800 C 246.400 193.467,246.756 193.200,247.200 193.200 C 247.644 193.200,248.000 192.933,248.000 192.600 C 248.000 192.270,248.270 192.000,248.600 192.000 C 248.930 192.000,249.200 191.730,249.200 191.400 C 249.200 191.070,249.470 190.800,249.800 190.800 C 250.133 190.800,250.400 190.444,250.400 190.000 C 250.400 189.556,250.667 189.200,251.000 189.200 C 251.330 189.200,251.600 188.930,251.600 188.600 C 251.600 188.270,251.870 188.000,252.200 188.000 C 252.530 188.000,252.800 187.730,252.800 187.400 C 252.800 187.070,253.070 186.800,253.400 186.800 C 253.730 186.800,254.000 186.530,254.000 186.200 C 254.000 185.870,254.270 185.600,254.600 185.600 C 255.000 185.600,255.200 185.200,255.200 184.400 C 255.200 183.600,255.400 183.200,255.800 183.200 C 256.130 183.200,256.400 182.930,256.400 182.600 C 256.400 182.270,256.670 182.000,257.000 182.000 C 257.395 182.000,257.600 181.605,257.600 180.847 C 257.600 180.030,257.833 179.632,258.400 179.484 C 259.054 179.313,259.200 178.938,259.200 177.437 C 259.200 176.071,259.354 175.600,259.800 175.600 C 260.267 175.600,260.400 175.067,260.400 173.200 C 260.400 171.333,260.533 170.800,261.000 170.800 C 261.510 170.800,261.600 169.778,261.600 164.000 C 261.600 158.222,261.510 157.200,261.000 157.200 C 260.528 157.200,260.400 156.644,260.400 154.600 C 260.400 152.556,260.272 152.000,259.800 152.000 C 259.421 152.000,259.200 151.618,259.200 150.963 C 259.200 150.262,258.941 149.857,258.400 149.716 C 257.753 149.547,257.600 149.170,257.600 147.753 C 257.600 146.461,257.442 146.000,257.000 146.000 C 256.670 146.000,256.400 145.730,256.400 145.400 C 256.400 145.070,256.130 144.800,255.800 144.800 C 255.400 144.800,255.200 144.400,255.200 143.600 C 255.200 142.800,255.000 142.400,254.600 142.400 C 254.267 142.400,254.000 142.044,254.000 141.600 C 254.000 141.156,253.733 140.800,253.400 140.800 C 253.070 140.800,252.800 140.530,252.800 140.200 C 252.800 139.870,252.530 139.600,252.200 139.600 C 251.800 139.600,251.600 139.200,251.600 138.400 C 251.600 137.333,251.467 137.200,250.400 137.200 C 249.600 137.200,249.200 137.000,249.200 136.600 C 249.200 136.270,248.930 136.000,248.600 136.000 C 248.270 136.000,248.000 135.730,248.000 135.400 C 248.000 135.067,247.644 134.800,247.200 134.800 C 246.756 134.800,246.400 134.533,246.400 134.200 C 246.400 133.800,246.000 133.600,245.200 133.600 C 244.400 133.600,244.000 133.400,244.000 133.000 C 244.000 132.670,243.730 132.400,243.400 132.400 C 243.070 132.400,242.800 132.130,242.800 131.800 C 242.800 131.358,242.339 131.200,241.047 131.200 C 239.630 131.200,239.253 131.047,239.084 130.400 C 238.946 129.871,238.538 129.600,237.880 129.600 C 237.333 129.600,236.782 129.330,236.655 129.000 C 236.474 128.528,235.655 128.400,232.813 128.400 C 229.868 128.400,229.200 128.289,229.200 127.800 C 229.200 127.299,228.378 127.200,224.200 127.200 C 220.022 127.200,219.200 127.299,219.200 127.800 " stroke="none" fill="#f4c64b" fill-rule="evenodd"></path><path id="path1" d="M143.600 130.435 C 143.600 131.110,143.294 131.200,141.000 131.200 C 138.956 131.200,138.400 131.328,138.400 131.800 C 138.400 132.244,137.933 132.400,136.600 132.400 C 135.267 132.400,134.800 132.556,134.800 133.000 C 134.800 133.467,134.267 133.600,132.400 133.600 C 130.533 133.600,130.000 133.733,130.000 134.200 C 130.000 134.653,129.511 134.800,128.000 134.800 C 126.489 134.800,126.000 134.947,126.000 135.400 C 126.000 135.844,125.533 136.000,124.200 136.000 C 122.867 136.000,122.400 136.156,122.400 136.600 C 122.400 137.000,122.000 137.200,121.200 137.200 C 120.400 137.200,120.000 137.400,120.000 137.800 C 120.000 138.253,119.511 138.400,118.000 138.400 C 116.489 138.400,116.000 138.547,116.000 139.000 C 116.000 139.400,115.600 139.600,114.800 139.600 C 114.000 139.600,113.600 139.800,113.600 140.200 C 113.600 140.600,113.200 140.800,112.400 140.800 C 111.467 140.800,111.200 140.978,111.200 141.600 C 111.200 142.222,110.933 142.400,110.000 142.400 C 109.200 142.400,108.800 142.600,108.800 143.000 C 108.800 143.400,108.400 143.600,107.600 143.600 C 106.800 143.600,106.400 143.800,106.400 144.200 C 106.400 144.619,105.978 144.800,105.000 144.800 C 104.022 144.800,103.600 144.981,103.600 145.400 C 103.600 145.800,103.200 146.000,102.400 146.000 C 101.600 146.000,101.200 146.200,101.200 146.600 C 101.200 146.930,100.930 147.200,100.600 147.200 C 100.270 147.200,100.000 147.470,100.000 147.800 C 100.000 148.200,99.600 148.400,98.800 148.400 C 98.000 148.400,97.600 148.600,97.600 149.000 C 97.600 149.400,97.200 149.600,96.400 149.600 C 95.600 149.600,95.200 149.800,95.200 150.200 C 95.200 150.530,94.924 150.800,94.587 150.800 C 94.251 150.800,93.871 151.070,93.745 151.400 C 93.618 151.730,93.264 152.000,92.957 152.000 C 92.651 152.000,92.400 152.270,92.400 152.600 C 92.400 153.114,91.403 153.422,90.300 153.247 C 90.135 153.221,90.000 153.560,90.000 154.000 C 90.000 154.444,89.733 154.800,89.400 154.800 C 89.070 154.800,88.800 155.070,88.800 155.400 C 88.800 155.730,88.530 156.000,88.200 156.000 C 87.870 156.000,87.600 156.270,87.600 156.600 C 87.600 157.000,87.200 157.200,86.400 157.200 C 85.600 157.200,85.200 157.400,85.200 157.800 C 85.200 158.130,84.930 158.400,84.600 158.400 C 84.270 158.400,84.000 158.670,84.000 159.000 C 84.000 159.330,83.730 159.600,83.400 159.600 C 83.070 159.600,82.800 159.870,82.800 160.200 C 82.800 160.533,82.444 160.800,82.000 160.800 C 81.560 160.800,81.200 160.974,81.200 161.187 C 81.200 161.690,78.490 164.400,77.987 164.400 C 77.774 164.400,77.600 164.676,77.600 165.013 C 77.600 165.349,77.330 165.729,77.000 165.855 C 76.670 165.982,76.400 166.336,76.400 166.643 C 76.400 166.949,76.130 167.200,75.800 167.200 C 75.470 167.200,75.200 167.470,75.200 167.800 C 75.200 168.130,74.930 168.400,74.600 168.400 C 74.270 168.400,74.000 168.670,74.000 169.000 C 74.000 169.330,73.730 169.600,73.400 169.600 C 73.070 169.600,72.800 169.870,72.800 170.200 C 72.800 170.530,72.530 170.800,72.200 170.800 C 71.870 170.800,71.600 171.049,71.600 171.353 C 71.600 171.658,71.235 172.002,70.789 172.119 C 70.342 172.236,70.004 172.482,70.036 172.666 C 70.208 173.644,69.931 174.400,69.400 174.400 C 69.070 174.400,68.800 174.670,68.800 175.000 C 68.800 175.330,68.530 175.600,68.200 175.600 C 67.870 175.600,67.600 175.870,67.600 176.200 C 67.600 176.530,67.330 176.800,67.000 176.800 C 66.667 176.800,66.400 177.156,66.400 177.600 C 66.400 178.044,66.133 178.400,65.800 178.400 C 65.400 178.400,65.200 178.800,65.200 179.600 C 65.200 180.400,65.000 180.800,64.600 180.800 C 64.270 180.800,64.000 181.070,64.000 181.400 C 64.000 181.730,63.730 182.000,63.400 182.000 C 63.000 182.000,62.800 182.400,62.800 183.200 C 62.800 184.000,62.600 184.400,62.200 184.400 C 61.870 184.400,61.600 184.670,61.600 185.000 C 61.600 185.330,61.330 185.600,61.000 185.600 C 60.670 185.600,60.400 185.870,60.400 186.200 C 60.400 186.530,60.130 186.800,59.800 186.800 C 59.405 186.800,59.200 187.195,59.200 187.953 C 59.200 188.770,58.967 189.168,58.400 189.316 C 57.817 189.468,57.600 189.862,57.600 190.763 C 57.600 191.596,57.404 192.000,57.000 192.000 C 56.600 192.000,56.400 192.400,56.400 193.200 C 56.400 194.000,56.200 194.400,55.800 194.400 C 55.400 194.400,55.200 194.800,55.200 195.600 C 55.200 196.400,55.000 196.800,54.600 196.800 C 54.270 196.800,54.000 197.070,54.000 197.400 C 54.000 197.730,53.730 198.000,53.400 198.000 C 53.000 198.000,52.800 198.400,52.800 199.200 C 52.800 200.000,52.600 200.400,52.200 200.400 C 51.781 200.400,51.600 200.822,51.600 201.800 C 51.600 202.778,51.419 203.200,51.000 203.200 C 50.556 203.200,50.400 203.667,50.400 205.000 C 50.400 206.333,50.244 206.800,49.800 206.800 C 49.356 206.800,49.200 207.267,49.200 208.600 C 49.200 209.933,49.044 210.400,48.600 210.400 C 48.205 210.400,48.000 210.795,48.000 211.553 C 48.000 212.370,47.767 212.768,47.200 212.916 C 46.546 213.087,46.400 213.462,46.400 214.963 C 46.400 216.329,46.246 216.800,45.800 216.800 C 45.356 216.800,45.200 217.267,45.200 218.600 C 45.200 219.933,45.044 220.400,44.600 220.400 C 44.128 220.400,44.000 220.956,44.000 223.000 C 44.000 225.044,43.872 225.600,43.400 225.600 C 42.933 225.600,42.800 226.133,42.800 228.000 C 42.800 229.867,42.667 230.400,42.200 230.400 C 41.709 230.400,41.600 231.089,41.600 234.200 C 41.600 237.311,41.491 238.000,41.000 238.000 C 40.490 238.000,40.400 239.022,40.400 244.800 C 40.400 250.578,40.310 251.600,39.800 251.600 C 39.290 251.600,39.200 252.622,39.200 258.400 C 39.200 264.178,39.290 265.200,39.800 265.200 C 40.308 265.200,40.400 266.156,40.400 271.400 C 40.400 276.644,40.492 277.600,41.000 277.600 C 41.480 277.600,41.600 278.200,41.600 280.600 C 41.600 283.000,41.720 283.600,42.200 283.600 C 42.672 283.600,42.800 284.156,42.800 286.200 C 42.800 288.244,42.928 288.800,43.400 288.800 C 43.867 288.800,44.000 289.333,44.000 291.200 C 44.000 293.067,44.133 293.600,44.600 293.600 C 45.043 293.600,45.200 294.064,45.200 295.380 C 45.200 296.521,45.409 297.277,45.781 297.485 C 46.101 297.664,46.409 298.510,46.467 299.365 C 46.541 300.465,46.781 300.974,47.286 301.107 C 47.834 301.250,48.000 301.700,48.000 303.047 C 48.000 304.339,48.158 304.800,48.600 304.800 C 49.000 304.800,49.200 305.200,49.200 306.000 C 49.200 306.800,49.400 307.200,49.800 307.200 C 50.219 307.200,50.400 307.622,50.400 308.600 C 50.400 309.578,50.581 310.000,51.000 310.000 C 51.444 310.000,51.600 310.467,51.600 311.800 C 51.600 313.133,51.756 313.600,52.200 313.600 C 52.600 313.600,52.800 314.000,52.800 314.800 C 52.800 315.600,53.000 316.000,53.400 316.000 C 53.800 316.000,54.000 316.400,54.000 317.200 C 54.000 318.000,54.200 318.400,54.600 318.400 C 55.019 318.400,55.200 318.822,55.200 319.800 C 55.200 320.778,55.381 321.200,55.800 321.200 C 56.130 321.200,56.400 321.470,56.400 321.800 C 56.400 322.130,56.670 322.400,57.000 322.400 C 57.400 322.400,57.600 322.800,57.600 323.600 C 57.600 324.533,57.778 324.800,58.400 324.800 C 58.844 324.800,59.200 325.067,59.200 325.400 C 59.200 325.730,59.470 326.000,59.800 326.000 C 60.200 326.000,60.400 326.400,60.400 327.200 C 60.400 328.000,60.600 328.400,61.000 328.400 C 61.400 328.400,61.600 328.800,61.600 329.600 C 61.600 330.400,61.800 330.800,62.200 330.800 C 62.533 330.800,62.800 331.156,62.800 331.600 C 62.800 332.044,63.067 332.400,63.400 332.400 C 63.730 332.400,64.000 332.670,64.000 333.000 C 64.000 333.330,64.270 333.600,64.600 333.600 C 65.000 333.600,65.200 334.000,65.200 334.800 C 65.200 335.600,65.400 336.000,65.800 336.000 C 66.130 336.000,66.400 336.270,66.400 336.600 C 66.400 336.930,66.670 337.200,67.000 337.200 C 67.330 337.200,67.600 337.470,67.600 337.800 C 67.600 338.130,67.870 338.400,68.200 338.400 C 68.530 338.400,68.800 338.670,68.800 339.000 C 68.800 339.330,69.070 339.600,69.400 339.600 C 69.914 339.600,70.222 340.597,70.047 341.700 C 70.021 341.865,70.360 342.000,70.800 342.000 C 71.244 342.000,71.600 342.267,71.600 342.600 C 71.600 342.930,71.870 343.200,72.200 343.200 C 72.533 343.200,72.800 343.556,72.800 344.000 C 72.800 344.444,73.067 344.800,73.400 344.800 C 73.730 344.800,74.000 345.070,74.000 345.400 C 74.000 345.730,74.270 346.000,74.600 346.000 C 74.930 346.000,75.200 346.270,75.200 346.600 C 75.200 346.930,75.470 347.200,75.800 347.200 C 76.130 347.200,76.400 347.470,76.400 347.800 C 76.400 348.130,76.670 348.400,77.000 348.400 C 77.330 348.400,77.600 348.670,77.600 349.000 C 77.600 349.330,77.870 349.600,78.200 349.600 C 78.530 349.600,78.800 349.870,78.800 350.200 C 78.800 350.530,79.070 350.800,79.400 350.800 C 79.730 350.800,80.000 351.070,80.000 351.400 C 80.000 351.730,80.251 352.000,80.557 352.000 C 80.864 352.000,81.218 352.270,81.345 352.600 C 81.479 352.951,82.079 353.200,82.787 353.200 C 83.599 353.200,84.000 353.399,84.000 353.800 C 84.000 354.130,84.270 354.400,84.600 354.400 C 84.933 354.400,85.200 354.756,85.200 355.200 C 85.200 355.644,85.467 356.000,85.800 356.000 C 86.130 356.000,86.400 356.270,86.400 356.600 C 86.400 356.930,86.670 357.200,87.000 357.200 C 87.330 357.200,87.600 357.470,87.600 357.800 C 87.600 358.200,88.000 358.400,88.800 358.400 C 89.600 358.400,90.000 358.600,90.000 359.000 C 90.000 359.330,90.270 359.600,90.600 359.600 C 90.930 359.600,91.200 359.870,91.200 360.200 C 91.200 360.530,91.451 360.800,91.757 360.800 C 92.064 360.800,92.418 361.070,92.545 361.400 C 92.679 361.751,93.279 362.000,93.987 362.000 C 94.799 362.000,95.200 362.199,95.200 362.600 C 95.200 362.930,95.470 363.200,95.800 363.200 C 96.130 363.200,96.400 363.470,96.400 363.800 C 96.400 364.200,96.800 364.400,97.600 364.400 C 98.400 364.400,98.800 364.600,98.800 365.000 C 98.800 365.400,99.200 365.600,100.000 365.600 C 100.800 365.600,101.200 365.800,101.200 366.200 C 101.200 366.530,101.470 366.800,101.800 366.800 C 102.133 366.800,102.400 367.156,102.400 367.600 C 102.400 368.216,102.667 368.400,103.557 368.400 C 104.217 368.400,104.813 368.658,104.945 369.000 C 105.079 369.351,105.679 369.600,106.387 369.600 C 107.199 369.600,107.600 369.799,107.600 370.200 C 107.600 370.600,108.000 370.800,108.800 370.800 C 109.600 370.800,110.000 371.000,110.000 371.400 C 110.000 371.800,110.400 372.000,111.200 372.000 C 112.000 372.000,112.400 372.200,112.400 372.600 C 112.400 373.000,112.800 373.200,113.600 373.200 C 114.400 373.200,114.800 373.400,114.800 373.800 C 114.800 374.195,115.195 374.400,115.957 374.400 C 116.617 374.400,117.213 374.658,117.345 375.000 C 117.479 375.351,118.079 375.600,118.787 375.600 C 119.599 375.600,120.000 375.799,120.000 376.200 C 120.000 376.644,120.467 376.800,121.800 376.800 C 123.133 376.800,123.600 376.956,123.600 377.400 C 123.600 377.842,124.061 378.000,125.353 378.000 C 126.770 378.000,127.147 378.153,127.316 378.800 C 127.487 379.454,127.862 379.600,129.363 379.600 C 130.729 379.600,131.200 379.754,131.200 380.200 C 131.200 380.667,131.733 380.800,133.600 380.800 C 135.467 380.800,136.000 380.933,136.000 381.400 C 136.000 381.867,136.535 382.000,138.413 382.000 C 140.188 382.000,140.886 382.158,141.055 382.600 C 141.231 383.058,141.983 383.200,144.243 383.200 C 146.605 383.200,147.200 383.321,147.200 383.800 C 147.200 384.301,148.022 384.400,152.200 384.400 C 156.378 384.400,157.200 384.499,157.200 385.000 C 157.200 385.520,158.778 385.600,169.000 385.600 C 179.222 385.600,180.800 385.520,180.800 385.000 C 180.800 384.503,181.556 384.400,185.200 384.400 C 188.844 384.400,189.600 384.297,189.600 383.800 C 189.600 383.311,190.267 383.200,193.200 383.200 C 196.133 383.200,196.800 383.089,196.800 382.600 C 196.800 382.128,197.356 382.000,199.400 382.000 C 201.444 382.000,202.000 381.872,202.000 381.400 C 202.000 380.933,202.533 380.800,204.400 380.800 C 206.267 380.800,206.800 380.667,206.800 380.200 C 206.800 379.756,207.267 379.600,208.600 379.600 C 210.133 379.600,210.400 379.481,210.400 378.800 C 210.400 378.107,210.667 378.000,212.400 378.000 C 213.911 378.000,214.400 377.853,214.400 377.400 C 214.400 377.000,214.800 376.800,215.600 376.800 C 216.400 376.800,216.800 376.600,216.800 376.200 C 216.800 375.756,217.267 375.600,218.600 375.600 C 219.933 375.600,220.400 375.444,220.400 375.000 C 220.400 374.600,220.800 374.400,221.600 374.400 C 222.400 374.400,222.800 374.200,222.800 373.800 C 222.800 373.381,223.222 373.200,224.200 373.200 C 225.178 373.200,225.600 373.019,225.600 372.600 C 225.600 372.200,226.000 372.000,226.800 372.000 C 227.600 372.000,228.000 371.800,228.000 371.400 C 228.000 371.000,228.400 370.800,229.200 370.800 C 230.000 370.800,230.400 370.600,230.400 370.200 C 230.400 369.800,230.800 369.600,231.600 369.600 C 232.400 369.600,232.800 369.400,232.800 369.000 C 232.800 368.596,233.204 368.400,234.037 368.400 C 234.938 368.400,235.332 368.183,235.484 367.600 C 235.599 367.160,235.942 366.800,236.247 366.800 C 236.551 366.800,236.800 366.530,236.800 366.200 C 236.800 365.800,237.200 365.600,238.000 365.600 C 238.800 365.600,239.200 365.400,239.200 365.000 C 239.200 364.670,239.470 364.400,239.800 364.400 C 240.130 364.400,240.400 364.130,240.400 363.800 C 240.400 363.400,240.800 363.200,241.600 363.200 C 242.400 363.200,242.800 363.000,242.800 362.600 C 242.800 362.270,243.070 362.000,243.400 362.000 C 243.730 362.000,244.000 361.730,244.000 361.400 C 244.000 361.000,244.400 360.800,245.200 360.800 C 246.000 360.800,246.400 360.600,246.400 360.200 C 246.400 359.867,246.756 359.600,247.200 359.600 C 247.644 359.600,248.000 359.333,248.000 359.000 C 248.000 358.670,248.270 358.400,248.600 358.400 C 248.930 358.400,249.200 358.130,249.200 357.800 C 249.200 357.470,249.470 357.200,249.800 357.200 C 250.130 357.200,250.400 356.930,250.400 356.600 C 250.400 356.200,250.800 356.000,251.600 356.000 C 252.533 356.000,252.800 355.822,252.800 355.200 C 252.800 354.756,253.067 354.400,253.400 354.400 C 253.730 354.400,254.000 354.130,254.000 353.800 C 254.000 353.470,254.270 353.200,254.600 353.200 C 254.930 353.200,255.200 352.930,255.200 352.600 C 255.200 352.270,255.470 352.000,255.800 352.000 C 256.130 352.000,256.400 351.730,256.400 351.400 C 256.400 351.070,256.670 350.800,257.000 350.800 C 257.330 350.800,257.600 350.530,257.600 350.200 C 257.600 349.867,257.956 349.600,258.400 349.600 C 258.844 349.600,259.200 349.333,259.200 349.000 C 259.200 348.670,259.470 348.400,259.800 348.400 C 260.130 348.400,260.400 348.130,260.400 347.800 C 260.400 347.470,260.670 347.200,261.000 347.200 C 261.330 347.200,261.600 346.930,261.600 346.600 C 261.600 346.270,261.870 346.000,262.200 346.000 C 262.530 346.000,262.800 345.730,262.800 345.400 C 262.800 345.070,263.070 344.800,263.400 344.800 C 263.733 344.800,264.000 344.444,264.000 344.000 C 264.000 343.556,264.267 343.200,264.600 343.200 C 264.930 343.200,265.200 342.930,265.200 342.600 C 265.200 342.270,265.470 342.000,265.800 342.000 C 266.130 342.000,266.400 341.730,266.400 341.400 C 266.400 341.070,266.670 340.800,267.000 340.800 C 267.330 340.800,267.600 340.530,267.600 340.200 C 267.600 339.870,267.870 339.600,268.200 339.600 C 268.600 339.600,268.800 339.200,268.800 338.400 C 268.800 337.600,269.000 337.200,269.400 337.200 C 269.730 337.200,270.000 336.930,270.000 336.600 C 270.000 336.267,270.356 336.000,270.800 336.000 C 271.244 336.000,271.600 335.733,271.600 335.400 C 271.600 335.070,271.870 334.800,272.200 334.800 C 272.600 334.800,272.800 334.400,272.800 333.600 C 272.800 332.800,273.000 332.400,273.400 332.400 C 273.733 332.400,274.000 332.044,274.000 331.600 C 274.000 331.156,274.267 330.800,274.600 330.800 C 274.930 330.800,275.200 330.530,275.200 330.200 C 275.200 329.870,275.470 329.600,275.800 329.600 C 276.200 329.600,276.400 329.200,276.400 328.400 C 276.400 327.600,276.600 327.200,277.000 327.200 C 277.330 327.200,277.600 326.930,277.600 326.600 C 277.600 326.270,277.870 326.000,278.200 326.000 C 278.600 326.000,278.800 325.600,278.800 324.800 C 278.800 324.000,279.000 323.600,279.400 323.600 C 279.800 323.600,280.000 323.200,280.000 322.400 C 280.000 321.600,280.200 321.200,280.600 321.200 C 281.019 321.200,281.200 320.778,281.200 319.800 C 281.200 318.667,281.352 318.400,282.000 318.400 C 282.444 318.400,282.800 318.133,282.800 317.800 C 282.800 317.470,283.070 317.200,283.400 317.200 C 283.800 317.200,284.000 316.800,284.000 316.000 C 284.000 315.200,284.200 314.800,284.600 314.800 C 285.000 314.800,285.200 314.400,285.200 313.600 C 285.200 312.800,285.400 312.400,285.800 312.400 C 286.195 312.400,286.400 312.005,286.400 311.243 C 286.400 310.583,286.658 309.987,287.000 309.855 C 287.411 309.698,287.600 309.055,287.600 307.813 C 287.600 306.468,287.755 306.000,288.200 306.000 C 288.600 306.000,288.800 305.600,288.800 304.800 C 288.800 304.000,289.000 303.600,289.400 303.600 C 289.844 303.600,290.000 303.133,290.000 301.800 C 290.000 300.467,290.156 300.000,290.600 300.000 C 291.053 300.000,291.200 299.511,291.200 298.000 C 291.200 296.489,291.347 296.000,291.800 296.000 C 292.200 296.000,292.400 295.600,292.400 294.800 C 292.400 294.000,292.600 293.600,293.000 293.600 C 293.480 293.600,293.600 293.000,293.600 290.600 L 293.600 287.600 291.200 287.600 C 289.333 287.600,288.800 287.733,288.800 288.200 C 288.800 288.600,288.400 288.800,287.600 288.800 C 286.800 288.800,286.400 289.000,286.400 289.400 C 286.400 289.800,286.000 290.000,285.200 290.000 C 284.400 290.000,284.000 290.200,284.000 290.600 C 284.000 291.019,283.578 291.200,282.600 291.200 C 281.622 291.200,281.200 291.381,281.200 291.800 C 281.200 292.200,280.800 292.400,280.000 292.400 C 279.200 292.400,278.800 292.600,278.800 293.000 C 278.800 293.444,278.333 293.600,277.000 293.600 C 275.667 293.600,275.200 293.756,275.200 294.200 C 275.200 294.600,274.800 294.800,274.000 294.800 C 273.200 294.800,272.800 295.000,272.800 295.400 C 272.800 295.816,272.381 296.000,271.433 296.000 C 269.671 296.000,268.800 296.345,268.800 297.043 C 268.800 297.437,268.272 297.600,267.000 297.600 C 265.667 297.600,265.200 297.756,265.200 298.200 C 265.200 298.667,264.667 298.800,262.800 298.800 C 260.933 298.800,260.400 298.933,260.400 299.400 C 260.400 299.853,259.911 300.000,258.400 300.000 C 256.889 300.000,256.400 300.147,256.400 300.600 C 256.400 301.080,255.800 301.200,253.400 301.200 C 251.000 301.200,250.400 301.320,250.400 301.800 C 250.400 302.291,249.711 302.400,246.600 302.400 C 243.489 302.400,242.800 302.509,242.800 303.000 C 242.800 303.480,242.200 303.600,239.800 303.600 C 237.400 303.600,236.800 303.720,236.800 304.200 C 236.800 304.530,236.530 304.800,236.200 304.800 C 235.870 304.800,235.600 305.049,235.600 305.353 C 235.600 305.658,235.240 306.001,234.800 306.116 C 234.217 306.268,234.000 306.662,234.000 307.563 C 234.000 308.396,233.804 308.800,233.400 308.800 C 233.070 308.800,232.800 309.070,232.800 309.400 C 232.800 309.730,232.530 310.000,232.200 310.000 C 231.870 310.000,231.600 310.270,231.600 310.600 C 231.600 310.930,231.330 311.200,231.000 311.200 C 230.670 311.200,230.400 311.470,230.400 311.800 C 230.400 312.130,230.130 312.400,229.800 312.400 C 229.470 312.400,229.200 312.670,229.200 313.000 C 229.200 313.330,228.930 313.600,228.600 313.600 C 228.270 313.600,228.000 313.870,228.000 314.200 C 228.000 314.530,227.730 314.800,227.400 314.800 C 227.070 314.800,226.800 315.070,226.800 315.400 C 226.800 315.730,226.530 316.000,226.200 316.000 C 225.870 316.000,225.600 316.270,225.600 316.600 C 225.600 316.930,225.330 317.200,225.000 317.200 C 224.670 317.200,224.400 317.470,224.400 317.800 C 224.400 318.130,224.196 318.400,223.946 318.400 C 223.412 318.400,221.600 320.270,221.600 320.821 C 221.600 321.029,221.330 321.200,221.000 321.200 C 220.670 321.200,220.400 321.470,220.400 321.800 C 220.400 322.200,220.000 322.400,219.200 322.400 C 218.400 322.400,218.000 322.600,218.000 323.000 C 218.000 323.330,217.730 323.600,217.400 323.600 C 217.070 323.600,216.800 323.870,216.800 324.200 C 216.800 324.530,216.530 324.800,216.200 324.800 C 215.870 324.800,215.600 325.070,215.600 325.400 C 215.600 325.800,215.200 326.000,214.400 326.000 C 213.600 326.000,213.200 326.200,213.200 326.600 C 213.200 326.930,212.930 327.200,212.600 327.200 C 212.270 327.200,212.000 327.470,212.000 327.800 C 212.000 328.219,211.578 328.400,210.600 328.400 C 209.622 328.400,209.200 328.581,209.200 329.000 C 209.200 329.400,208.800 329.600,208.000 329.600 C 207.200 329.600,206.800 329.800,206.800 330.200 C 206.800 330.600,206.400 330.800,205.600 330.800 C 204.667 330.800,204.400 330.978,204.400 331.600 C 204.400 332.044,204.133 332.400,203.800 332.400 C 203.470 332.400,203.200 332.670,203.200 333.000 C 203.200 333.453,202.711 333.600,201.200 333.600 C 199.689 333.600,199.200 333.747,199.200 334.200 C 199.200 334.644,198.733 334.800,197.400 334.800 C 196.067 334.800,195.600 334.956,195.600 335.400 C 195.600 335.800,195.200 336.000,194.400 336.000 C 193.600 336.000,193.200 336.200,193.200 336.600 C 193.200 337.080,192.599 337.200,190.187 337.200 C 187.879 337.200,187.121 337.340,186.945 337.800 C 186.776 338.239,186.084 338.400,184.357 338.400 C 182.529 338.400,182.000 338.535,182.000 339.000 C 182.000 339.521,180.289 339.600,169.000 339.600 C 157.711 339.600,156.000 339.521,156.000 339.000 C 156.000 338.517,155.378 338.400,152.800 338.400 C 150.222 338.400,149.600 338.283,149.600 337.800 C 149.600 337.356,149.133 337.200,147.800 337.200 C 146.467 337.200,146.000 337.044,146.000 336.600 C 146.000 336.156,145.533 336.000,144.200 336.000 C 142.867 336.000,142.400 335.844,142.400 335.400 C 142.400 334.947,141.911 334.800,140.400 334.800 C 138.889 334.800,138.400 334.653,138.400 334.200 C 138.400 333.800,138.000 333.600,137.200 333.600 C 136.400 333.600,136.000 333.400,136.000 333.000 C 136.000 332.600,135.600 332.400,134.800 332.400 C 133.867 332.400,133.600 332.222,133.600 331.600 C 133.600 330.978,133.333 330.800,132.400 330.800 C 131.600 330.800,131.200 330.600,131.200 330.200 C 131.200 329.781,130.778 329.600,129.800 329.600 C 128.822 329.600,128.400 329.419,128.400 329.000 C 128.400 328.600,128.000 328.400,127.200 328.400 C 126.400 328.400,126.000 328.200,126.000 327.800 C 126.000 327.400,125.600 327.200,124.800 327.200 C 124.000 327.200,123.600 327.000,123.600 326.600 C 123.600 326.270,123.330 326.000,123.000 326.000 C 122.670 326.000,122.400 325.730,122.400 325.400 C 122.400 325.070,122.130 324.800,121.800 324.800 C 121.470 324.800,121.200 324.530,121.200 324.200 C 121.200 323.800,120.800 323.600,120.000 323.600 C 119.200 323.600,118.800 323.400,118.800 323.000 C 118.800 322.667,118.444 322.400,118.000 322.400 C 117.556 322.400,117.200 322.133,117.200 321.800 C 117.200 321.470,116.930 321.200,116.600 321.200 C 116.270 321.200,116.000 320.967,116.000 320.681 C 116.000 320.396,115.468 319.721,114.817 319.181 C 114.166 318.642,113.626 317.975,113.617 317.700 C 113.608 317.425,113.330 317.200,113.000 317.200 C 112.670 317.200,112.400 316.930,112.400 316.600 C 112.400 316.270,112.130 316.000,111.800 316.000 C 111.470 316.000,111.200 315.730,111.200 315.400 C 111.200 315.070,110.930 314.800,110.600 314.800 C 110.270 314.800,110.000 314.530,110.000 314.200 C 110.000 313.800,109.600 313.600,108.800 313.600 C 107.733 313.600,107.600 313.467,107.600 312.400 C 107.600 311.600,107.400 311.200,107.000 311.200 C 106.670 311.200,106.400 310.930,106.400 310.600 C 106.400 310.267,106.044 310.000,105.600 310.000 C 105.156 310.000,104.800 309.733,104.800 309.400 C 104.800 309.070,104.530 308.800,104.200 308.800 C 103.867 308.800,103.600 308.444,103.600 308.000 C 103.600 307.556,103.333 307.200,103.000 307.200 C 102.600 307.200,102.400 306.800,102.400 306.000 C 102.400 305.200,102.200 304.800,101.800 304.800 C 101.470 304.800,101.200 304.530,101.200 304.200 C 101.200 303.870,100.930 303.600,100.600 303.600 C 100.270 303.600,100.000 303.330,100.000 303.000 C 100.000 302.670,99.730 302.400,99.400 302.400 C 99.000 302.400,98.800 302.000,98.800 301.200 C 98.800 300.400,98.600 300.000,98.200 300.000 C 97.800 300.000,97.600 299.600,97.600 298.800 C 97.600 298.000,97.400 297.600,97.000 297.600 C 96.581 297.600,96.400 297.178,96.400 296.200 C 96.400 295.222,96.219 294.800,95.800 294.800 C 95.400 294.800,95.200 294.400,95.200 293.600 C 95.200 292.667,95.022 292.400,94.400 292.400 C 93.778 292.400,93.600 292.133,93.600 291.200 C 93.600 290.400,93.400 290.000,93.000 290.000 C 92.600 290.000,92.400 289.600,92.400 288.800 C 92.400 288.000,92.200 287.600,91.800 287.600 C 91.347 287.600,91.200 287.111,91.200 285.600 C 91.200 284.089,91.053 283.600,90.600 283.600 C 90.156 283.600,90.000 283.133,90.000 281.800 C 90.000 280.467,89.844 280.000,89.400 280.000 C 88.933 280.000,88.800 279.467,88.800 277.600 C 88.800 275.733,88.667 275.200,88.200 275.200 C 87.728 275.200,87.600 274.644,87.600 272.600 C 87.600 270.556,87.472 270.000,87.000 270.000 C 86.480 270.000,86.400 268.356,86.400 257.600 C 86.400 246.844,86.480 245.200,87.000 245.200 C 87.480 245.200,87.600 244.600,87.600 242.200 C 87.600 239.800,87.720 239.200,88.200 239.200 C 88.672 239.200,88.800 238.644,88.800 236.600 C 88.800 234.556,88.928 234.000,89.400 234.000 C 89.844 234.000,90.000 233.533,90.000 232.200 C 90.000 230.867,90.156 230.400,90.600 230.400 C 91.044 230.400,91.200 229.933,91.200 228.600 C 91.200 227.267,91.356 226.800,91.800 226.800 C 92.253 226.800,92.400 226.311,92.400 224.800 C 92.400 223.289,92.547 222.800,93.000 222.800 C 93.400 222.800,93.600 222.400,93.600 221.600 C 93.600 220.667,93.778 220.400,94.400 220.400 C 95.022 220.400,95.200 220.133,95.200 219.200 C 95.200 218.400,95.400 218.000,95.800 218.000 C 96.130 218.000,96.400 217.730,96.400 217.400 C 96.400 217.070,96.670 216.800,97.000 216.800 C 97.395 216.800,97.600 216.405,97.600 215.643 C 97.600 214.983,97.858 214.387,98.200 214.255 C 98.551 214.121,98.800 213.521,98.800 212.813 C 98.800 212.001,98.999 211.600,99.400 211.600 C 99.730 211.600,100.000 211.330,100.000 211.000 C 100.000 210.670,100.270 210.400,100.600 210.400 C 101.000 210.400,101.200 210.000,101.200 209.200 C 101.200 208.400,101.400 208.000,101.800 208.000 C 102.130 208.000,102.400 207.730,102.400 207.400 C 102.400 207.070,102.670 206.800,103.000 206.800 C 103.400 206.800,103.600 206.400,103.600 205.600 C 103.600 204.800,103.800 204.400,104.200 204.400 C 104.530 204.400,104.800 204.130,104.800 203.800 C 104.800 203.470,105.000 203.200,105.244 203.200 C 105.858 203.200,107.585 201.510,107.593 200.900 C 107.597 200.625,107.870 200.400,108.200 200.400 C 108.530 200.400,108.800 200.130,108.800 199.800 C 108.800 199.470,109.070 199.200,109.400 199.200 C 109.730 199.200,110.000 198.930,110.000 198.600 C 110.000 198.270,110.270 198.000,110.600 198.000 C 110.930 198.000,111.200 197.730,111.200 197.400 C 111.200 197.070,111.470 196.800,111.800 196.800 C 112.130 196.800,112.400 196.530,112.400 196.200 C 112.400 195.870,112.670 195.600,113.000 195.600 C 113.330 195.600,113.600 195.330,113.600 195.000 C 113.600 194.670,113.870 194.400,114.200 194.400 C 114.530 194.400,114.800 194.130,114.800 193.800 C 114.800 193.470,115.070 193.200,115.400 193.200 C 115.730 193.200,116.000 192.930,116.000 192.600 C 116.000 192.220,116.383 192.000,117.044 192.000 C 118.135 192.000,119.981 190.560,119.993 189.700 C 119.997 189.425,120.270 189.200,120.600 189.200 C 120.930 189.200,121.200 188.930,121.200 188.600 C 121.200 188.200,121.600 188.000,122.400 188.000 C 123.200 188.000,123.600 187.800,123.600 187.400 C 123.600 187.070,123.870 186.800,124.200 186.800 C 124.530 186.800,124.800 186.530,124.800 186.200 C 124.800 185.800,125.200 185.600,126.000 185.600 C 126.800 185.600,127.200 185.400,127.200 185.000 C 127.200 184.581,127.622 184.400,128.600 184.400 C 129.578 184.400,130.000 184.219,130.000 183.800 C 130.000 183.470,130.270 183.200,130.600 183.200 C 130.930 183.200,131.200 182.930,131.200 182.600 C 131.200 182.156,131.667 182.000,133.000 182.000 C 134.333 182.000,134.800 181.844,134.800 181.400 C 134.800 181.000,135.200 180.800,136.000 180.800 C 136.800 180.800,137.200 180.600,137.200 180.200 C 137.200 179.800,137.600 179.600,138.400 179.600 C 139.200 179.600,139.600 179.400,139.600 179.000 C 139.600 178.547,140.089 178.400,141.600 178.400 C 143.333 178.400,143.600 178.293,143.600 177.600 C 143.600 177.156,143.867 176.800,144.200 176.800 C 144.689 176.800,144.800 176.133,144.800 173.200 C 144.800 170.267,144.689 169.600,144.200 169.600 C 143.709 169.600,143.600 168.911,143.600 165.800 C 143.600 162.689,143.709 162.000,144.200 162.000 C 144.705 162.000,144.800 161.111,144.800 156.400 C 144.800 151.689,144.895 150.800,145.400 150.800 C 145.880 150.800,146.000 150.200,146.000 147.800 C 146.000 145.400,146.120 144.800,146.600 144.800 C 147.053 144.800,147.200 144.311,147.200 142.800 C 147.200 141.289,147.347 140.800,147.800 140.800 C 148.267 140.800,148.400 140.267,148.400 138.400 C 148.400 136.533,148.533 136.000,149.000 136.000 C 149.444 136.000,149.600 135.533,149.600 134.200 C 149.600 132.867,149.756 132.400,150.200 132.400 C 150.616 132.400,150.800 131.982,150.800 131.035 L 150.800 129.670 147.200 129.670 C 143.921 129.670,143.600 129.738,143.600 130.435 M159.600 221.000 C 159.600 221.444,159.133 221.600,157.800 221.600 C 156.467 221.600,156.000 221.756,156.000 222.200 C 156.000 222.600,155.600 222.800,154.800 222.800 C 154.000 222.800,153.600 223.000,153.600 223.400 C 153.600 223.804,153.196 224.000,152.363 224.000 C 151.462 224.000,151.068 224.217,150.916 224.800 C 150.768 225.367,150.370 225.600,149.553 225.600 C 148.795 225.600,148.400 225.805,148.400 226.200 C 148.400 226.600,148.000 226.800,147.200 226.800 C 146.400 226.800,146.000 227.000,146.000 227.400 C 146.000 227.730,145.730 228.000,145.400 228.000 C 145.070 228.000,144.800 228.270,144.800 228.600 C 144.800 228.930,144.530 229.200,144.200 229.200 C 143.870 229.200,143.600 229.470,143.600 229.800 C 143.600 230.130,143.330 230.400,143.000 230.400 C 142.670 230.400,142.400 230.670,142.400 231.000 C 142.400 231.330,142.149 231.600,141.843 231.600 C 141.536 231.600,141.182 231.870,141.055 232.200 C 140.929 232.530,140.549 232.800,140.213 232.800 C 139.799 232.800,139.600 233.189,139.600 234.000 C 139.600 234.800,139.400 235.200,139.000 235.200 C 138.670 235.200,138.400 235.451,138.400 235.757 C 138.400 236.064,138.130 236.418,137.800 236.545 C 137.449 236.679,137.200 237.279,137.200 237.987 C 137.200 238.799,137.001 239.200,136.600 239.200 C 136.200 239.200,136.000 239.600,136.000 240.400 C 136.000 241.200,135.800 241.600,135.400 241.600 C 135.000 241.600,134.800 242.000,134.800 242.800 C 134.800 243.600,134.600 244.000,134.200 244.000 C 133.728 244.000,133.600 244.556,133.600 246.600 C 133.600 248.644,133.472 249.200,133.000 249.200 C 132.487 249.200,132.400 250.356,132.400 257.200 C 132.400 264.044,132.487 265.200,133.000 265.200 C 133.444 265.200,133.600 265.667,133.600 267.000 C 133.600 268.333,133.756 268.800,134.200 268.800 C 134.653 268.800,134.800 269.289,134.800 270.800 C 134.800 272.311,134.947 272.800,135.400 272.800 C 135.800 272.800,136.000 273.200,136.000 274.000 C 136.000 274.800,136.200 275.200,136.600 275.200 C 136.930 275.200,137.200 275.470,137.200 275.800 C 137.200 276.130,137.470 276.400,137.800 276.400 C 138.200 276.400,138.400 276.800,138.400 277.600 C 138.400 278.284,138.615 278.807,138.900 278.817 C 139.175 278.826,139.842 279.366,140.381 280.017 C 140.921 280.668,141.596 281.200,141.881 281.200 C 142.167 281.200,142.400 281.470,142.400 281.800 C 142.400 282.130,142.670 282.400,143.000 282.400 C 143.330 282.400,143.600 282.670,143.600 283.000 C 143.600 283.330,143.870 283.600,144.200 283.600 C 144.533 283.600,144.800 283.956,144.800 284.400 C 144.800 284.844,145.067 285.200,145.400 285.200 C 145.730 285.200,146.000 285.470,146.000 285.800 C 146.000 286.200,146.400 286.400,147.200 286.400 C 148.000 286.400,148.400 286.600,148.400 287.000 C 148.400 287.330,148.670 287.600,149.000 287.600 C 149.330 287.600,149.600 287.870,149.600 288.200 C 149.600 288.653,150.089 288.800,151.600 288.800 C 153.111 288.800,153.600 288.947,153.600 289.400 C 153.600 289.800,154.000 290.000,154.800 290.000 C 155.600 290.000,156.000 290.200,156.000 290.600 C 156.000 291.044,156.467 291.200,157.800 291.200 C 159.133 291.200,159.600 291.356,159.600 291.800 C 159.600 292.316,160.911 292.400,169.000 292.400 C 177.089 292.400,178.400 292.316,178.400 291.800 C 178.400 291.356,178.867 291.200,180.200 291.200 C 181.533 291.200,182.000 291.044,182.000 290.600 C 182.000 290.156,182.467 290.000,183.800 290.000 C 185.133 290.000,185.600 289.844,185.600 289.400 C 185.600 289.000,186.000 288.800,186.800 288.800 C 187.600 288.800,188.000 288.600,188.000 288.200 C 188.000 287.867,188.356 287.600,188.800 287.600 C 189.244 287.600,189.600 287.333,189.600 287.000 C 189.600 286.670,189.870 286.400,190.200 286.400 C 190.530 286.400,190.800 286.130,190.800 285.800 C 190.800 285.400,191.200 285.200,192.000 285.200 C 192.933 285.200,193.200 285.022,193.200 284.400 C 193.200 283.956,193.467 283.600,193.800 283.600 C 194.130 283.600,194.400 283.330,194.400 283.000 C 194.400 282.670,194.670 282.400,195.000 282.400 C 195.330 282.400,195.600 282.130,195.600 281.800 C 195.600 281.470,195.870 281.200,196.200 281.200 C 196.530 281.200,196.800 280.930,196.800 280.600 C 196.800 280.270,197.070 280.000,197.400 280.000 C 197.800 280.000,198.000 279.600,198.000 278.800 C 198.000 278.000,198.200 277.600,198.600 277.600 C 198.930 277.600,199.200 277.330,199.200 277.000 C 199.200 276.667,199.556 276.400,200.000 276.400 C 200.444 276.400,200.800 276.133,200.800 275.800 C 200.800 275.470,201.070 275.200,201.400 275.200 C 201.800 275.200,202.000 274.800,202.000 274.000 C 202.000 273.200,202.200 272.800,202.600 272.800 C 203.053 272.800,203.200 272.311,203.200 270.800 C 203.200 269.289,203.347 268.800,203.800 268.800 C 204.200 268.800,204.400 268.400,204.400 267.600 C 204.400 266.800,204.600 266.400,205.000 266.400 C 205.517 266.400,205.600 265.022,205.600 256.400 C 205.600 247.778,205.517 246.400,205.000 246.400 C 204.600 246.400,204.400 246.000,204.400 245.200 C 204.400 244.400,204.200 244.000,203.800 244.000 C 203.356 244.000,203.200 243.533,203.200 242.200 C 203.200 240.867,203.044 240.400,202.600 240.400 C 202.200 240.400,202.000 240.000,202.000 239.200 C 202.000 238.445,201.795 238.000,201.447 238.000 C 201.142 238.000,200.799 237.640,200.684 237.200 C 200.569 236.760,200.188 236.400,199.837 236.400 C 199.396 236.400,199.200 236.031,199.200 235.200 C 199.200 234.400,199.000 234.000,198.600 234.000 C 198.270 234.000,198.000 233.730,198.000 233.400 C 198.000 233.070,197.730 232.800,197.400 232.800 C 197.070 232.800,196.800 232.530,196.800 232.200 C 196.800 231.870,196.530 231.600,196.200 231.600 C 195.870 231.600,195.600 231.330,195.600 231.000 C 195.600 230.670,195.330 230.400,195.000 230.400 C 194.670 230.400,194.400 230.130,194.400 229.800 C 194.400 229.470,194.130 229.200,193.800 229.200 C 193.470 229.200,193.200 228.930,193.200 228.600 C 193.200 228.270,192.930 228.000,192.600 228.000 C 192.270 228.000,192.000 227.730,192.000 227.400 C 192.000 227.000,191.600 226.800,190.800 226.800 C 190.000 226.800,189.600 226.600,189.600 226.200 C 189.600 225.870,189.261 225.600,188.847 225.600 C 188.430 225.600,188.000 225.243,187.884 224.800 C 187.743 224.259,187.338 224.000,186.637 224.000 C 185.982 224.000,185.600 223.779,185.600 223.400 C 185.600 222.956,185.133 222.800,183.800 222.800 C 182.467 222.800,182.000 222.644,182.000 222.200 C 182.000 221.756,181.533 221.600,180.200 221.600 C 178.867 221.600,178.400 221.444,178.400 221.000 C 178.400 220.484,177.089 220.400,169.000 220.400 C 160.911 220.400,159.600 220.484,159.600 221.000 " stroke="none" fill="#54c4dc" fill-rule="evenodd"></path></g></svg>